<svg width="40" height="40" viewBox="0 0 40 40" fill="none" xmlns="http://www.w3.org/2000/svg">
<path d="M19.6875 0C8.81543 0 0 8.81543 0 19.6875C0 30.5596 8.81543 39.375 19.6875 39.375C30.5596 39.375 39.375 30.5596 39.375 19.6875C39.375 8.81543 30.5596 0 19.6875 0ZM28.125 20.7422C28.125 20.9355 27.9668 21.0938 27.7734 21.0938H21.0938V27.7734C21.0938 27.9668 20.9355 28.125 20.7422 28.125H18.6328C18.4395 28.125 18.2812 27.9668 18.2812 27.7734V21.0938H11.6016C11.4082 21.0938 11.25 20.9355 11.25 20.7422V18.6328C11.25 18.4395 11.4082 18.2812 11.6016 18.2812H18.2812V11.6016C18.2812 11.4082 18.4395 11.25 18.6328 11.25H20.7422C20.9355 11.25 21.0938 11.4082 21.0938 11.6016V18.2812H27.7734C27.9668 18.2812 28.125 18.4395 28.125 18.6328V20.7422Z" fill="#C91EFA"/>
</svg>
