<svg width="21" height="25" viewBox="0 0 21 25" fill="none" xmlns="http://www.w3.org/2000/svg">
<path d="M6.43236 17.7439L5.99796 18.1689V7.41664C5.99796 7.04092 5.84014 6.6806 5.55922 6.41492C5.27829 6.14925 4.89728 6 4.5 6C4.10272 6 3.72171 6.14925 3.44078 6.41492C3.15986 6.6806 3.00204 7.04092 3.00204 7.41664V18.1689L2.56764 17.7439C2.28556 17.4772 1.90299 17.3273 1.50409 17.3273C1.10518 17.3273 0.722607 17.4772 0.440537 17.7439C0.158466 18.0107 0 18.3725 0 18.7498C0 19.127 0.158466 19.4888 0.440537 19.7556L3.43645 22.5888C3.57891 22.7178 3.7469 22.8189 3.93078 22.8863C4.11008 22.9613 4.30396 23 4.5 23C4.69604 23 4.88992 22.9613 5.06922 22.8863C5.2531 22.8189 5.42109 22.7178 5.56355 22.5888L8.55946 19.7556C8.69913 19.6235 8.80992 19.4667 8.88551 19.2941C8.9611 19.1215 9 18.9366 9 18.7498C9 18.563 8.9611 18.378 8.88551 18.2054C8.80992 18.0328 8.69913 17.876 8.55946 17.7439C8.4198 17.6119 8.25399 17.5071 8.0715 17.4356C7.88902 17.3641 7.69343 17.3273 7.49591 17.3273C7.29839 17.3273 7.10281 17.3641 6.92033 17.4356C6.73784 17.5071 6.57203 17.6119 6.43236 17.7439Z" fill="white"/>
<path d="M19.5684 17.5542V19.0396L15.3916 23.4004H19.7207V25H12.6621V23.4639L16.7881 19.1475H13.0557V17.5542H19.5684Z" fill="white"/>
<path d="M14.6426 12.7686L14.2744 14H11.9258L14.7188 6.5542H17.2324L20.0254 14H17.6196L17.2578 12.7686H14.6426ZM15.9502 8.49023L15.1377 11.1626H16.769L15.9502 8.49023Z" fill="white"/>
</svg>
