<svg width="52" height="48" viewBox="0 0 52 48" fill="none" xmlns="http://www.w3.org/2000/svg">
<path d="M48.3034 0H3.22023C2.36617 0 1.54709 0.35703 0.943183 0.992547C0.339273 1.62806 0 2.49001 0 3.38877V44.054C0 44.9527 0.339273 45.8147 0.943183 46.4502C1.54709 47.0857 2.36617 47.4428 3.22023 47.4428H48.3034C49.1575 47.4428 49.9766 47.0857 50.5805 46.4502C51.1844 45.8147 51.5237 44.9527 51.5237 44.054V3.38877C51.5237 2.49001 51.1844 1.62806 50.5805 0.992547C49.9766 0.35703 49.1575 0 48.3034 0ZM3.22023 44.054V3.38877H48.3034V44.054H3.22023Z" fill="#021E72"/>
<path d="M6.70832 22.5C6.70832 19.4079 8.75832 16.7942 11.5941 15.9571C12.8311 13.3141 14.7967 11.0791 17.26 9.51456C19.7232 7.95005 22.5819 7.12107 25.5 7.12501C28.4198 7.12319 31.2798 7.95285 33.7455 9.51692C36.2111 11.081 38.1803 13.3148 39.4229 15.9571C42.2416 16.7942 44.2916 19.4079 44.2916 22.5C44.2916 25.5921 42.2416 28.2058 39.4229 29.0429C38.1803 31.6852 36.2111 33.919 33.7455 35.4831C31.2798 37.0472 28.4198 37.8768 25.5 37.875C19.35 37.875 14.0371 34.2704 11.5941 29.0429C10.1825 28.6261 8.9437 27.7635 8.06302 26.5841C7.18233 25.4047 6.70708 23.9719 6.70832 22.5ZM29.7708 17.8021C29.2045 17.8021 28.6613 18.0271 28.2608 18.4275C27.8604 18.828 27.6354 19.3712 27.6354 19.9375C27.6354 20.5039 27.8604 21.047 28.2608 21.4475C28.6613 21.8479 29.2045 22.0729 29.7708 22.0729C30.3372 22.0729 30.8803 21.8479 31.2808 21.4475C31.6812 21.047 31.9062 20.5039 31.9062 19.9375C31.9062 19.3712 31.6812 18.828 31.2808 18.4275C30.8803 18.0271 30.3372 17.8021 29.7708 17.8021ZM21.2291 17.8021C20.6628 17.8021 20.1196 18.0271 19.7192 18.4275C19.3187 18.828 19.0937 19.3712 19.0937 19.9375C19.0937 20.5039 19.3187 21.047 19.7192 21.4475C20.1196 21.8479 20.6628 22.0729 21.2291 22.0729C21.7955 22.0729 22.3386 21.8479 22.7391 21.4475C23.1396 21.047 23.3646 20.5039 23.3646 19.9375C23.3646 19.3712 23.1396 18.828 22.7391 18.4275C22.3386 18.0271 21.7955 17.8021 21.2291 17.8021ZM17.8125 25.9167C19.1108 28.9404 22.0833 31.0417 25.5 31.0417C28.9166 31.0417 31.8891 28.9404 33.1875 25.9167H17.8125ZM10.125 22.5C10.125 23.9008 10.9791 25.1138 12.1921 25.6433C11.9529 24.6354 11.8333 23.5763 11.8333 22.5C11.8333 21.4238 11.9529 20.3646 12.1921 19.3567C10.9791 19.8863 10.125 21.0992 10.125 22.5ZM40.875 22.5C40.875 21.0992 40.0208 19.8863 38.8079 19.3567C39.0471 20.3646 39.1666 21.4238 39.1666 22.5C39.1666 23.5763 39.0471 24.6354 38.8079 25.6433C40.0208 25.1138 40.875 23.9008 40.875 22.5Z" fill="#021E72"/>
<g filter="url(#filter0_d_38_364)">
<path d="M35.5044 25.1903C36.1225 25.5845 36.1207 26.4877 35.501 26.879L21.9933 35.4074C21.3267 35.8283 20.4576 35.3479 20.4592 34.5594L20.4932 17.4377C20.4948 16.6492 21.3658 16.173 22.0307 16.5971L35.5044 25.1903Z" fill="#F8F9FF" fill-opacity="0.92" shape-rendering="crispEdges"/>
</g>
<defs>
<filter id="filter0_d_38_364" x="16.4592" y="12.4385" width="23.5078" height="27.1249" filterUnits="userSpaceOnUse" color-interpolation-filters="sRGB">
<feFlood flood-opacity="0" result="BackgroundImageFix"/>
<feColorMatrix in="SourceAlpha" type="matrix" values="0 0 0 0 0 0 0 0 0 0 0 0 0 0 0 0 0 0 127 0" result="hardAlpha"/>
<feOffset/>
<feGaussianBlur stdDeviation="2"/>
<feComposite in2="hardAlpha" operator="out"/>
<feColorMatrix type="matrix" values="0 0 0 0 0 0 0 0 0 0 0 0 0 0 0 0 0 0 0.99 0"/>
<feBlend mode="normal" in2="BackgroundImageFix" result="effect1_dropShadow_38_364"/>
<feBlend mode="normal" in="SourceGraphic" in2="effect1_dropShadow_38_364" result="shape"/>
</filter>
</defs>
</svg>
