<svg width="222" height="180" viewBox="0 0 222 180" fill="none" xmlns="http://www.w3.org/2000/svg">
<path opacity="0.5" d="M148.579 135.604C145.514 135.598 142.53 136.597 140.087 138.449L82.1707 91.1525C83.0251 89.3749 83.4957 87.4373 83.5518 85.4657C83.608 83.4942 83.2485 81.533 82.4967 79.7096L139.463 38.2697C142.096 40.4936 145.453 41.6757 148.898 41.5923C152.344 41.509 155.64 40.166 158.162 37.8174C160.685 35.4688 162.259 32.2773 162.588 28.8464C162.917 25.4155 161.977 21.983 159.947 19.1979C157.917 16.4128 154.936 14.4682 151.569 13.7318C148.202 12.9953 144.682 13.5181 141.674 15.2013C138.666 16.8845 136.38 19.6113 135.246 22.8663C134.113 26.1213 134.211 29.6787 135.523 32.8659L78.5571 74.3058C76.5284 72.5826 74.0539 71.4678 71.4191 71.0899C68.7842 70.712 66.0962 71.0865 63.6649 72.1701C61.2336 73.2537 59.1581 75.0024 57.6776 77.2145C56.197 79.4266 55.3718 82.0121 55.2971 84.6729C55.2223 87.3337 55.901 89.9614 57.255 92.2532C58.609 94.5449 60.583 96.4074 62.9496 97.6258C65.3162 98.8443 67.979 99.3691 70.6309 99.1398C73.2828 98.9105 75.816 97.9363 77.9383 96.3297L135.855 143.643C134.539 146.404 134.157 149.519 134.765 152.516C135.374 155.514 136.94 158.232 139.228 160.262C141.516 162.292 144.402 163.523 147.451 163.77C150.5 164.017 153.546 163.266 156.131 161.631C158.716 159.996 160.699 157.565 161.782 154.704C162.865 151.843 162.989 148.708 162.135 145.771C161.281 142.834 159.495 140.254 157.047 138.42C154.599 136.586 151.622 135.598 148.563 135.604H148.579Z" fill="white"/>
<path d="M45.0074 42.6407L59.8263 144.224C60.0197 145.561 25.5251 157.943 24.2322 158.341L21.2098 158.501C19.2539 158.551 17.8946 157.733 17.6515 156.053L3.48462 48.4257C3.40915 47.8646 3.55931 47.2964 3.90216 46.8458C4.24501 46.3953 4.75256 46.0991 5.3135 46.0222L42.6149 40.8229C43.1724 40.7518 43.7354 40.9025 44.1829 41.2425C44.6304 41.5825 44.9264 42.0846 45.0074 42.6407V42.6407Z" fill="white" stroke="#1D1355" stroke-linecap="round" stroke-linejoin="round"/>
<path d="M49.2453 42.0824L64.0531 143.665C64.1434 144.312 64.0015 144.971 63.6525 145.523C63.3035 146.075 62.7701 146.486 62.1469 146.682L25.4367 157.948C25.0557 158.061 24.6549 158.09 24.2616 158.034C23.8683 157.978 23.4918 157.837 23.1577 157.622C22.8236 157.407 22.5399 157.123 22.3258 156.788C22.1117 156.453 21.9723 156.076 21.9171 155.683L7.71147 47.8674C7.6376 47.3057 7.78908 46.7376 8.13281 46.2872C8.47654 45.8368 8.98457 45.5408 9.54588 45.4639L46.8141 40.2646C47.3775 40.184 47.9498 40.3301 48.4055 40.6709C48.8612 41.0117 49.1632 41.5193 49.2453 42.0824Z" fill="#1D1355" stroke="#1D1355" stroke-linecap="round" stroke-linejoin="round"/>
<path d="M40.3606 147.522L48.5215 144.803" stroke="white" stroke-width="2" stroke-linecap="round" stroke-linejoin="round"/>
<path d="M46.3721 44.7568L12.9937 50.4313L25.7903 148.55L59.8318 137.98L46.3721 44.7568Z" fill="#C0C0C0" stroke="#1D1355" stroke-linecap="round" stroke-linejoin="round"/>
<path d="M179.643 42.6402L164.796 144.223C164.603 145.56 199.097 157.943 200.39 158.34L203.413 158.501C205.369 158.55 206.728 157.733 206.971 156.053L221.138 48.4252C221.213 47.8633 221.062 47.2943 220.718 46.8436C220.374 46.3929 219.865 46.0973 219.304 46.0217L182.035 40.8224C181.478 40.7513 180.915 40.902 180.467 41.242C180.02 41.582 179.724 42.0841 179.643 42.6402V42.6402Z" fill="white" stroke="#1D1355" stroke-linecap="round" stroke-linejoin="round"/>
<path d="M175.388 42.0823L160.569 143.665C160.479 144.312 160.621 144.97 160.97 145.523C161.319 146.075 161.852 146.486 162.476 146.682L199.186 157.948C199.567 158.061 199.968 158.09 200.361 158.034C200.754 157.978 201.131 157.837 201.465 157.622C201.799 157.407 202.083 157.123 202.297 156.788C202.511 156.453 202.65 156.076 202.705 155.683L216.911 47.8673C216.985 47.3056 216.833 46.7375 216.49 46.2871C216.146 45.8368 215.638 45.5408 215.077 45.4638L177.808 40.2645C177.247 40.1871 176.677 40.3347 176.224 40.6752C175.771 41.0157 175.47 41.5214 175.388 42.0823V42.0823Z" fill="#1D1355" stroke="#1D1355" stroke-linecap="round" stroke-linejoin="round"/>
<path d="M174.554 144.024L182.328 146.549" stroke="white" stroke-width="2" stroke-linecap="round" stroke-linejoin="round"/>
<path d="M178.25 44.7563L211.629 50.4309L198.832 148.549L164.791 137.98L178.25 44.7563Z" fill="#C0C0C0" stroke="#1D1355" stroke-linecap="round" stroke-linejoin="round"/>
<path d="M28.006 90.9316C29.9454 88.4397 32.4815 86.9258 35.2607 86.9258C41.3386 86.9258 46.2561 94.1418 46.2561 103.049C46.2561 110.624 42.6867 116.984 37.8797 118.707" stroke="#1D1355" stroke-linecap="round" stroke-linejoin="round"/>
<path d="M25.5196 95.5509C25.8947 94.4923 26.3683 93.4712 26.9341 92.501" stroke="#1D1355" stroke-linecap="round" stroke-linejoin="round"/>
<path d="M35.2607 119.15C29.1829 119.15 24.2709 111.928 24.2709 103.027C24.2656 101.121 24.4976 99.2224 24.9615 97.3743" stroke="#1D1355" stroke-linecap="round" stroke-linejoin="round"/>
<path d="M192.804 89.2739C190.865 86.782 188.329 85.2681 185.549 85.2681C179.472 85.2681 174.56 92.4841 174.56 101.391C174.56 108.966 178.123 115.326 182.93 117.05" stroke="#1D1355" stroke-linecap="round" stroke-linejoin="round"/>
<path d="M195.29 93.8932C194.915 92.8346 194.442 91.8135 193.876 90.8433" stroke="#1D1355" stroke-linecap="round" stroke-linejoin="round"/>
<path d="M185.549 117.492C191.627 117.492 196.545 110.27 196.545 101.369C196.548 99.463 196.314 97.5642 195.849 95.7163" stroke="#1D1355" stroke-linecap="round" stroke-linejoin="round"/>
<path d="M172.913 47.5359C172.913 47.5359 177.471 40.9718 184.814 43.088C192.158 45.2042 195.942 50.2046 195.384 55.4371C194.826 60.6695 193.495 66.8966 197.164 68.2282C200.832 69.5598 206.286 67.6756 209.319 71.9025C212.353 76.1294 213.546 82.6935 209.209 88.2519C204.871 93.8104 195.274 95.2636 188.041 90.9317C180.809 86.5999 175.692 81.0303 175.582 73.0186C175.471 65.0069 177.792 61.3381 177.239 56.7742C176.687 52.2103 175.46 51.8788 175.46 51.8788L172.913 47.5359Z" fill="#1D1355" stroke="#1D1355" stroke-linecap="round" stroke-linejoin="round"/>
<path d="M183.704 54.4646C185.516 58.4097 182.306 66.9518 182.046 70.3609C181.3 79.6545 185.019 87.6441 195.241 89.3128C205.463 90.9814 209.546 82.6271 208.435 78.5384C207.645 75.6487 203.23 76.494 202.86 80.3949C202.49 84.2958 206.203 82.2514 206.391 81.5" stroke="white" stroke-width="0.75" stroke-linecap="round" stroke-linejoin="round"/>
<path d="M174.234 52.5419C174.234 52.5419 178.355 50.4754 182.146 52.8016" stroke="white" stroke-width="0.75" stroke-linecap="round" stroke-linejoin="round"/>
<path d="M198.981 83.5721C199.604 83.3795 200.207 83.1298 200.783 82.8262" stroke="white" stroke-width="0.75" stroke-linecap="round" stroke-linejoin="round"/>
<path d="M172.93 51.7959C172.93 51.7959 178.875 47.1491 185.566 48.8233C192.257 50.4975 192.627 59.5977 190.213 65.1727C187.798 70.7478 186.682 77.6268 190.765 81.8979C191.519 82.69 192.446 83.296 193.474 83.6681C194.502 84.0401 195.602 84.168 196.688 84.0417" stroke="white" stroke-width="0.75" stroke-linecap="round" stroke-linejoin="round"/>
<path d="M166.57 71.9026C166.57 71.9026 161.564 71.013 159.116 72.3446C156.669 73.6762 142.54 84.2461 142.54 84.2461L130.528 75.1293V81.0249C130.528 81.0249 138.871 91.0367 141.319 91.6998C143.767 92.3628 160.895 82.9145 160.895 82.9145C160.895 82.9145 160.232 92.1473 161.343 94.1475C162.454 96.1477 167.797 97.8218 172.134 99.7115C176.471 101.601 181.035 106.834 183.704 108.055C186.373 109.276 188.489 108.944 190.378 103.717C192.268 98.4904 189.931 95.0426 189.273 93.595C186.653 88.7349 183.717 84.0523 180.483 79.5772C176.698 74.4608 166.57 71.9026 166.57 71.9026Z" fill="white"/>
<path d="M183.593 102.883C182.002 100.938 184.477 98.4626 186.422 96.8769C188.367 95.2911 177.764 96.5232 177.234 95.6392C176.703 94.7551 179.532 93.1639 181.101 91.7715C182.671 90.3791 176.433 93.3241 172.814 91.2189C169.194 89.1138 166.984 89.8266 166.984 89.8266C166.984 89.8266 170.852 84.5278 171.753 81.3452C172.653 78.1626 171.2 77.6377 171.2 77.6377L170.161 73.0793C168.078 72.3113 166.548 71.9245 166.548 71.9245C166.548 71.9245 161.542 71.035 159.094 72.3666C156.646 73.6982 142.518 84.2681 142.518 84.2681L130.506 75.1513V81.0468C130.506 81.0468 138.849 91.0587 141.297 91.7217C143.745 92.3848 160.873 82.9365 160.873 82.9365C160.873 82.9365 160.21 92.1693 161.321 94.1695C162.431 96.1696 167.774 97.8438 172.112 99.7335C176.449 101.623 181.013 106.856 183.682 108.077C185.853 109.071 187.66 109.038 189.273 106.176C187.561 105.076 184.616 104.121 183.593 102.883Z" fill="#C0C0C0"/>
<path opacity="0.5" d="M183.593 102.883C182.002 100.938 184.477 98.4626 186.422 96.8769C188.367 95.2911 177.764 96.5232 177.234 95.6392C176.703 94.7551 179.532 93.1639 181.101 91.7715C182.671 90.3791 176.433 93.3241 172.814 91.2189C169.194 89.1138 166.984 89.8266 166.984 89.8266C166.984 89.8266 170.852 84.5278 171.753 81.3452C172.653 78.1626 171.2 77.6377 171.2 77.6377L170.161 73.0793C168.078 72.3113 166.548 71.9245 166.548 71.9245C166.548 71.9245 161.542 71.035 159.094 72.3666C156.646 73.6982 142.518 84.2681 142.518 84.2681L130.506 75.1513V81.0468C130.506 81.0468 138.849 91.0587 141.297 91.7217C143.745 92.3848 160.873 82.9365 160.873 82.9365C160.873 82.9365 160.21 92.1693 161.321 94.1695C162.431 96.1696 167.774 97.8438 172.112 99.7335C176.449 101.623 181.013 106.856 183.682 108.077C185.853 109.071 187.66 109.038 189.273 106.176C187.561 105.076 184.616 104.121 183.593 102.883Z" fill="white"/>
<path d="M166.57 71.9026C166.57 71.9026 161.564 71.013 159.116 72.3446C156.669 73.6762 142.54 84.2461 142.54 84.2461L130.528 75.1293V81.0249C130.528 81.0249 138.871 91.0367 141.319 91.6998C143.767 92.3628 160.895 82.9145 160.895 82.9145C160.895 82.9145 160.232 92.1473 161.343 94.1475C162.454 96.1477 167.797 97.8218 172.134 99.7115C176.471 101.601 181.035 106.834 183.704 108.055C186.373 109.276 188.489 108.944 190.378 103.717C192.268 98.4904 189.931 95.0426 189.273 93.595C186.653 88.7349 183.717 84.0523 180.483 79.5772C176.698 74.4608 166.57 71.9026 166.57 71.9026Z" stroke="#1D1355" stroke-linecap="round" stroke-linejoin="round"/>
<path d="M176.449 93.302C176.449 93.302 180.869 93.0258 183.908 91.3682" stroke="#1D1355" stroke-linecap="round" stroke-linejoin="round"/>
<path d="M175.068 94.407C175.068 94.407 181.146 95.2358 185.842 94.407" stroke="#1D1355" stroke-linecap="round" stroke-linejoin="round"/>
<path d="M155.453 78.9363L160.895 82.9145L151.309 80.3176" stroke="#1D1355" stroke-linecap="round" stroke-linejoin="round"/>
<path d="M164.608 72.9963C164.608 72.9963 163.664 77.5105 165.161 80.5163C166.658 83.5221 168.918 84.279 170.614 82.0247C172.311 79.7704 172.681 74.2892 169.675 72.8085C166.669 71.3277 165.172 72.2449 164.608 72.9963Z" fill="#1D1355" stroke="#1D1355" stroke-linecap="round" stroke-linejoin="round"/>
<path d="M54.6546 67.3606C54.6546 67.3606 51.8919 66.3826 46.7368 71.3664C41.5817 76.3503 36.4708 81.312 33.244 86.9092C30.0172 92.5063 28.4535 100.722 28.0667 105.695C27.9917 107.07 28.2502 108.442 28.8202 109.695C29.3902 110.948 30.2549 112.045 31.3404 112.892C32.4259 113.738 33.7 114.31 35.0542 114.558C36.4084 114.806 37.8024 114.722 39.1174 114.315C42.9851 113.177 55.8978 95.7276 57.9477 92.987C59.9976 90.2464 62.053 86.8318 62.053 86.8318C62.053 86.8318 72.8052 96.8989 76.7172 98.656C80.6291 100.413 86.8174 99.2196 86.8174 99.2196L87.1103 92.5892C87.1103 92.5892 81.3419 91.6112 80.8556 91.3184C80.3694 91.0255 72.0593 81.6435 67.7551 76.4608C63.4509 71.278 60.5225 68.0568 58.3621 67.2722C57.7703 67.0351 57.1365 66.9207 56.4992 66.9359C55.8619 66.9511 55.2344 67.0956 54.6546 67.3606V67.3606Z" fill="white"/>
<path d="M67.7496 76.4497C64.6278 72.6925 62.2243 69.9685 60.3291 68.4546L59.9202 68.5098C53.9197 69.6481 50.5272 80.3506 50.5272 80.3506C50.3838 82.9024 50.1127 85.4454 49.7149 87.97C49.2287 90.2409 44.5267 83.268 44.5267 85.0526C44.5267 86.8373 47.9303 90.0807 48.3944 90.7271C48.8585 91.3736 46.9357 90.2409 45.9632 89.9204C44.9908 89.6 42.2337 98.0261 41.2612 99.645C40.2887 101.264 29.2602 105.325 30.0724 106.458C30.8847 107.59 37.2056 104.999 37.2056 104.999C37.2056 104.999 35.5812 107.11 31.8516 109.055C30.9497 109.522 30.1758 110.203 29.5973 111.038C30.6202 112.54 32.1027 113.67 33.8223 114.258C35.5418 114.845 37.4056 114.86 39.134 114.298C43.0017 113.16 55.9143 95.711 57.9642 92.9704C60.0141 90.2299 62.0696 86.8152 62.0696 86.8152C62.0696 86.8152 72.8218 96.8823 76.7337 98.6394C80.6457 100.396 86.8174 99.2196 86.8174 99.2196L87.1103 92.5892C87.1103 92.5892 81.3419 91.6112 80.8556 91.3183C80.3694 91.0255 72.0538 81.6325 67.7496 76.4497Z" fill="#C0C0C0"/>
<path opacity="0.5" d="M67.7496 76.4497C64.6278 72.6925 62.2243 69.9685 60.3291 68.4546L59.9202 68.5098C53.9197 69.6481 50.5272 80.3506 50.5272 80.3506C50.3838 82.9024 50.1127 85.4454 49.7149 87.97C49.2287 90.2409 44.5267 83.268 44.5267 85.0526C44.5267 86.8373 47.9303 90.0807 48.3944 90.7271C48.8585 91.3736 46.9357 90.2409 45.9632 89.9204C44.9908 89.6 42.2337 98.0261 41.2612 99.645C40.2887 101.264 29.2602 105.325 30.0724 106.458C30.8847 107.59 37.2056 104.999 37.2056 104.999C37.2056 104.999 35.5812 107.11 31.8516 109.055C30.9497 109.522 30.1758 110.203 29.5973 111.038C30.6202 112.54 32.1027 113.67 33.8223 114.258C35.5418 114.845 37.4056 114.86 39.134 114.298C43.0017 113.16 55.9143 95.711 57.9642 92.9704C60.0141 90.2299 62.0696 86.8152 62.0696 86.8152C62.0696 86.8152 72.8218 96.8823 76.7337 98.6394C80.6457 100.396 86.8174 99.2196 86.8174 99.2196L87.1103 92.5892C87.1103 92.5892 81.3419 91.6112 80.8556 91.3183C80.3694 91.0255 72.0538 81.6325 67.7496 76.4497Z" fill="white"/>
<path d="M54.6546 67.3606C54.6546 67.3606 51.8919 66.3826 46.7368 71.3664C41.5817 76.3503 36.4708 81.312 33.244 86.9092C30.0172 92.5063 28.4535 100.722 28.0667 105.695C27.9917 107.07 28.2502 108.442 28.8202 109.695C29.3902 110.948 30.2549 112.045 31.3404 112.892C32.4259 113.738 33.7 114.31 35.0542 114.558C36.4084 114.806 37.8024 114.722 39.1174 114.315C42.9851 113.177 55.8978 95.7276 57.9477 92.987C59.9976 90.2464 62.053 86.8318 62.053 86.8318C62.053 86.8318 72.8052 96.8989 76.7172 98.656C80.6291 100.413 86.8174 99.2196 86.8174 99.2196L87.1103 92.5892C87.1103 92.5892 81.3419 91.6112 80.8556 91.3184C80.3694 91.0255 72.0593 81.6435 67.7551 76.4608C63.4509 71.278 60.5225 68.0568 58.3621 67.2722C57.7703 67.0351 57.1365 66.9207 56.4992 66.9359C55.8619 66.9511 55.2344 67.0956 54.6546 67.3606V67.3606Z" stroke="#1D1355" stroke-linecap="round" stroke-linejoin="round"/>
<path d="M32.7909 98.8274C33.6818 99.2175 34.6582 99.3716 35.6259 99.2748C36.5937 99.178 37.5202 98.8337 38.3162 98.2749" stroke="#1D1355" stroke-linecap="round" stroke-linejoin="round"/>
<path d="M30.0282 102.971C30.0282 102.971 37.2112 103.247 40.5263 98.8271" stroke="#1D1355" stroke-linecap="round" stroke-linejoin="round"/>
<path d="M68.9817 83.0803L62.0806 86.8154L70.9156 85.843" stroke="#1D1355" stroke-linecap="round" stroke-linejoin="round"/>
<path d="M53.544 66.438C53.544 66.438 48.4773 69.0625 48.2894 71.129C48.1015 73.1955 47.7811 76.5659 49.0906 80.3176C50.4001 84.0693 52.7925 86.6993 53.9197 86.5115C55.0469 86.3236 58.235 83.1355 58.6107 75.8145C58.9864 68.4934 56.7321 66.438 53.544 66.438Z" fill="#1D1355" stroke="#1D1355" stroke-linecap="round" stroke-linejoin="round"/>
<path d="M139.347 59.0452H83.2647V117.337H139.347V59.0452Z" fill="#1D1355" stroke="#1D1355" stroke-linecap="round" stroke-linejoin="round"/>
<path d="M136.954 61.5317H85.6571V114.851H136.954V61.5317Z" fill="white" stroke="#1D1355" stroke-linecap="round" stroke-linejoin="round"/>
<path d="M136.954 63.7854C128.467 67.41 130.401 77.1732 123.876 84.1849C116.417 92.1966 107.576 85.0137 94.5916 93.0254C90.8226 95.4087 87.7425 98.7364 85.6571 102.678V114.834H136.954V63.7854Z" fill="#C0C0C0" stroke="#1D1355" stroke-linecap="round" stroke-linejoin="round"/>
<path d="M96.111 79.4886C99.6966 79.4886 102.603 76.582 102.603 72.9964C102.603 69.4108 99.6966 66.5042 96.111 66.5042C92.5255 66.5042 89.6188 69.4108 89.6188 72.9964C89.6188 76.582 92.5255 79.4886 96.111 79.4886Z" fill="#C0C0C0" stroke="#1D1355" stroke-linecap="round" stroke-linejoin="round"/>
<path d="M117.157 58.1441C117.157 58.1441 116.185 57.5584 115.593 58.3375C115.002 59.1166 114.229 60.3929 114.521 61.1001C114.814 61.8074 115.792 60.5145 116.378 59.8293C116.614 59.6149 116.805 59.3553 116.938 59.0658C117.072 58.7763 117.147 58.4629 117.157 58.1441V58.1441Z" fill="white" stroke="#1D1355" stroke-linecap="round" stroke-linejoin="round"/>
<path d="M118.726 57.8517C118.618 57.7337 118.482 57.6451 118.331 57.5943C118.179 57.5435 118.017 57.5323 117.86 57.5616C117.703 57.5909 117.556 57.6598 117.433 57.7619C117.31 57.8639 117.215 57.9956 117.157 58.1445C116.571 59.3159 116.864 62.0509 117.356 62.3438C117.848 62.6366 118.135 62.5427 118.527 61.073C118.92 59.6032 119.113 59.0231 118.726 57.8517Z" fill="white" stroke="#1D1355" stroke-linecap="round" stroke-linejoin="round"/>
<path d="M120.29 57.7799C120.182 57.6631 120.046 57.5757 119.895 57.5257C119.744 57.4757 119.583 57.4648 119.427 57.4941C119.271 57.5233 119.125 57.5918 119.002 57.693C118.879 57.7942 118.784 57.9248 118.726 58.0727C118.135 59.2441 118.428 61.9846 118.92 62.2775C119.411 62.5703 119.699 62.4708 120.091 61.0066C120.483 59.5424 120.677 58.9236 120.29 57.7799Z" fill="white" stroke="#1D1355" stroke-linecap="round" stroke-linejoin="round"/>
<path d="M121.853 57.6527C121.746 57.5359 121.61 57.4485 121.459 57.3985C121.308 57.3485 121.147 57.3376 120.991 57.3669C120.834 57.3961 120.688 57.4646 120.566 57.5658C120.443 57.667 120.348 57.7976 120.29 57.9455C119.699 59.1224 119.997 61.8574 120.483 62.1503C120.969 62.4431 121.262 62.3437 121.655 60.8794C122.047 59.4152 122.24 58.8296 121.853 57.6527Z" fill="white" stroke="#1D1355" stroke-linecap="round" stroke-linejoin="round"/>
<path d="M125.075 119.293L127.086 117.702" stroke="#1D1355" stroke-linecap="round" stroke-linejoin="round"/>
<path d="M56.2182 64.3327C56.2182 64.3327 54.1628 66.7749 52.6986 68.2391C51.2344 69.7033 50.5493 69.7089 50.5493 72.5433C50.5493 75.3778 51.7538 82.6878 53.5108 83.0801C55.2679 83.4724 62.4729 72.8362 62.4729 72.8362L59.9312 63.0619C59.9312 63.0619 57.1962 62.9624 56.2182 64.3327Z" fill="white"/>
<path d="M57.6493 72.4051C57.036 76.6817 55.1353 79.3726 52.6102 82.2457C52.7926 82.6289 53.1149 82.9275 53.5108 83.0801C55.2734 83.4724 62.4729 72.8361 62.4729 72.8361L60.7656 66.261L59.434 65.1062C58.5648 67.4638 57.9661 69.9125 57.6493 72.4051V72.4051Z" fill="#C0C0C0"/>
<path opacity="0.5" d="M57.6493 72.4051C57.036 76.6817 55.1353 79.3726 52.6102 82.2457C52.7926 82.6289 53.1149 82.9275 53.5108 83.0801C55.2734 83.4724 62.4729 72.8361 62.4729 72.8361L60.7656 66.261L59.434 65.1062C58.5648 67.4638 57.9661 69.9125 57.6493 72.4051V72.4051Z" fill="white"/>
<path d="M56.2182 64.3327C56.2182 64.3327 54.1628 66.7749 52.6986 68.2391C51.2344 69.7033 50.5493 69.7089 50.5493 72.5433C50.5493 75.3778 51.7538 82.6878 53.5108 83.0801C55.2679 83.4724 62.4729 72.8362 62.4729 72.8362L59.9312 63.0619C59.9312 63.0619 57.1962 62.9624 56.2182 64.3327Z" stroke="#1D1355" stroke-linecap="round" stroke-linejoin="round"/>
<path d="M73.0042 57.0947C73.4683 58.2661 73.5567 59.6087 73.5567 61.2995C73.5567 63.2554 72.971 64.9185 73.2639 65.7971C73.5567 66.6756 75.0209 67.8525 74.6342 68.731C74.2474 69.6095 71.993 70.0958 71.993 70.3886C71.3132 72.2852 70.4625 74.116 69.4514 75.8587C68.4734 77.4223 66.1362 76.7372 62.705 75.3724C59.2738 74.0077 58.7986 71.4605 58.4063 69.7974C58.014 68.1343 58.6991 62.2719 58.8925 58.0672C58.9975 55.857 59.4451 54.2381 61.6552 53.2491C63.0853 52.6449 64.6443 52.4097 66.189 52.5651C67.7337 52.7206 69.2146 53.2616 70.4957 54.1387C71.6174 54.8409 72.4939 55.8736 73.0042 57.0947V57.0947Z" fill="white"/>
<path d="M73.518 61.2993C73.518 59.6085 73.4517 58.2659 72.9655 57.0945C72.4381 55.8668 71.5397 54.8351 70.3962 54.144C68.3388 52.7567 65.8189 52.2329 63.379 52.6853L63.7879 56.5088C65.5312 56.8927 67.184 57.6093 68.6557 58.6195C70.9266 60.2439 71.109 62.0673 70.6117 64.9681C70.1144 67.8689 71.4129 68.8358 70.1144 71.7532C68.816 74.6705 68.9762 75.4827 66.2467 75.4827C63.5172 75.4827 60.5667 72.8914 59.2737 71.1067C58.9201 70.626 58.6383 70.2503 58.4007 69.9409C58.5335 70.5901 58.7183 71.2275 58.9533 71.8471C59.1246 72.1897 59.3124 72.5433 59.5058 72.9135C60.2639 74.0494 61.3656 74.9129 62.6497 75.3778C66.0754 76.7425 68.4181 77.4277 69.3961 75.864C70.4072 74.1214 71.2579 72.2905 71.9378 70.3939C71.9378 70.0956 74.1866 69.6093 74.5789 68.7363C74.9712 67.8633 73.5014 66.6809 73.2086 65.8024C72.9157 64.9239 73.518 63.2552 73.518 61.2993Z" fill="#C0C0C0"/>
<path opacity="0.5" d="M73.518 61.2993C73.518 59.6085 73.4517 58.2659 72.9655 57.0945C72.4381 55.8668 71.5397 54.8351 70.3962 54.144C68.3388 52.7567 65.8189 52.2329 63.379 52.6853L63.7879 56.5088C65.5312 56.8927 67.184 57.6093 68.6557 58.6195C70.9266 60.2439 71.109 62.0673 70.6117 64.9681C70.1144 67.8689 71.4129 68.8358 70.1144 71.7532C68.816 74.6705 68.9762 75.4827 66.2467 75.4827C63.5172 75.4827 60.5667 72.8914 59.2737 71.1067C58.9201 70.626 58.6383 70.2503 58.4007 69.9409C58.5335 70.5901 58.7183 71.2275 58.9533 71.8471C59.1246 72.1897 59.3124 72.5433 59.5058 72.9135C60.2639 74.0494 61.3656 74.9129 62.6497 75.3778C66.0754 76.7425 68.4181 77.4277 69.3961 75.864C70.4072 74.1214 71.2579 72.2905 71.9378 70.3939C71.9378 70.0956 74.1866 69.6093 74.5789 68.7363C74.9712 67.8633 73.5014 66.6809 73.2086 65.8024C72.9157 64.9239 73.518 63.2552 73.518 61.2993Z" fill="white"/>
<path d="M73.0042 57.0947C73.4683 58.2661 73.5567 59.6087 73.5567 61.2995C73.5567 63.2554 72.971 64.9185 73.2639 65.7971C73.5567 66.6756 75.0209 67.8525 74.6342 68.731C74.2474 69.6095 71.993 70.0958 71.993 70.3886C71.3132 72.2852 70.4625 74.116 69.4514 75.8587C68.4734 77.4223 66.1362 76.7372 62.705 75.3724C59.2738 74.0077 58.7986 71.4605 58.4063 69.7974C58.014 68.1343 58.6991 62.2719 58.8925 58.0672C58.9975 55.857 59.4451 54.2381 61.6552 53.2491C63.0853 52.6449 64.6443 52.4097 66.189 52.5651C67.7337 52.7206 69.2146 53.2616 70.4957 54.1387C71.6174 54.8409 72.4939 55.8736 73.0042 57.0947V57.0947Z" stroke="#1D1355" stroke-linecap="round" stroke-linejoin="round"/>
<path d="M71.1145 64.9957C71.0758 65.6698 70.8272 66.2002 70.562 66.1836C70.2968 66.1671 70.1144 65.6311 70.1531 64.9349C70.1918 64.2387 70.4404 63.7304 70.7056 63.747C70.9708 63.7636 71.1532 64.3216 71.1145 64.9957Z" fill="#48481A"/>
<path d="M65.8931 69.2173C65.8931 69.2173 66.1859 70.9799 68.5342 71.1733" stroke="#1D1355" stroke-linecap="round" stroke-linejoin="round"/>
<path d="M69.1364 62.3769C69.1364 62.3769 70.4073 60.9127 72.0704 61.7912" stroke="#1D1355" stroke-linecap="round" stroke-linejoin="round"/>
<path d="M58.467 62.9624C58.467 62.9624 60.0307 63.747 60.3236 62.5701C60.6164 61.3932 60.4672 60.7191 61.2463 60.4263C62.0253 60.1335 64.8212 59.8351 64.4289 58.0725C64.0366 56.3099 63.2906 56.0392 64.5615 55.4535C65.8323 54.8678 68.0479 56.1 71.4681 57.6636C74.8883 59.2273 78.209 57.6636 79.3804 55.6303C80.5517 53.597 79.8721 47.3423 75.3745 47.3423C72.4019 47.3423 71.6781 48.4474 70.9985 48.7513C70.3188 49.0552 65.1085 46.066 59.5334 47.2374C53.9584 48.4087 52.6986 56.321 53.4556 58.7632C54.2125 61.2054 54.848 65.8964 58.467 62.9624Z" fill="#1D1355" stroke="#1D1355" stroke-linecap="round" stroke-linejoin="round"/>
<path d="M76.3857 55.4368C76.1526 55.7328 75.859 55.9756 75.5246 56.149C75.1901 56.3224 74.8225 56.4224 74.4463 56.4424C70.9156 56.8126 67.3849 53.84 64.0421 52.7238C60.6993 51.6077 55.3066 53.094 53.6324 56.4424C53.6324 56.4424 56.605 53.6521 61.2518 55.6965" stroke="white" stroke-width="0.75" stroke-linecap="round" stroke-linejoin="round"/>
<path d="M76.8719 51.6082C77.041 52.3547 77.0803 53.1247 76.9879 53.8846" stroke="white" stroke-width="0.75" stroke-linecap="round" stroke-linejoin="round"/>
<path d="M59.2461 64.2332C59.2461 64.2332 58.3676 60.1279 57.1962 59.5422C56.0249 58.9566 54.3617 59.0505 54.1628 62.0839C53.9639 65.1173 55.6326 66.5815 56.5111 66.7749C57.3896 66.9683 58.7599 66.1892 58.7599 66.1892" fill="white"/>
<path d="M59.2461 64.2332C59.2461 64.2332 58.3676 60.1279 57.1962 59.5422C56.0249 58.9566 54.3617 59.0505 54.1628 62.0839C53.9639 65.1173 55.6326 66.5815 56.5111 66.7749C57.3896 66.9683 58.7599 66.1892 58.7599 66.1892" stroke="#1D1355" stroke-linecap="round" stroke-linejoin="round"/>
<path d="M88.7679 116.348L93.6523 112.829C94.2572 112.363 94.978 112.072 95.7366 111.986C96.4952 111.9 97.2629 112.024 97.9565 112.342C99.406 112.845 100.882 113.269 102.377 113.613C102.67 113.613 102.476 114.298 101.592 114.591C100.708 114.884 99.3433 114.691 98.3709 114.591C97.7261 114.551 97.0824 114.686 96.5088 114.984C96.5088 114.984 101.006 115.763 102.178 116.155C103.349 116.547 105.018 117.232 104.526 117.719C104.12 118.177 103.621 118.544 103.062 118.796C102.67 118.89 101.957 118.404 100.714 118.989C99.4704 119.575 96.8017 120.36 95.5309 120.36C94.26 120.36 88.79 118.796 88.79 118.796L88.7679 116.348Z" fill="white" stroke="#1D1355" stroke-linecap="round" stroke-linejoin="round"/>
<path d="M33.7357 93.0699C33.7357 93.0699 45.3389 114.182 48.0076 118.486C50.6763 122.791 53.3838 123.177 54.9474 123.177C56.5111 123.177 88.7679 118.757 88.7679 118.757V116.348C88.7679 116.348 72.7445 115.569 68.1419 114.591C63.5393 113.613 56.7045 113.221 56.7045 113.221C56.7045 113.221 50.3503 94.6336 47.8087 91.0145C46.3131 88.8715 44.0907 87.3441 41.554 86.7158" fill="white"/>
<path d="M56.7045 113.204C56.7045 113.204 50.3504 94.6336 47.8087 91.0146C47.654 90.7935 47.4938 90.5836 47.328 90.3792C47.8805 92.418 49.4387 97.9433 50.3504 100.944C51.4886 104.673 52.9473 106.624 51.9748 106.944C51.0023 107.265 44.1896 99.8109 45.1621 102.728C46.1345 105.646 54.4059 111.812 54.4059 112.458C54.4059 113.105 50.6764 113.431 52.461 114.403C54.2457 115.376 57.4891 115.055 57.4891 115.055C57.4891 115.055 52.9473 117.326 54.4059 117.818C55.8646 118.31 60.0804 115.221 60.8927 115.221C61.5889 115.221 78.7173 117.862 85.5632 119.216L88.7679 118.785V116.348C88.7679 116.348 72.7445 115.569 68.1419 114.591C63.5393 113.613 56.7045 113.204 56.7045 113.204Z" fill="#C0C0C0"/>
<path opacity="0.5" d="M56.7045 113.204C56.7045 113.204 50.3504 94.6336 47.8087 91.0146C47.654 90.7935 47.4938 90.5836 47.328 90.3792C47.8805 92.418 49.4387 97.9433 50.3504 100.944C51.4886 104.673 52.9473 106.624 51.9748 106.944C51.0023 107.265 44.1896 99.8109 45.1621 102.728C46.1345 105.646 54.4059 111.812 54.4059 112.458C54.4059 113.105 50.6764 113.431 52.461 114.403C54.2457 115.376 57.4891 115.055 57.4891 115.055C57.4891 115.055 52.9473 117.326 54.4059 117.818C55.8646 118.31 60.0804 115.221 60.8927 115.221C61.5889 115.221 78.7173 117.862 85.5632 119.216L88.7679 118.785V116.348C88.7679 116.348 72.7445 115.569 68.1419 114.591C63.5393 113.613 56.7045 113.204 56.7045 113.204Z" fill="white"/>
<path d="M33.7357 93.0699C33.7357 93.0699 45.3389 114.182 48.0076 118.486C50.6763 122.791 53.3838 123.177 54.9474 123.177C56.5111 123.177 88.7679 118.757 88.7679 118.757V116.348C88.7679 116.348 72.7445 115.569 68.1419 114.591C63.5393 113.613 56.7045 113.221 56.7045 113.221C56.7045 113.221 50.3503 94.6336 47.8087 91.0145C46.3131 88.8715 44.0907 87.3441 41.554 86.7158" stroke="#1D1355" stroke-linecap="round" stroke-linejoin="round"/>
<path d="M170.913 85.0251L155 103.259L131.639 110.27C131.639 110.27 125.412 109.718 123.964 109.602C122.517 109.486 121.406 110.602 120.516 111.491C119.627 112.381 117.4 113.149 117.848 113.829C118.295 114.508 119.069 114.166 120.516 113.718C121.964 113.271 122.964 113.05 122.964 113.05C122.964 113.05 118.179 117.503 116.958 118.724C115.737 119.945 115.952 120.614 116.732 120.614C117.511 120.614 121.737 116.746 121.737 116.746C120.983 117.627 120.278 118.549 119.627 119.509C118.848 120.73 117.732 121.719 118.522 121.956C119.312 122.194 122.528 119.194 122.528 119.194L124.086 118.188C124.086 118.188 121.527 121.083 122.086 121.415C122.644 121.746 125.086 119.304 125.086 119.304C125.086 119.304 129.092 117.967 130.202 116.635C131.313 115.304 131.987 114.425 131.987 114.425C131.987 114.425 144.557 112.088 149.226 111.309C153.895 110.53 159.354 109.861 161.354 108.082C163.354 106.303 179.151 91.2853 179.93 89.2962" fill="white"/>
<path d="M161.326 99.3465C160.774 99.2305 164.089 93.8212 166.504 90.0806L155 103.269L131.639 110.27L126.732 109.839C126.815 110.342 126.87 110.646 126.87 110.646L128.992 114.359C128.992 114.359 153.375 106.402 154.436 106.402C155.497 106.402 155.497 106.756 156.735 107.11C157.973 107.463 156.912 105.695 156.912 105.695C158.589 105.495 160.245 105.14 161.857 104.634C163.802 103.927 157.265 104.082 158.326 103.573C159.387 103.065 169.106 97.5674 171.222 93.8544C173.338 90.1413 162.21 99.5233 161.326 99.3465Z" fill="#C0C0C0"/>
<path opacity="0.5" d="M161.326 99.3465C160.774 99.2305 164.089 93.8212 166.504 90.0806L155 103.269L131.639 110.27L126.732 109.839C126.815 110.342 126.87 110.646 126.87 110.646L128.992 114.359C128.992 114.359 153.375 106.402 154.436 106.402C155.497 106.402 155.497 106.756 156.735 107.11C157.973 107.463 156.912 105.695 156.912 105.695C158.589 105.495 160.245 105.14 161.857 104.634C163.802 103.927 157.265 104.082 158.326 103.573C159.387 103.065 169.106 97.5674 171.222 93.8544C173.338 90.1413 162.21 99.5233 161.326 99.3465Z" fill="white"/>
<path d="M170.913 85.0251L155 103.259L131.639 110.27C131.639 110.27 125.412 109.718 123.964 109.602C122.517 109.486 121.406 110.602 120.516 111.491C119.627 112.381 117.4 113.149 117.848 113.829C118.295 114.508 119.069 114.166 120.516 113.718C121.964 113.271 122.964 113.05 122.964 113.05C122.964 113.05 118.179 117.503 116.958 118.724C115.737 119.945 115.952 120.614 116.732 120.614C117.511 120.614 121.737 116.746 121.737 116.746C120.983 117.627 120.278 118.549 119.627 119.509C118.848 120.73 117.732 121.719 118.522 121.956C119.312 122.194 122.528 119.194 122.528 119.194L124.086 118.188C124.086 118.188 121.527 121.083 122.086 121.415C122.644 121.746 125.086 119.304 125.086 119.304C125.086 119.304 129.092 117.967 130.202 116.635C131.313 115.304 131.987 114.425 131.987 114.425C131.987 114.425 144.557 112.088 149.226 111.309C153.895 110.53 159.354 109.861 161.354 108.082C163.354 106.303 179.151 91.2853 179.93 89.2962" stroke="#1D1355" stroke-linecap="round" stroke-linejoin="round"/>
<path d="M120.522 111.502C119.632 112.392 117.406 113.16 117.853 113.84C118.301 114.519 119.074 114.177 120.522 113.729C121.97 113.282 122.97 113.061 122.97 113.061C122.97 113.061 118.185 117.514 116.964 118.735C115.742 119.956 115.958 120.625 116.737 120.625C117.516 120.625 121.743 116.757 121.743 116.757C120.988 117.638 120.284 118.56 119.632 119.52C118.853 120.741 117.737 121.73 118.527 121.967C119.317 122.205 122.533 119.205 122.533 119.205L124.091 118.199C124.091 118.199 121.533 121.094 122.091 121.426C122.649 121.757 125.091 119.315 125.091 119.315C125.091 119.315 129.097 117.978 130.208 116.647C131.318 115.315 131.992 114.436 131.992 114.436L131.655 110.32C131.655 110.32 125.428 109.767 123.981 109.651C122.533 109.535 121.406 110.613 120.522 111.502Z" fill="white" stroke="#1D1355" stroke-linecap="round" stroke-linejoin="round"/>
<path d="M154.337 53.3209C153.537 55.1 153.191 57.0499 153.331 58.9955C153.668 61.8907 153.779 63.3328 153.221 64.1119C152.663 64.891 151.779 64.5594 151.889 66.0071C152 67.4547 153.779 68.0072 153.779 68.0072C153.779 68.0072 156.227 72.7922 157.094 73.7923C157.961 74.7923 159.205 74.3448 160.21 73.9028C161.216 73.4607 163.211 72.4551 163.211 72.4551C163.211 72.4551 165.769 79.1297 166.995 80.6879C168.222 82.246 169.205 80.1353 169.554 78.3506C169.902 76.566 170.106 72.5656 169.554 71.234C169.001 69.9024 167.437 66.4491 167.437 66.4491C167.437 66.4491 170.664 66.0071 172.67 61.6642C174.676 57.3213 170.46 51.6523 164.327 50.3207C158.194 48.9891 155 51.7628 154.337 53.3209Z" fill="white"/>
<path d="M165.923 67.173C165.923 67.173 164.863 70.1732 164.332 70.8805C163.802 71.5877 159.359 73.3558 157.619 72.2949C155.878 71.2341 154.967 68.057 155.144 65.4049C155.32 62.7527 154.259 59.747 156.558 58.5093C158.857 57.2716 163.094 58.1557 163.094 58.1557L167.868 56.2163L157.265 53.0337C157.265 53.0337 155.729 53.5862 153.917 54.3819C153.399 55.8556 153.199 57.4224 153.331 58.9789C153.668 61.8742 153.779 63.3163 153.221 64.0954C152.663 64.8744 151.773 64.5429 151.889 65.9906C152.005 67.4382 153.779 67.9907 153.779 67.9907C153.779 67.9907 156.226 72.7756 157.094 73.7757C157.961 74.7758 159.205 74.3283 160.21 73.8862C161.216 73.4442 163.21 72.4386 163.21 72.4386C163.21 72.4386 165.769 79.1132 166.995 80.6713C167.575 81.4117 168.1 81.3178 168.531 80.8371C167.752 76.3284 165.923 67.173 165.923 67.173Z" fill="#C0C0C0"/>
<path opacity="0.5" d="M165.923 67.173C165.923 67.173 164.863 70.1732 164.332 70.8805C163.802 71.5877 159.359 73.3558 157.619 72.2949C155.878 71.2341 154.967 68.057 155.144 65.4049C155.32 62.7527 154.259 59.747 156.558 58.5093C158.857 57.2716 163.094 58.1557 163.094 58.1557L167.868 56.2163L157.265 53.0337C157.265 53.0337 155.729 53.5862 153.917 54.3819C153.399 55.8556 153.199 57.4224 153.331 58.9789C153.668 61.8742 153.779 63.3163 153.221 64.0954C152.663 64.8744 151.773 64.5429 151.889 65.9906C152.005 67.4382 153.779 67.9907 153.779 67.9907C153.779 67.9907 156.226 72.7756 157.094 73.7757C157.961 74.7758 159.205 74.3283 160.21 73.8862C161.216 73.4442 163.21 72.4386 163.21 72.4386C163.21 72.4386 165.769 79.1132 166.995 80.6713C167.575 81.4117 168.1 81.3178 168.531 80.8371C167.752 76.3284 165.923 67.173 165.923 67.173Z" fill="white"/>
<path d="M154.337 53.3209C153.537 55.1 153.191 57.0499 153.331 58.9955C153.668 61.8907 153.779 63.3328 153.221 64.1119C152.663 64.891 151.779 64.5594 151.889 66.0071C152 67.4547 153.779 68.0072 153.779 68.0072C153.779 68.0072 156.227 72.7922 157.094 73.7923C157.961 74.7923 159.205 74.3448 160.21 73.9028C161.216 73.4607 163.211 72.4551 163.211 72.4551C163.211 72.4551 165.769 79.1297 166.995 80.6879C168.222 82.246 169.205 80.1353 169.554 78.3506C169.902 76.566 170.106 72.5656 169.554 71.234C169.001 69.9024 167.437 66.4491 167.437 66.4491C167.437 66.4491 170.664 66.0071 172.67 61.6642C174.676 57.3213 170.46 51.6523 164.327 50.3207C158.194 48.9891 155 51.7628 154.337 53.3209Z" stroke="#1D1355" stroke-linecap="round" stroke-linejoin="round"/>
<path d="M155.95 64.112C156.164 64.112 156.337 63.6642 156.337 63.1119C156.337 62.5596 156.164 62.1118 155.95 62.1118C155.737 62.1118 155.563 62.5596 155.563 63.1119C155.563 63.6642 155.737 64.112 155.95 64.112Z" fill="#48481A"/>
<path d="M155.116 60.5425C155.116 60.5425 156.669 58.9843 157.558 61.3215" stroke="#1D1355" stroke-linecap="round" stroke-linejoin="round"/>
<path d="M156.436 69.6757C156.436 69.6757 159.332 69.5651 159.752 67.1174" stroke="#1D1355" stroke-linecap="round" stroke-linejoin="round"/>
<path d="M168.233 60.4817C167.791 60.4113 167.339 60.5028 166.959 60.7394C166.58 60.9759 166.298 61.3416 166.167 61.7691C165.923 62.4929 165.437 63.283 164.459 63.2223C162.68 63.1118 162.901 60.106 162.249 58.802C161.597 57.498 159.359 57.4649 155.354 57.1444C151.348 56.8239 148.231 56.8074 148.568 51.6909C148.905 46.5745 152.127 43.0162 154.353 43.5687C156.58 44.1212 155.906 46.464 155.906 46.464C155.906 46.464 163.028 43.0162 169.034 44.6848C175.04 46.3535 176.488 52.028 176.267 57.3931C176.046 62.7581 173.377 65.8468 171.592 66.6259C169.808 67.4049 168.482 68.6315 167.725 68.405C166.968 68.1785 166.62 66.4048 167.277 65.8468C167.935 65.2887 169.946 62.8465 169.393 61.4265C169.309 61.1753 169.156 60.9531 168.95 60.7858C168.745 60.6185 168.496 60.5131 168.233 60.4817V60.4817Z" fill="#1D1355" stroke="#1D1355" stroke-linecap="round" stroke-linejoin="round"/>
<path d="M153.049 51.7957C153.049 51.7957 151.005 55.8844 155.646 56.0667C160.288 56.2491 166.056 53.0941 170.327 54.4091C174.598 55.7242 174.974 59.6085 173.858 62.2109" stroke="white" stroke-width="0.75" stroke-linecap="round" stroke-linejoin="round"/>
<path d="M160.857 51.2377C160.857 51.2377 172.747 46.5909 174.609 53.4478" stroke="white" stroke-width="0.75" stroke-linecap="round" stroke-linejoin="round"/>
</svg>
