<svg width="26" height="28" viewBox="0 0 26 28" fill="none" xmlns="http://www.w3.org/2000/svg">
<path d="M9.66669 26.0474C10.265 26.0474 10.75 25.5134 10.75 24.8546C10.75 24.1959 10.265 23.6619 9.66669 23.6619C9.06839 23.6619 8.58337 24.1959 8.58337 24.8546C8.58337 25.5134 9.06839 26.0474 9.66669 26.0474Z" stroke="#FBFBFB" stroke-width="2" stroke-linecap="round" stroke-linejoin="round"/>
<path d="M21.5833 26.0474C22.1816 26.0474 22.6666 25.5134 22.6666 24.8546C22.6666 24.1959 22.1816 23.6619 21.5833 23.6619C20.985 23.6619 20.5 24.1959 20.5 24.8546C20.5 25.5134 20.985 26.0474 21.5833 26.0474Z" stroke="#FBFBFB" stroke-width="2" stroke-linecap="round" stroke-linejoin="round"/>
<path d="M1 1H5.33334L8.23668 16.9707C8.33574 17.5198 8.60708 18.0131 9.00319 18.3641C9.3993 18.7152 9.89494 18.9017 10.4033 18.891H20.9334C21.4418 18.9017 21.9374 18.7152 22.3335 18.3641C22.7296 18.0131 23.001 17.5198 23.1 16.9707L24.8334 6.96365H6.41668" stroke="#FBFBFB" stroke-width="2" stroke-linecap="round" stroke-linejoin="round"/>
</svg>
