<svg width="13" height="13" viewBox="0 0 13 13" fill="none" xmlns="http://www.w3.org/2000/svg">
<path d="M6.5 6.5C7.36195 6.5 8.1886 6.15759 8.7981 5.5481C9.40759 4.9386 9.75 4.11195 9.75 3.25C9.75 2.38805 9.40759 1.5614 8.7981 0.951903C8.1886 0.34241 7.36195 0 6.5 0C5.63805 0 4.8114 0.34241 4.2019 0.951903C3.59241 1.5614 3.25 2.38805 3.25 3.25C3.25 4.11195 3.59241 4.9386 4.2019 5.5481C4.8114 6.15759 5.63805 6.5 6.5 6.5ZM8.66667 3.25C8.66667 3.82464 8.43839 4.37574 8.03206 4.78206C7.62574 5.18839 7.07464 5.41667 6.5 5.41667C5.92536 5.41667 5.37426 5.18839 4.96794 4.78206C4.56161 4.37574 4.33333 3.82464 4.33333 3.25C4.33333 2.67536 4.56161 2.12426 4.96794 1.71794C5.37426 1.31161 5.92536 1.08333 6.5 1.08333C7.07464 1.08333 7.62574 1.31161 8.03206 1.71794C8.43839 2.12426 8.66667 2.67536 8.66667 3.25ZM13 11.9167C13 13 11.9167 13 11.9167 13H1.08333C1.08333 13 0 13 0 11.9167C0 10.8333 1.08333 7.58333 6.5 7.58333C11.9167 7.58333 13 10.8333 13 11.9167ZM11.9167 11.9123C11.9156 11.6458 11.7498 10.8442 11.0153 10.1097C10.309 9.40333 8.97975 8.66667 6.5 8.66667C4.01917 8.66667 2.691 9.40333 1.98467 10.1097C1.25017 10.8442 1.0855 11.6458 1.08333 11.9123H11.9167Z" fill="#220970"/>
</svg>
