<svg width="212" height="144" viewBox="0 0 212 144" fill="none" xmlns="http://www.w3.org/2000/svg">
<path d="M175.313 94.7839C175.687 96.7697 180.185 103.239 181.844 106.879C181.46 106.405 181.014 105.846 180.573 105.329C180.227 104.727 179.919 104.054 179.573 103.538C179.038 102.737 178.474 101.955 177.862 101.21C176.925 100.029 175.853 98.9621 174.668 98.0304C173.298 96.9119 171.631 96.2184 169.872 96.0351C169.398 96.0019 166.692 95.7981 167.322 96.8882C167.438 97.0552 167.592 97.1918 167.772 97.2863C169.436 98.3052 171.275 98.8503 173.028 99.656C175.654 100.883 179.123 104.154 180.569 105.575L181.303 106.547C178.72 104.139 174.502 102.756 173.057 103.433C171.27 104.248 175.114 105.083 178.374 105.926C179.833 106.258 181.19 106.94 182.327 107.912C182.953 108.756 183.659 109.703 184.365 110.675C184.45 110.827 184.536 110.969 184.621 111.111C184.12 110.53 183.554 110.008 182.934 109.557C181.265 108.414 176.673 107.722 176.189 109.267C175.706 110.813 178.962 110.106 181.763 110.552C183.279 110.832 184.672 111.572 185.754 112.67L185.938 112.869C186.256 113.343 186.559 113.756 186.844 114.173C187.512 115.149 188.147 116.068 188.739 116.955C187.797 115.72 186.679 114.629 185.422 113.718C182.976 112.04 179.711 111.685 178.521 112.585C177.332 113.486 182.82 114.301 185.517 115.249C187.071 115.84 188.448 116.819 189.517 118.092C190.403 119.348 191.28 120.571 192.223 121.851C190.72 120.52 189.111 119.314 187.412 118.244C184.649 116.433 181.787 116.68 181.024 117.77C180.261 118.86 182.597 118.931 186.943 119.865C189.235 120.351 191.359 121.429 193.104 122.993L194.351 124.652C194.825 125.301 195.417 125.964 196.019 126.618C195.285 126.287 194.199 125.813 192.995 125.296C191.65 124.743 190.349 124.087 189.104 123.334C187.683 122.443 185.749 121.5 184.047 122.258C183.918 122.3 183.8 122.369 183.7 122.461C183.6 122.552 183.52 122.664 183.467 122.789C183.414 122.914 183.389 123.049 183.392 123.185C183.396 123.32 183.429 123.454 183.488 123.576C183.676 123.919 183.971 124.192 184.327 124.353C186.223 125.391 188.559 125.666 190.63 126.125C192.531 126.551 194.458 126.85 196.398 127.021C196.962 127.614 197.55 128.197 198.133 128.746L197.261 128.908C196.232 129.102 191.218 127.713 188.73 127.405C186.242 127.097 184.228 128.732 186.929 129.68C189.63 130.628 196.356 129.272 196.356 129.272L198.299 128.908C200.607 131.083 202.744 132.746 202.744 132.746L203.645 132.14C203.645 132.14 201.782 131.628 198.654 128.671C198.581 128.086 198.571 127.494 198.626 126.907C198.825 123.59 201.559 119.846 199.46 116.637C198.953 115.86 197.858 115.433 197.251 116.287C196.815 116.903 196.839 117.941 196.976 118.656C197.45 121.002 198.185 123.083 198.005 125.528C198.005 125.637 198.005 127.277 198.119 128.168C197.692 127.746 197.251 127.287 196.787 126.78C196.404 125.858 196.097 124.907 195.867 123.936C195.266 121.353 195.867 118.614 195.436 115.983C195.299 115.177 194.043 113.268 193.427 114.926C193.157 115.661 193.503 117.054 193.55 117.836C193.692 120.05 193.91 122.362 194.782 124.429L194.408 123.955C193.657 121.893 193.074 119.774 192.664 117.618C191.995 114.059 192.109 111.031 190.962 110.083C189.815 109.135 189.877 113.097 190.962 117.263C191.46 119.162 192.268 120.965 193.356 122.599C192.133 121.035 190.915 119.429 189.754 117.86C188.676 116.152 188.003 114.219 187.787 112.211C187.583 109.049 187.393 106.466 185.934 104.898C184.474 103.329 184.408 104.504 185.559 108.073C186.351 110.519 187.299 113.808 188.403 116.021C187.498 114.794 186.649 113.628 185.886 112.571C185.379 111.476 184.147 108.647 183.763 106.201C183.289 103.092 182.682 101.462 181.867 102.286C181.303 102.865 182.341 106.637 183.853 109.708C183.213 108.803 182.735 108.106 182.431 107.694C182.305 107.504 182.163 107.305 182.005 107.097C181.27 104.587 180.375 102.127 179.327 99.7318C177.493 95.5422 174.91 92.618 175.313 94.7839Z" fill="#1D1355"/>
<g opacity="0.6">
<path opacity="0.6" d="M175.313 94.7839C175.687 96.7697 180.185 103.239 181.844 106.879C181.46 106.405 181.014 105.846 180.573 105.329C180.227 104.727 179.919 104.054 179.573 103.538C179.038 102.737 178.474 101.955 177.862 101.21C176.925 100.029 175.853 98.9621 174.668 98.0304C173.298 96.9119 171.631 96.2184 169.872 96.0351C169.398 96.0019 166.692 95.7981 167.322 96.8882C167.438 97.0552 167.592 97.1918 167.772 97.2863C169.436 98.3052 171.275 98.8503 173.028 99.656C175.654 100.883 179.123 104.154 180.569 105.575L181.303 106.547C178.72 104.139 174.502 102.756 173.057 103.433C171.27 104.248 175.114 105.083 178.374 105.926C179.833 106.258 181.19 106.94 182.327 107.912C182.953 108.756 183.659 109.703 184.365 110.675C184.45 110.827 184.536 110.969 184.621 111.111C184.12 110.53 183.554 110.008 182.934 109.557C181.265 108.414 176.673 107.722 176.189 109.267C175.706 110.813 178.962 110.106 181.763 110.552C183.279 110.832 184.672 111.572 185.754 112.67L185.938 112.869C186.256 113.343 186.559 113.756 186.844 114.173C187.512 115.149 188.147 116.068 188.739 116.955C187.797 115.72 186.679 114.629 185.422 113.718C182.976 112.04 179.711 111.685 178.521 112.585C177.332 113.486 182.82 114.301 185.517 115.249C187.071 115.84 188.448 116.819 189.517 118.092C190.403 119.348 191.28 120.571 192.223 121.851C190.72 120.52 189.111 119.314 187.412 118.244C184.649 116.433 181.787 116.68 181.024 117.77C180.261 118.86 182.597 118.931 186.943 119.865C189.235 120.351 191.359 121.429 193.104 122.993L194.351 124.652C194.825 125.301 195.417 125.964 196.019 126.618C195.285 126.287 194.199 125.813 192.995 125.296C191.65 124.743 190.349 124.087 189.104 123.334C187.683 122.443 185.749 121.5 184.047 122.258C183.918 122.3 183.8 122.369 183.7 122.461C183.6 122.552 183.52 122.664 183.467 122.789C183.414 122.914 183.389 123.049 183.392 123.185C183.396 123.32 183.429 123.454 183.488 123.576C183.676 123.919 183.971 124.192 184.327 124.353C186.223 125.391 188.559 125.666 190.63 126.125C192.531 126.551 194.458 126.85 196.398 127.021C196.962 127.614 197.55 128.197 198.133 128.746L197.261 128.908C196.232 129.102 191.218 127.713 188.73 127.405C186.242 127.097 184.228 128.732 186.929 129.68C189.63 130.628 196.356 129.272 196.356 129.272L198.299 128.908C200.607 131.083 202.744 132.746 202.744 132.746L203.645 132.14C203.645 132.14 201.782 131.628 198.654 128.671C198.581 128.086 198.571 127.494 198.626 126.907C198.825 123.59 201.559 119.846 199.46 116.637C198.953 115.86 197.858 115.433 197.251 116.287C196.815 116.903 196.839 117.941 196.976 118.656C197.45 121.002 198.185 123.083 198.005 125.528C198.005 125.637 198.005 127.277 198.119 128.168C197.692 127.746 197.251 127.287 196.787 126.78C196.404 125.858 196.097 124.907 195.867 123.936C195.266 121.353 195.867 118.614 195.436 115.983C195.299 115.177 194.043 113.268 193.427 114.926C193.157 115.661 193.503 117.054 193.55 117.836C193.692 120.05 193.91 122.362 194.782 124.429L194.408 123.955C193.657 121.893 193.074 119.774 192.664 117.618C191.995 114.059 192.109 111.031 190.962 110.083C189.815 109.135 189.877 113.097 190.962 117.263C191.46 119.162 192.268 120.965 193.356 122.599C192.133 121.035 190.915 119.429 189.754 117.86C188.676 116.152 188.003 114.219 187.787 112.211C187.583 109.049 187.393 106.466 185.934 104.898C184.474 103.329 184.408 104.504 185.559 108.073C186.351 110.519 187.299 113.808 188.403 116.021C187.498 114.794 186.649 113.628 185.886 112.571C185.379 111.476 184.147 108.647 183.763 106.201C183.289 103.092 182.682 101.462 181.867 102.286C181.303 102.865 182.341 106.637 183.853 109.708C183.213 108.803 182.735 108.106 182.431 107.694C182.305 107.504 182.163 107.305 182.005 107.097C181.27 104.587 180.375 102.127 179.327 99.7318C177.493 95.5422 174.91 92.618 175.313 94.7839Z" fill="white"/>
</g>
<path d="M208.905 85.5468C207.806 87.2387 206.602 95.0255 205.294 98.8171C205.36 98.1915 205.408 97.4995 205.441 96.8218C205.607 96.1488 205.849 95.4521 205.958 94.8312C206.119 93.8834 206.247 92.9355 206.323 91.9876C206.459 90.4856 206.418 88.9727 206.199 87.4804C205.974 85.7304 205.245 84.0837 204.1 82.741C203.801 82.4045 201.962 80.3713 201.668 81.5988C201.636 81.7991 201.654 82.0044 201.721 82.196C202.218 84.0918 203.176 85.7458 203.882 87.5515C204.934 90.253 205.19 95.0113 205.256 97.0303C205.218 97.3573 205.171 97.7697 205.119 98.2389C204.91 94.7175 202.796 90.8122 201.294 90.2956C199.436 89.6606 201.645 92.9118 203.427 95.7696C204.253 97.0159 204.765 98.4436 204.92 99.9308C204.792 100.978 204.645 102.149 204.488 103.338C204.446 103.509 204.408 103.67 204.375 103.836C204.412 103.068 204.361 102.299 204.223 101.542C203.801 99.5659 200.953 95.8976 199.536 96.6843C198.119 97.4711 200.958 99.2057 202.687 101.457C203.592 102.706 204.088 104.204 204.109 105.746C204.109 105.836 204.109 105.926 204.109 106.016C204.029 106.561 203.948 107.087 203.867 107.585C203.678 108.751 203.507 109.85 203.341 110.903C203.511 109.361 203.456 107.803 203.18 106.277C202.559 103.376 200.441 100.864 198.957 100.699C197.474 100.533 200.886 104.902 202.19 107.452C202.912 108.946 203.239 110.601 203.138 112.258C202.915 113.775 202.706 115.268 202.507 116.846C202.334 114.844 202.001 112.86 201.512 110.912C200.758 107.699 198.512 105.898 197.194 106.173C195.877 106.447 197.536 108.097 200.038 111.77C201.357 113.7 202.148 115.942 202.332 118.272C202.251 118.936 202.171 119.618 202.09 120.329C202 121.14 201.953 122.016 201.943 122.907C201.635 122.159 201.18 121.064 200.664 119.865C200.071 118.536 199.582 117.164 199.199 115.76C198.773 114.125 198.033 112.116 196.28 111.495C196.157 111.436 196.024 111.405 195.888 111.402C195.753 111.4 195.618 111.426 195.494 111.48C195.369 111.534 195.258 111.614 195.167 111.715C195.076 111.815 195.008 111.934 194.967 112.064C194.866 112.442 194.889 112.842 195.033 113.206C195.678 115.253 197.194 117.073 198.375 118.836C199.461 120.454 200.652 121.999 201.939 123.462C201.939 124.282 201.962 125.106 202.005 125.907L201.261 125.434C200.379 124.865 197.711 120.4 196.123 118.467C194.536 116.533 191.948 116.32 193.247 118.869C194.545 121.419 200.356 125.073 200.356 125.073L202.014 126.154C202.19 129.32 202.588 131.998 202.588 131.998L203.659 132.178C203.659 132.178 202.664 130.524 202.436 126.23C202.787 125.754 203.189 125.318 203.635 124.931C206.062 122.666 210.626 121.841 211.318 118.064C211.484 117.154 210.991 116.092 209.958 116.291C209.218 116.433 208.536 117.206 208.138 117.808C206.853 119.822 205.958 121.846 204.147 123.495C204.067 123.571 202.943 124.765 202.408 125.486C202.408 124.888 202.384 124.249 202.408 123.561C202.768 122.628 203.203 121.725 203.706 120.86C205.052 118.576 207.379 117.012 208.877 114.803C209.351 114.125 209.74 111.879 208.152 112.656C207.446 113.002 206.73 114.249 206.256 114.846C204.834 116.547 203.413 118.377 202.597 120.471C202.597 120.272 202.635 120.073 202.649 119.874C203.53 117.864 204.57 115.927 205.759 114.083C207.73 111.045 209.896 108.926 209.721 107.448C209.545 105.969 206.877 108.869 204.759 112.661C203.811 114.38 203.154 116.244 202.815 118.177C203.01 116.196 203.232 114.196 203.46 112.272C203.855 110.291 204.701 108.427 205.934 106.827C207.962 104.395 209.607 102.395 209.631 100.253C209.654 98.1109 208.796 98.9119 207.171 102.291C206.057 104.609 204.479 107.647 203.74 110.002C203.934 108.49 204.123 107.059 204.304 105.77C204.687 104.628 205.725 101.727 207.147 99.6938C208.939 97.1061 209.631 95.509 208.469 95.5516C207.664 95.5801 205.796 99.0114 204.792 102.291C204.953 101.196 205.086 100.362 205.171 99.8692C205.209 99.648 205.242 99.4063 205.27 99.1441C206.461 96.8047 207.503 94.3923 208.389 91.9212C209.962 87.5942 210.1 83.7079 208.905 85.5468Z" fill="#1D1355"/>
<g opacity="0.6">
<path opacity="0.6" d="M208.905 85.5468C207.806 87.2387 206.602 95.0255 205.294 98.8171C205.36 98.1915 205.408 97.4995 205.441 96.8218C205.607 96.1488 205.849 95.4521 205.958 94.8312C206.119 93.8834 206.247 92.9355 206.323 91.9876C206.459 90.4856 206.418 88.9727 206.199 87.4804C205.974 85.7304 205.245 84.0837 204.1 82.741C203.801 82.4045 201.962 80.3713 201.668 81.5988C201.636 81.7991 201.654 82.0044 201.721 82.196C202.218 84.0918 203.176 85.7458 203.882 87.5515C204.934 90.253 205.19 95.0113 205.256 97.0303C205.218 97.3573 205.171 97.7697 205.119 98.2389C204.91 94.7175 202.796 90.8122 201.294 90.2956C199.436 89.6606 201.645 92.9118 203.427 95.7696C204.253 97.0159 204.765 98.4436 204.92 99.9308C204.792 100.978 204.645 102.149 204.488 103.338C204.446 103.509 204.408 103.67 204.375 103.836C204.412 103.068 204.361 102.299 204.223 101.542C203.801 99.5659 200.953 95.8976 199.536 96.6843C198.119 97.4711 200.958 99.2057 202.687 101.457C203.592 102.706 204.088 104.204 204.109 105.746C204.109 105.836 204.109 105.926 204.109 106.016C204.029 106.561 203.948 107.087 203.867 107.585C203.678 108.751 203.507 109.85 203.341 110.903C203.511 109.361 203.456 107.803 203.18 106.277C202.559 103.376 200.441 100.864 198.957 100.699C197.474 100.533 200.886 104.902 202.19 107.452C202.912 108.946 203.239 110.601 203.138 112.258C202.915 113.775 202.706 115.268 202.507 116.846C202.334 114.844 202.001 112.86 201.512 110.912C200.758 107.699 198.512 105.898 197.194 106.173C195.877 106.447 197.536 108.097 200.038 111.77C201.357 113.7 202.148 115.942 202.332 118.272C202.251 118.936 202.171 119.618 202.09 120.329C202 121.14 201.953 122.016 201.943 122.907C201.635 122.159 201.18 121.064 200.664 119.865C200.071 118.536 199.582 117.164 199.199 115.76C198.773 114.125 198.033 112.116 196.28 111.495C196.157 111.436 196.024 111.405 195.888 111.402C195.753 111.4 195.618 111.426 195.494 111.48C195.369 111.534 195.258 111.614 195.167 111.715C195.076 111.815 195.008 111.934 194.967 112.064C194.866 112.442 194.889 112.842 195.033 113.206C195.678 115.253 197.194 117.073 198.375 118.836C199.461 120.454 200.652 121.999 201.939 123.462C201.939 124.282 201.962 125.106 202.005 125.907L201.261 125.434C200.379 124.865 197.711 120.4 196.123 118.467C194.536 116.533 191.948 116.32 193.247 118.869C194.545 121.419 200.356 125.073 200.356 125.073L202.014 126.154C202.19 129.32 202.588 131.998 202.588 131.998L203.659 132.178C203.659 132.178 202.664 130.524 202.436 126.23C202.787 125.754 203.189 125.318 203.635 124.931C206.062 122.666 210.626 121.841 211.318 118.064C211.484 117.154 210.991 116.092 209.958 116.291C209.218 116.433 208.536 117.206 208.138 117.808C206.853 119.822 205.958 121.846 204.147 123.495C204.067 123.571 202.943 124.765 202.408 125.486C202.408 124.888 202.384 124.249 202.408 123.561C202.768 122.628 203.203 121.725 203.706 120.86C205.052 118.576 207.379 117.012 208.877 114.803C209.351 114.125 209.74 111.879 208.152 112.656C207.446 113.002 206.73 114.249 206.256 114.846C204.834 116.547 203.413 118.377 202.597 120.471C202.597 120.272 202.635 120.073 202.649 119.874C203.53 117.864 204.57 115.927 205.759 114.083C207.73 111.045 209.896 108.926 209.721 107.448C209.545 105.969 206.877 108.869 204.759 112.661C203.811 114.38 203.154 116.244 202.815 118.177C203.01 116.196 203.232 114.196 203.46 112.272C203.855 110.291 204.701 108.427 205.934 106.827C207.962 104.395 209.607 102.395 209.631 100.253C209.654 98.1109 208.796 98.9119 207.171 102.291C206.057 104.609 204.479 107.647 203.74 110.002C203.934 108.49 204.123 107.059 204.304 105.77C204.687 104.628 205.725 101.727 207.147 99.6938C208.939 97.1061 209.631 95.509 208.469 95.5516C207.664 95.5801 205.796 99.0114 204.792 102.291C204.953 101.196 205.086 100.362 205.171 99.8692C205.209 99.648 205.242 99.4063 205.27 99.1441C206.461 96.8047 207.503 94.3923 208.389 91.9212C209.962 87.5942 210.1 83.7079 208.905 85.5468Z" fill="white"/>
</g>
<path d="M6.76557 102.571C6.98833 104.059 10.159 109.021 11.287 111.779C11.0168 111.395 10.704 110.988 10.3865 110.59C10.1448 110.116 9.93623 109.618 9.68978 109.22C9.31537 108.609 8.91726 108.012 8.48597 107.438C7.81922 106.529 7.0477 105.702 6.18737 104.974C5.19876 104.1 3.97639 103.535 2.67074 103.348C2.33424 103.31 0.301038 103.078 0.741802 103.907C0.821325 104.037 0.934246 104.144 1.06882 104.215C2.2821 105.026 3.63283 105.485 4.92195 106.154C6.84614 107.121 9.33433 109.68 10.377 110.765L10.8936 111.509C9.04048 109.637 5.93144 108.495 4.8319 108.945C3.47643 109.504 6.32007 110.239 8.72768 110.964C9.80721 111.25 10.8 111.797 11.6187 112.557C12.0642 113.201 12.5666 113.936 13.0405 114.68C13.0974 114.794 13.159 114.903 13.2206 115.012C12.865 114.563 12.4577 114.157 12.0073 113.803C10.7941 112.903 7.38643 112.253 6.97885 113.391C6.57126 114.528 9.02627 114.097 11.1021 114.509C12.2259 114.763 13.2449 115.355 14.0216 116.206C14.0642 116.263 14.1069 116.31 14.1543 116.362C14.377 116.704 14.5903 117.04 14.7894 117.358C15.2633 118.106 15.7041 118.808 16.1448 119.486C15.477 118.542 14.6793 117.698 13.7751 116.978C11.9979 115.656 9.56656 115.296 8.65659 115.936C7.74663 116.576 11.813 117.358 13.7988 118.125C14.9408 118.607 15.9408 119.372 16.7041 120.348C17.3249 121.296 17.9458 122.244 18.5998 123.23C17.5164 122.189 16.3498 121.238 15.1116 120.386C13.1021 118.964 10.9599 119.054 10.3723 119.86C9.78457 120.666 11.5144 120.775 14.7278 121.595C16.4206 122.025 17.9713 122.891 19.2254 124.107C19.5051 124.519 19.7989 124.941 20.107 125.381C20.4764 125.905 20.8718 126.409 21.2918 126.893C20.7515 126.628 19.9601 126.239 19.0738 125.822C18.0871 125.369 17.1365 124.842 16.2301 124.244C15.1827 123.538 13.7799 122.78 12.486 123.296C12.3882 123.32 12.2969 123.365 12.2182 123.428C12.1396 123.491 12.0755 123.571 12.0305 123.661C11.9854 123.751 11.9605 123.85 11.9573 123.95C11.9541 124.051 11.9728 124.151 12.0121 124.244C12.1473 124.523 12.3727 124.749 12.6519 124.884C14.0263 125.713 15.7704 125.983 17.306 126.386C18.708 126.757 20.1329 127.036 21.5714 127.22C21.979 127.694 22.4008 128.13 22.8179 128.557L22.1639 128.656C21.3866 128.77 17.6899 127.59 15.8463 127.282C14.0026 126.974 12.4481 128.144 14.4244 128.931C16.4008 129.718 21.4672 128.898 21.4672 128.898L22.9317 128.685C24.5904 130.372 26.1355 131.675 26.1355 131.675L26.8227 131.249C26.8227 131.249 25.453 130.813 23.2018 128.519C23.1651 128.08 23.1762 127.638 23.235 127.201C23.4767 124.732 25.6047 122.016 24.1497 119.561C23.7942 118.969 22.9933 118.614 22.5098 119.239C22.2102 119.77 22.1142 120.392 22.2397 120.988C22.5146 122.751 23.0122 124.306 22.8132 126.14C22.8132 126.225 22.7658 127.448 22.8132 128.111C22.5098 127.789 22.1923 127.434 21.8653 127.04C21.607 126.338 21.4041 125.617 21.2586 124.884C20.889 122.941 21.4198 120.912 21.1686 118.941C21.088 118.334 20.2207 116.874 19.6994 118.092C19.4766 118.633 19.6994 119.685 19.6994 120.268C19.6654 121.948 19.9121 123.622 20.4293 125.22C20.3392 125.102 20.2492 124.983 20.1638 124.86C19.6716 123.307 19.3039 121.718 19.0643 120.106C18.6709 117.433 18.8416 115.178 18.0122 114.419C17.1828 113.661 17.1164 116.642 17.7941 119.775C18.1133 121.207 18.6657 122.578 19.4292 123.832C18.5619 122.623 17.6994 121.396 16.8794 120.201C16.1234 118.898 15.6775 117.439 15.5761 115.936C15.5145 113.566 15.4434 111.642 14.4007 110.429C13.3581 109.215 13.2728 110.087 14.0311 112.798C14.5524 114.647 15.1638 117.125 15.9268 118.813C15.2917 117.865 14.6898 116.974 14.1543 116.163C13.479 114.625 13.0013 113.007 12.7325 111.348C12.4623 109.016 12.0642 107.779 11.4291 108.376C10.9931 108.789 11.6424 111.632 12.6993 113.969C12.2254 113.272 11.9078 112.741 11.7135 112.424C11.625 112.282 11.5255 112.124 11.4149 111.95C10.9379 110.052 10.3428 108.186 9.63291 106.362C8.38645 103.173 6.5286 100.926 6.76557 102.571Z" fill="#1D1355"/>
<path opacity="0.6" d="M6.76557 102.571C6.98833 104.059 10.159 109.021 11.287 111.779C11.0168 111.395 10.704 110.988 10.3865 110.59C10.1448 110.116 9.93623 109.618 9.68978 109.22C9.31537 108.609 8.91726 108.012 8.48597 107.438C7.81922 106.529 7.0477 105.702 6.18737 104.974C5.19876 104.1 3.97639 103.535 2.67074 103.348C2.33424 103.31 0.301038 103.078 0.741802 103.907C0.821325 104.037 0.934246 104.144 1.06882 104.215C2.2821 105.026 3.63283 105.485 4.92195 106.154C6.84614 107.121 9.33433 109.68 10.377 110.765L10.8936 111.509C9.04048 109.637 5.93144 108.495 4.8319 108.945C3.47643 109.504 6.32007 110.239 8.72768 110.964C9.80721 111.25 10.8 111.797 11.6187 112.557C12.0642 113.201 12.5666 113.936 13.0405 114.68C13.0974 114.794 13.159 114.903 13.2206 115.012C12.865 114.563 12.4577 114.157 12.0073 113.803C10.7941 112.903 7.38643 112.253 6.97885 113.391C6.57126 114.528 9.02627 114.097 11.1021 114.509C12.2259 114.763 13.2449 115.355 14.0216 116.206C14.0642 116.263 14.1069 116.31 14.1543 116.362C14.377 116.704 14.5903 117.04 14.7894 117.358C15.2633 118.106 15.7041 118.808 16.1448 119.486C15.477 118.542 14.6793 117.698 13.7751 116.978C11.9979 115.656 9.56656 115.296 8.65659 115.936C7.74663 116.576 11.813 117.358 13.7988 118.125C14.9408 118.607 15.9408 119.372 16.7041 120.348C17.3249 121.296 17.9458 122.244 18.5998 123.23C17.5164 122.189 16.3498 121.238 15.1116 120.386C13.1021 118.964 10.9599 119.054 10.3723 119.86C9.78457 120.666 11.5144 120.775 14.7278 121.595C16.4206 122.025 17.9713 122.891 19.2254 124.107C19.5051 124.519 19.7989 124.941 20.107 125.381C20.4764 125.905 20.8718 126.409 21.2918 126.893C20.7515 126.628 19.9601 126.239 19.0738 125.822C18.0871 125.369 17.1365 124.842 16.2301 124.244C15.1827 123.538 13.7799 122.78 12.486 123.296C12.3882 123.32 12.2969 123.365 12.2182 123.428C12.1396 123.491 12.0755 123.571 12.0305 123.661C11.9854 123.751 11.9605 123.85 11.9573 123.95C11.9541 124.051 11.9728 124.151 12.0121 124.244C12.1473 124.523 12.3727 124.749 12.6519 124.884C14.0263 125.713 15.7704 125.983 17.306 126.386C18.708 126.757 20.1329 127.036 21.5714 127.22C21.979 127.694 22.4008 128.13 22.8179 128.557L22.1639 128.656C21.3866 128.77 17.6899 127.59 15.8463 127.282C14.0026 126.974 12.4481 128.144 14.4244 128.931C16.4008 129.718 21.4672 128.898 21.4672 128.898L22.9317 128.685C24.5904 130.372 26.1355 131.675 26.1355 131.675L26.8227 131.249C26.8227 131.249 25.453 130.813 23.2018 128.519C23.1651 128.08 23.1762 127.638 23.235 127.201C23.4767 124.732 25.6047 122.016 24.1497 119.561C23.7942 118.969 22.9933 118.614 22.5098 119.239C22.2102 119.77 22.1142 120.392 22.2397 120.988C22.5146 122.751 23.0122 124.306 22.8132 126.14C22.8132 126.225 22.7658 127.448 22.8132 128.111C22.5098 127.789 22.1923 127.434 21.8653 127.04C21.607 126.338 21.4041 125.617 21.2586 124.884C20.889 122.941 21.4198 120.912 21.1686 118.941C21.088 118.334 20.2207 116.874 19.6994 118.092C19.4766 118.633 19.6994 119.685 19.6994 120.268C19.6654 121.948 19.9121 123.622 20.4293 125.22C20.3392 125.102 20.2492 124.983 20.1638 124.86C19.6716 123.307 19.3039 121.718 19.0643 120.106C18.6709 117.433 18.8416 115.178 18.0122 114.419C17.1828 113.661 17.1164 116.642 17.7941 119.775C18.1133 121.207 18.6657 122.578 19.4292 123.832C18.5619 122.623 17.6994 121.396 16.8794 120.201C16.1234 118.898 15.6775 117.439 15.5761 115.936C15.5145 113.566 15.4434 111.642 14.4007 110.429C13.3581 109.215 13.2728 110.087 14.0311 112.798C14.5524 114.647 15.1638 117.125 15.9268 118.813C15.2917 117.865 14.6898 116.974 14.1543 116.163C13.479 114.625 13.0013 113.007 12.7325 111.348C12.4623 109.016 12.0642 107.779 11.4291 108.376C10.9931 108.789 11.6424 111.632 12.6993 113.969C12.2254 113.272 11.9078 112.741 11.7135 112.424C11.625 112.282 11.5255 112.124 11.4149 111.95C10.9379 110.052 10.3428 108.186 9.63291 106.362C8.38645 103.173 6.5286 100.926 6.76557 102.571Z" fill="white"/>
<path d="M41.0882 101.395C39.8228 102.21 36.6142 107.144 34.5668 109.315C34.8038 108.907 35.0408 108.452 35.2777 108.002C35.5953 107.59 35.9744 107.192 36.2256 106.803C36.6285 106.206 37.0076 105.594 37.3536 104.964C37.9048 103.983 38.3391 102.942 38.6474 101.86C39.0381 100.598 39.048 99.2498 38.6759 97.9829C38.5763 97.6606 37.946 95.7127 37.3725 96.4615C37.2876 96.5869 37.2369 96.7323 37.2256 96.8834C36.9839 98.3052 37.1261 99.727 37.0503 101.191C36.9413 103.353 35.6569 106.67 35.0787 108.073C34.9554 108.282 34.799 108.547 34.6047 108.85C35.5526 106.391 35.3014 103.087 34.4388 102.272C33.3677 101.267 33.8749 104.168 34.2114 106.651C34.3917 107.754 34.3023 108.884 33.9507 109.945C33.5431 110.613 33.0834 111.367 32.6142 112.13L32.382 112.433C32.6614 111.925 32.8794 111.386 33.0312 110.827C33.3488 109.353 32.5573 105.983 31.3298 106.087C30.1023 106.192 31.5336 108.239 32.0123 110.301C32.2488 111.429 32.1296 112.603 31.671 113.661L31.5857 113.846C31.363 114.192 31.1497 114.523 30.9412 114.836C30.4672 115.576 29.9933 116.258 29.5573 116.945C30.1446 115.949 30.5852 114.873 30.8653 113.751C31.3393 111.585 30.6616 109.225 29.7042 108.656C28.7468 108.087 29.7042 112.111 29.8322 114.244C29.8647 115.483 29.5792 116.71 29.0028 117.808C28.3866 118.756 27.7895 119.704 27.1686 120.737C27.6595 119.319 28.0352 117.864 28.2919 116.386C28.7658 113.969 27.7895 112.054 26.8037 111.841C25.8179 111.628 26.4435 113.263 27.0217 116.523C27.3288 118.243 27.1801 120.012 26.5904 121.656C26.3297 122.083 26.0691 122.523 25.7942 122.983C25.5193 123.443 25.1875 124.087 24.9032 124.694C24.9032 124.087 24.9506 123.206 24.9648 122.23C24.9708 121.143 25.0579 120.057 25.2255 118.983C25.4387 117.741 25.5525 116.14 24.5477 115.192C24.4828 115.113 24.4014 115.05 24.3092 115.007C24.217 114.963 24.1164 114.941 24.0145 114.941C23.9127 114.941 23.8121 114.963 23.7199 115.007C23.6277 115.05 23.5463 115.113 23.4814 115.192C23.2958 115.417 23.1892 115.696 23.178 115.988C22.9885 117.585 23.4624 119.305 23.7231 120.85C23.967 122.293 24.3042 123.717 24.7326 125.116C24.4814 125.67 24.2586 126.244 24.0264 126.798L23.6662 126.244C23.2444 125.585 22.7942 121.727 22.3107 119.922C21.8273 118.116 20.1211 117.182 20.2254 119.315C20.3297 121.448 23.1638 125.723 23.1638 125.723L23.9648 126.964C23.1117 129.168 22.543 131.116 22.543 131.116L23.2112 131.566C23.2112 131.566 23.0453 130.144 24.2065 127.144C24.5968 126.908 25.0136 126.719 25.4482 126.58C27.8179 125.784 31.1355 126.618 32.7848 124.263C33.1782 123.694 33.1687 122.841 32.4056 122.637C31.798 122.581 31.1908 122.749 30.6995 123.111C29.2066 124.087 27.9791 125.192 26.2397 125.756C26.1591 125.784 25.0311 126.253 24.4435 126.576C24.6141 126.168 24.8084 125.727 25.0312 125.268C25.561 124.747 26.1333 124.271 26.7421 123.846C28.3582 122.704 30.4246 122.353 32.1213 121.305C32.6379 120.988 33.6047 119.58 32.2872 119.623C31.6995 119.623 30.8322 120.272 30.3108 120.528C28.7656 121.19 27.3416 122.104 26.0975 123.234C26.1686 123.106 26.2397 122.974 26.3155 122.846C27.5238 121.739 28.8186 120.731 30.1876 119.832C32.4625 118.372 34.5858 117.595 34.927 116.514C35.2682 115.433 32.5573 116.613 29.9601 118.528C28.786 119.408 27.7658 120.476 26.9411 121.689C27.6805 120.4 28.4483 119.106 29.1923 117.869C30.0739 116.646 31.2253 115.642 32.5573 114.936C34.69 113.903 36.4199 113.04 37.0929 111.618C37.7659 110.196 36.9365 110.452 34.7943 112.253C33.3251 113.49 31.3203 115.068 30.0928 116.448C30.69 115.5 31.2587 114.552 31.7753 113.741C32.8962 112.497 34.1701 111.4 35.5668 110.476C37.5811 109.267 38.5432 108.391 37.7375 108.064C37.1782 107.836 34.8559 109.599 33.164 111.523L34.164 109.993C34.2588 109.85 34.3583 109.694 34.4578 109.519C35.9841 108.301 37.4324 106.989 38.7944 105.59C41.1877 103.111 42.4721 100.509 41.0882 101.395Z" fill="#1D1355"/>
<path opacity="0.6" d="M41.0882 101.395C39.8228 102.21 36.6142 107.144 34.5668 109.315C34.8038 108.907 35.0408 108.452 35.2777 108.002C35.5953 107.59 35.9744 107.192 36.2256 106.803C36.6285 106.206 37.0076 105.594 37.3536 104.964C37.9048 103.983 38.3391 102.942 38.6474 101.86C39.0381 100.598 39.048 99.2498 38.6759 97.9829C38.5763 97.6606 37.946 95.7127 37.3725 96.4615C37.2876 96.5869 37.2369 96.7323 37.2256 96.8834C36.9839 98.3052 37.1261 99.727 37.0503 101.191C36.9413 103.353 35.6569 106.67 35.0787 108.073C34.9554 108.282 34.799 108.547 34.6047 108.85C35.5526 106.391 35.3014 103.087 34.4388 102.272C33.3677 101.267 33.8749 104.168 34.2114 106.651C34.3917 107.754 34.3023 108.884 33.9507 109.945C33.5431 110.613 33.0834 111.367 32.6142 112.13L32.382 112.433C32.6614 111.925 32.8794 111.386 33.0312 110.827C33.3488 109.353 32.5573 105.983 31.3298 106.087C30.1023 106.192 31.5336 108.239 32.0123 110.301C32.2488 111.429 32.1296 112.603 31.671 113.661L31.5857 113.846C31.363 114.192 31.1497 114.523 30.9412 114.836C30.4672 115.576 29.9933 116.258 29.5573 116.945C30.1446 115.949 30.5852 114.873 30.8653 113.751C31.3393 111.585 30.6616 109.225 29.7042 108.656C28.7468 108.087 29.7042 112.111 29.8322 114.244C29.8647 115.483 29.5792 116.71 29.0028 117.808C28.3866 118.756 27.7895 119.704 27.1686 120.737C27.6595 119.319 28.0352 117.864 28.2919 116.386C28.7658 113.969 27.7895 112.054 26.8037 111.841C25.8179 111.628 26.4435 113.263 27.0217 116.523C27.3288 118.243 27.1801 120.012 26.5904 121.656C26.3297 122.083 26.0691 122.523 25.7942 122.983C25.5193 123.443 25.1875 124.087 24.9032 124.694C24.9032 124.087 24.9506 123.206 24.9648 122.23C24.9708 121.143 25.0579 120.057 25.2255 118.983C25.4387 117.741 25.5525 116.14 24.5477 115.192C24.4828 115.113 24.4014 115.05 24.3092 115.007C24.217 114.963 24.1164 114.941 24.0145 114.941C23.9127 114.941 23.8121 114.963 23.7199 115.007C23.6277 115.05 23.5463 115.113 23.4814 115.192C23.2958 115.417 23.1892 115.696 23.178 115.988C22.9885 117.585 23.4624 119.305 23.7231 120.85C23.967 122.293 24.3042 123.717 24.7326 125.116C24.4814 125.67 24.2586 126.244 24.0264 126.798L23.6662 126.244C23.2444 125.585 22.7942 121.727 22.3107 119.922C21.8273 118.116 20.1211 117.182 20.2254 119.315C20.3297 121.448 23.1638 125.723 23.1638 125.723L23.9648 126.964C23.1117 129.168 22.543 131.116 22.543 131.116L23.2112 131.566C23.2112 131.566 23.0453 130.144 24.2065 127.144C24.5968 126.908 25.0136 126.719 25.4482 126.58C27.8179 125.784 31.1355 126.618 32.7848 124.263C33.1782 123.694 33.1687 122.841 32.4056 122.637C31.798 122.581 31.1908 122.749 30.6995 123.111C29.2066 124.087 27.9791 125.192 26.2397 125.756C26.1591 125.784 25.0311 126.253 24.4435 126.576C24.6141 126.168 24.8084 125.727 25.0312 125.268C25.561 124.747 26.1333 124.271 26.7421 123.846C28.3582 122.704 30.4246 122.353 32.1213 121.305C32.6379 120.988 33.6047 119.58 32.2872 119.623C31.6995 119.623 30.8322 120.272 30.3108 120.528C28.7656 121.19 27.3416 122.104 26.0975 123.234C26.1686 123.106 26.2397 122.974 26.3155 122.846C27.5238 121.739 28.8186 120.731 30.1876 119.832C32.4625 118.372 34.5858 117.595 34.927 116.514C35.2682 115.433 32.5573 116.613 29.9601 118.528C28.786 119.408 27.7658 120.476 26.9411 121.689C27.6805 120.4 28.4483 119.106 29.1923 117.869C30.0739 116.646 31.2253 115.642 32.5573 114.936C34.69 113.903 36.4199 113.04 37.0929 111.618C37.7659 110.196 36.9365 110.452 34.7943 112.253C33.3251 113.49 31.3203 115.068 30.0928 116.448C30.69 115.5 31.2587 114.552 31.7753 113.741C32.8962 112.497 34.1701 111.4 35.5668 110.476C37.5811 109.267 38.5432 108.391 37.7375 108.064C37.1782 107.836 34.8559 109.599 33.164 111.523L34.164 109.993C34.2588 109.85 34.3583 109.694 34.4578 109.519C35.9841 108.301 37.4324 106.989 38.7944 105.59C41.1877 103.111 42.4721 100.509 41.0882 101.395Z" fill="white"/>
<path d="M54.9841 101.523C53.714 102.343 50.5054 107.277 48.458 109.443C48.695 109.04 48.9319 108.585 49.1689 108.13C49.4864 107.722 49.8656 107.319 50.1168 106.936C50.5196 106.338 50.8988 105.727 51.2447 105.097C51.7952 104.116 52.2294 103.074 52.5386 101.992C52.9286 100.731 52.9401 99.3833 52.5718 98.1156C52.4675 97.7933 51.8372 95.8454 51.2637 96.5895C51.1793 96.7169 51.1288 96.8637 51.1168 97.016C50.8798 98.4379 51.0173 99.8597 50.9414 101.319C50.8324 103.485 49.548 106.803 48.9698 108.206C48.8466 108.414 48.6902 108.68 48.4959 108.983C49.4438 106.519 49.1973 103.215 48.33 102.405C47.2589 101.4 47.766 104.301 48.1025 106.784C48.2858 107.885 48.1963 109.014 47.8419 110.073C47.4343 110.746 46.9745 111.495 46.5053 112.263C46.4248 112.362 46.349 112.466 46.2731 112.566C46.5362 112.056 46.7382 111.517 46.875 110.959C47.1973 109.485 46.4011 106.116 45.1736 106.22C43.9461 106.324 45.3774 108.372 45.8561 110.433C46.0932 111.56 45.9739 112.733 45.5148 113.789L45.4295 113.978C45.2068 114.32 44.9935 114.656 44.785 114.969C44.311 115.703 43.8371 116.391 43.401 117.078C43.9892 116.08 44.4298 115.003 44.7091 113.879C45.1831 111.718 44.5053 109.357 43.548 108.789C42.5906 108.22 43.5717 112.244 43.6759 114.376C43.7085 115.616 43.4229 116.843 42.8465 117.94C42.2304 118.888 41.6332 119.836 41.0124 120.869C41.5089 119.454 41.8909 118 42.1546 116.523C42.6285 114.106 41.6522 112.192 40.6664 111.978C39.6806 111.765 40.3062 113.4 40.8892 116.661C41.1923 118.381 41.0421 120.15 40.4531 121.794C40.1925 122.22 39.9318 122.661 39.6569 123.121C39.382 123.58 39.0503 124.225 38.7659 124.827C38.7659 124.225 38.8133 123.343 38.8275 122.362C38.8337 121.277 38.9208 120.193 39.0882 119.121C39.3015 117.879 39.4152 116.277 38.4105 115.329C38.3455 115.251 38.2641 115.187 38.1719 115.144C38.0797 115.101 37.9791 115.078 37.8773 115.078C37.7754 115.078 37.6748 115.101 37.5826 115.144C37.4905 115.187 37.409 115.251 37.3441 115.329C37.1585 115.554 37.052 115.834 37.0408 116.125C36.8512 117.718 37.3251 119.443 37.5858 120.988C37.83 122.421 38.1672 123.836 38.5953 125.225C38.3441 125.784 38.1214 126.353 37.8891 126.912L37.5289 126.353C37.1071 125.694 36.6569 121.841 36.1735 120.035C35.69 118.23 33.9839 117.296 34.0881 119.429C34.1924 121.561 37.0266 125.832 37.0266 125.832L37.8275 127.073C36.9744 129.282 36.4057 131.23 36.4057 131.23L37.074 131.68C37.074 131.68 36.9081 130.258 38.0692 127.258C38.4531 127.04 38.8601 126.865 39.2825 126.737C41.6522 125.941 44.9698 126.779 46.6191 124.424C47.0125 123.85 47.003 122.978 46.2399 122.798C45.6321 122.74 45.0241 122.908 44.5338 123.272C43.0408 124.249 41.8133 125.353 40.074 125.917C39.9934 125.941 38.8654 126.415 38.2778 126.737C38.4484 126.324 38.6427 125.888 38.8654 125.424C39.3964 124.905 39.9686 124.429 40.5764 124.002C42.1972 122.86 44.2589 122.509 45.9556 121.462C46.4769 121.144 47.439 119.737 46.1215 119.775C45.5338 119.775 44.6665 120.429 44.1451 120.68C42.6006 121.345 41.1769 122.261 39.9318 123.391L40.1498 122.997C41.3654 121.899 42.6665 120.899 44.0409 120.007C46.3158 118.542 48.439 117.77 48.7803 116.689C49.1215 115.609 46.4106 116.789 43.8134 118.704C42.6392 119.583 41.6191 120.651 40.7944 121.865C41.5337 120.576 42.3015 119.282 43.0456 118.04C43.9227 116.814 45.0689 115.806 46.3963 115.092C48.5291 114.059 50.259 113.196 50.9319 111.751C51.6049 110.305 50.7755 110.58 48.6333 112.386C47.1641 113.618 45.1594 115.201 43.9319 116.58C44.529 115.609 45.0978 114.685 45.6143 113.869C46.7368 112.628 48.0106 111.533 49.4059 110.609C51.4201 109.395 52.3822 108.523 51.5765 108.196C51.0173 107.969 48.695 109.732 47.003 111.656C47.4769 110.959 47.7992 110.433 48.003 110.125C48.0978 109.983 48.1973 109.827 48.2968 109.651C49.8241 108.435 51.274 107.124 52.6381 105.727C55.0742 103.244 56.3586 100.642 54.9841 101.523Z" fill="#1D1355"/>
<path opacity="0.6" d="M54.9841 101.523C53.714 102.343 50.5054 107.277 48.458 109.443C48.695 109.04 48.9319 108.585 49.1689 108.13C49.4864 107.722 49.8656 107.319 50.1168 106.936C50.5196 106.338 50.8988 105.727 51.2447 105.097C51.7952 104.116 52.2294 103.074 52.5386 101.992C52.9286 100.731 52.9401 99.3833 52.5718 98.1156C52.4675 97.7933 51.8372 95.8454 51.2637 96.5895C51.1793 96.7169 51.1288 96.8637 51.1168 97.016C50.8798 98.4379 51.0173 99.8597 50.9414 101.319C50.8324 103.485 49.548 106.803 48.9698 108.206C48.8466 108.414 48.6902 108.68 48.4959 108.983C49.4438 106.519 49.1973 103.215 48.33 102.405C47.2589 101.4 47.766 104.301 48.1025 106.784C48.2858 107.885 48.1963 109.014 47.8419 110.073C47.4343 110.746 46.9745 111.495 46.5053 112.263C46.4248 112.362 46.349 112.466 46.2731 112.566C46.5362 112.056 46.7382 111.517 46.875 110.959C47.1973 109.485 46.4011 106.116 45.1736 106.22C43.9461 106.324 45.3774 108.372 45.8561 110.433C46.0932 111.56 45.9739 112.733 45.5148 113.789L45.4295 113.978C45.2068 114.32 44.9935 114.656 44.785 114.969C44.311 115.703 43.8371 116.391 43.401 117.078C43.9892 116.08 44.4298 115.003 44.7091 113.879C45.1831 111.718 44.5053 109.357 43.548 108.789C42.5906 108.22 43.5717 112.244 43.6759 114.376C43.7085 115.616 43.4229 116.843 42.8465 117.94C42.2304 118.888 41.6332 119.836 41.0124 120.869C41.5089 119.454 41.8909 118 42.1546 116.523C42.6285 114.106 41.6522 112.192 40.6664 111.978C39.6806 111.765 40.3062 113.4 40.8892 116.661C41.1923 118.381 41.0421 120.15 40.4531 121.794C40.1925 122.22 39.9318 122.661 39.6569 123.121C39.382 123.58 39.0503 124.225 38.7659 124.827C38.7659 124.225 38.8133 123.343 38.8275 122.362C38.8337 121.277 38.9208 120.193 39.0882 119.121C39.3015 117.879 39.4152 116.277 38.4105 115.329C38.3455 115.251 38.2641 115.187 38.1719 115.144C38.0797 115.101 37.9791 115.078 37.8773 115.078C37.7754 115.078 37.6748 115.101 37.5826 115.144C37.4905 115.187 37.409 115.251 37.3441 115.329C37.1585 115.554 37.052 115.834 37.0408 116.125C36.8512 117.718 37.3251 119.443 37.5858 120.988C37.83 122.421 38.1672 123.836 38.5953 125.225C38.3441 125.784 38.1214 126.353 37.8891 126.912L37.5289 126.353C37.1071 125.694 36.6569 121.841 36.1735 120.035C35.69 118.23 33.9839 117.296 34.0881 119.429C34.1924 121.561 37.0266 125.832 37.0266 125.832L37.8275 127.073C36.9744 129.282 36.4057 131.23 36.4057 131.23L37.074 131.68C37.074 131.68 36.9081 130.258 38.0692 127.258C38.4531 127.04 38.8601 126.865 39.2825 126.737C41.6522 125.941 44.9698 126.779 46.6191 124.424C47.0125 123.85 47.003 122.978 46.2399 122.798C45.6321 122.74 45.0241 122.908 44.5338 123.272C43.0408 124.249 41.8133 125.353 40.074 125.917C39.9934 125.941 38.8654 126.415 38.2778 126.737C38.4484 126.324 38.6427 125.888 38.8654 125.424C39.3964 124.905 39.9686 124.429 40.5764 124.002C42.1972 122.86 44.2589 122.509 45.9556 121.462C46.4769 121.144 47.439 119.737 46.1215 119.775C45.5338 119.775 44.6665 120.429 44.1451 120.68C42.6006 121.345 41.1769 122.261 39.9318 123.391L40.1498 122.997C41.3654 121.899 42.6665 120.899 44.0409 120.007C46.3158 118.542 48.439 117.77 48.7803 116.689C49.1215 115.609 46.4106 116.789 43.8134 118.704C42.6392 119.583 41.6191 120.651 40.7944 121.865C41.5337 120.576 42.3015 119.282 43.0456 118.04C43.9227 116.814 45.0689 115.806 46.3963 115.092C48.5291 114.059 50.259 113.196 50.9319 111.751C51.6049 110.305 50.7755 110.58 48.6333 112.386C47.1641 113.618 45.1594 115.201 43.9319 116.58C44.529 115.609 45.0978 114.685 45.6143 113.869C46.7368 112.628 48.0106 111.533 49.4059 110.609C51.4201 109.395 52.3822 108.523 51.5765 108.196C51.0173 107.969 48.695 109.732 47.003 111.656C47.4769 110.959 47.7992 110.433 48.003 110.125C48.0978 109.983 48.1973 109.827 48.2968 109.651C49.8241 108.435 51.274 107.124 52.6381 105.727C55.0742 103.244 56.3586 100.642 54.9841 101.523Z" fill="white"/>
<path d="M202.441 11.7591C202.441 11.7591 200.626 6.54572 195.403 6.31349C190.18 6.08126 191.09 11.0813 187.46 12.4415C183.829 13.8017 182.464 9.94387 179.284 10.8538C176.104 11.7638 178.152 14.2567 175.426 15.1667C172.701 16.0766 172.929 13.579 168.843 15.6406C164.758 17.7023 163.848 18.3658 162.938 18.5933C162.028 18.8208 153.857 20.181 153.857 20.181H210.389C210.389 20.181 211.981 15.1856 208.801 13.143C205.621 11.1003 205.849 13.579 202.441 11.7591Z" fill="#1D1355"/>
<path opacity="0.7" d="M202.441 11.7591C202.441 11.7591 200.626 6.54572 195.403 6.31349C190.18 6.08126 191.09 11.0813 187.46 12.4415C183.829 13.8017 182.464 9.94387 179.284 10.8538C176.104 11.7638 178.152 14.2567 175.426 15.1667C172.701 16.0766 172.929 13.579 168.843 15.6406C164.758 17.7023 163.848 18.3658 162.938 18.5933C162.028 18.8208 153.857 20.181 153.857 20.181H210.389C210.389 20.181 211.981 15.1856 208.801 13.143C205.621 11.1003 205.849 13.579 202.441 11.7591Z" fill="white"/>
<path d="M98.5629 3.32306C98.5629 3.32306 97.4586 0.157144 94.2974 0.00548322C91.1363 -0.146177 91.686 2.89178 89.4822 3.72117C87.2784 4.55057 86.4537 2.20456 84.5248 2.77329C82.5959 3.34202 83.8376 4.83967 82.1883 5.38944C80.539 5.93921 80.6717 4.44156 78.193 5.66432C75.7143 6.88709 75.1693 7.31837 74.6147 7.45581C74.0602 7.59326 69.1123 8.40369 69.1123 8.40369H103.383C103.383 8.40369 104.331 5.37522 102.435 4.13824C100.539 2.90125 100.625 4.4226 98.5629 3.32306Z" fill="#1D1355"/>
<path opacity="0.8" d="M98.5629 3.32306C98.5629 3.32306 97.4586 0.157144 94.2974 0.00548322C91.1363 -0.146177 91.686 2.89178 89.4822 3.72117C87.2784 4.55057 86.4537 2.20456 84.5248 2.77329C82.5959 3.34202 83.8376 4.83967 82.1883 5.38944C80.539 5.93921 80.6717 4.44156 78.193 5.66432C75.7143 6.88709 75.1693 7.31837 74.6147 7.45581C74.0602 7.59326 69.1123 8.40369 69.1123 8.40369H103.383C103.383 8.40369 104.331 5.37522 102.435 4.13824C100.539 2.90125 100.625 4.4226 98.5629 3.32306Z" fill="white"/>
<path d="M40.9129 58.9682C40.9129 58.9682 39.4295 54.7027 35.1688 54.5226C30.908 54.3425 31.6426 58.4137 28.6805 59.5274C25.7184 60.6412 24.5999 57.4848 22.0075 58.2288C19.415 58.9729 21.0596 61.0061 18.8558 61.7502C16.6519 62.4943 16.8178 60.4516 13.4813 62.1199C10.1447 63.7882 9.4054 64.3427 8.66132 64.5322C7.91723 64.7218 1.2489 65.8261 1.2489 65.8261H47.4011C47.4011 65.8261 48.695 61.7502 46.1025 60.082C43.5101 58.4137 43.6902 60.4611 40.9129 58.9682Z" fill="#1D1355"/>
<g opacity="0.7">
<path opacity="0.7" d="M40.9129 58.9682C40.9129 58.9682 39.4295 54.7027 35.1688 54.5226C30.908 54.3425 31.6426 58.4137 28.6805 59.5274C25.7184 60.6412 24.5999 57.4848 22.0075 58.2288C19.415 58.9729 21.0596 61.0061 18.8558 61.7502C16.6519 62.4943 16.8178 60.4516 13.4813 62.1199C10.1447 63.7882 9.4054 64.3427 8.66132 64.5322C7.91723 64.7218 1.2489 65.8261 1.2489 65.8261H47.4011C47.4011 65.8261 48.695 61.7502 46.1025 60.082C43.5101 58.4137 43.6902 60.4611 40.9129 58.9682Z" fill="white"/>
</g>
<path d="M95.7336 143.567C123.495 143.567 146 141.971 146 140.003C146 138.034 123.495 136.438 95.7336 136.438C67.9724 136.438 45.4675 138.034 45.4675 140.003C45.4675 141.971 67.9724 143.567 95.7336 143.567Z" fill="#1D1355"/>
<path d="M142.834 137.633C158.573 137.633 171.332 136.835 171.332 135.851C171.332 134.866 158.573 134.069 142.834 134.069C127.095 134.069 114.336 134.866 114.336 135.851C114.336 136.835 127.095 137.633 142.834 137.633Z" fill="#1D1355"/>
<g opacity="0.6">
<path opacity="0.6" d="M95.7336 143.567C123.495 143.567 146 141.971 146 140.003C146 138.034 123.495 136.438 95.7336 136.438C67.9724 136.438 45.4675 138.034 45.4675 140.003C45.4675 141.971 67.9724 143.567 95.7336 143.567Z" fill="white"/>
<path opacity="0.6" d="M142.834 137.633C158.573 137.633 171.332 136.835 171.332 135.851C171.332 134.866 158.573 134.069 142.834 134.069C127.095 134.069 114.336 134.866 114.336 135.851C114.336 136.835 127.095 137.633 142.834 137.633Z" fill="white"/>
</g>
<path d="M95.3685 86.8599L104.207 80.5281" stroke="#263238" stroke-width="0.835087" stroke-linecap="round" stroke-linejoin="round"/>
<path d="M123.307 130.846L122.81 136.462C122.81 136.462 120.293 137.566 120.298 137.936C120.302 138.306 120.772 138.813 122.824 138.813C124.876 138.813 125.544 138.036 125.544 137.453C125.544 136.87 129.914 132.012 129.914 132.012C130.021 131.72 130.051 131.406 130 131.099C129.949 130.793 129.82 130.505 129.625 130.263C128.942 129.486 126.611 129.391 126.611 129.391L123.307 130.846Z" fill="#1D1355"/>
<path d="M120.302 138.311C120.302 138.311 123.72 138.088 124.634 137.567C125.549 137.045 128.805 132.088 129.066 131.695C129.236 131.373 129.326 131.015 129.326 130.652" stroke="#263238" stroke-width="0.417543" stroke-linecap="round" stroke-linejoin="round"/>
<path d="M127.687 129.472C127.687 129.472 130.459 129.998 130.194 131.187C129.928 132.377 125.577 137.652 124.919 138.296C124.26 138.941 120.179 138.955 120.303 138.296C120.426 137.638 122.81 136.448 122.81 136.448L123.601 131.709" stroke="#263238" stroke-width="0.835087" stroke-linecap="round" stroke-linejoin="round"/>
<path d="M69.2972 135.41L61.1359 139.396C61.1359 139.396 60.0696 140.173 62.207 140.173C64.3445 140.173 75.61 140.268 75.61 140.268C75.61 140.268 76.8755 140.562 77.1646 139.979C77.6385 139.031 77.847 138.424 77.5532 138.13C77.2594 137.836 69.2972 135.41 69.2972 135.41Z" fill="#1D1355"/>
<path d="M61.9036 139.259H76.3825" stroke="#263238" stroke-width="0.417543" stroke-linecap="round" stroke-linejoin="round"/>
<path d="M68.7473 135.917C68.7473 135.917 60.4344 139.481 60.5671 139.875C60.6998 140.268 69.008 140.273 72.1739 140.273C75.3398 140.273 77.5863 140.405 77.5863 139.614" stroke="#263238" stroke-width="0.835087" stroke-linecap="round" stroke-linejoin="round"/>
<path d="M127.686 129.472L100.25 109.419L99.3022 89.2341C98.291 90.1241 97.1499 90.8545 95.9183 91.4C94.2216 92.0493 84.3921 97.0162 84.3921 97.0162C84.3921 97.0162 88.7476 112.452 89.5391 113.775C90.3306 115.097 123.577 131.713 123.577 131.713L127.686 129.472Z" fill="#263238"/>
<path d="M77.5816 138.822C77.5816 138.822 76.5247 138.557 75.3398 138.292C74.155 138.026 68.7426 135.922 68.7426 135.922C68.6355 135.491 68.5908 135.048 68.6099 134.604C68.6238 134.318 68.7023 134.04 68.8393 133.788C68.9764 133.537 69.1686 133.32 69.4014 133.154C69.4014 133.154 48.8182 105.713 48.2921 104.921C47.766 104.13 48.1594 102.808 51.7234 100.04C55.2875 97.272 78.6053 83.0396 78.6053 83.0396C77.7095 81.978 79.3968 81.324 79.3968 81.324L81.5105 81.9827L95.3638 86.8643L100.904 83.1723C100.904 83.1723 101.828 86.5989 98.397 89.2388C94.9657 91.8786 63.5956 105.827 63.5956 105.827L63.0743 105.86L77.1882 136.694C77.1882 136.694 78.1361 138.382 77.5816 138.822Z" fill="#263238"/>
<path d="M60.079 102.353L62.6856 105.613L61.643 101.31" stroke="white" stroke-width="0.835087" stroke-linecap="round" stroke-linejoin="round"/>
<path d="M85.7712 97.2676C85.7712 97.2676 91.1172 105.614 93.0746 107.31" stroke="white" stroke-width="0.835087" stroke-linecap="round" stroke-linejoin="round"/>
<path d="M86.5532 97.0066C88.0269 98.2961 89.5953 99.4732 91.2452 100.528" stroke="white" stroke-width="0.835087" stroke-linecap="round" stroke-linejoin="round"/>
<g style="mix-blend-mode:multiply">
<path d="M95.9278 52.8213L77.4157 65.4376L81.4632 82.1202L95.2027 86.7269L113.535 73.6651L111.321 56.883L95.9278 52.8213Z" fill="#1D1355"/>
</g>
<path d="M77.5152 65.4375L78.6906 70.6508" stroke="#263238" stroke-width="0.835087" stroke-linecap="round" stroke-linejoin="round"/>
<path d="M79.6669 74.4568L81.5153 81.9782L95.3685 86.8598L93.6529 74.4568" stroke="#263238" stroke-width="0.835087" stroke-linecap="round" stroke-linejoin="round"/>
<path d="M93.5202 73.4044L92.9941 70.2385" stroke="#263238" stroke-width="0.835087" stroke-linecap="round" stroke-linejoin="round"/>
<path d="M109.88 76.5705L113.572 73.7979L111.724 58.1011" stroke="#263238" stroke-width="0.835087" stroke-linecap="round" stroke-linejoin="round"/>
<path d="M94.8377 69.3144L104.866 61.793" stroke="#263238" stroke-width="0.835087" stroke-linecap="round" stroke-linejoin="round"/>
<path d="M104.34 55.063L96.0273 52.8213L77.8185 65.2243" stroke="#263238" stroke-width="0.835087" stroke-linecap="round" stroke-linejoin="round"/>
<path d="M77.9512 65.7502L80.7238 66.5417" stroke="#263238" stroke-width="0.835087" stroke-linecap="round" stroke-linejoin="round"/>
<path d="M85.4726 67.5989L92.994 69.7079" stroke="#263238" stroke-width="0.835087" stroke-linecap="round" stroke-linejoin="round"/>
<path d="M103.018 54.8022L91.6718 63.5085" stroke="#263238" stroke-width="0.417543" stroke-linecap="round" stroke-linejoin="round"/>
<path d="M90.7476 64.3L86.6575 67.466" stroke="#263238" stroke-width="0.417543" stroke-linecap="round" stroke-linejoin="round"/>
<path d="M103.302 47.5228C103.302 47.5228 106.184 71.2909 106.184 72.3477C106.184 73.4046 103.544 73.9307 103.544 75.2483C103.47 76.3287 103.248 77.3939 102.885 78.4142C102.885 78.4142 102.359 78.945 102.359 79.3621C102.359 79.7791 103.283 79.6275 104.075 79.2341C104.866 78.8407 105.127 77.3857 105.127 77.3857C104.946 78.2575 104.815 79.1389 104.734 80.0256L104.207 80.5516C104.207 80.5516 102.625 82.0019 103.677 82.1346C104.729 82.2673 109.615 80.4189 109.881 79.2341C110.146 78.0492 109.217 72.3714 109.217 72.3714C109.217 72.3714 113.046 45.5891 113.046 43.082C113.065 42.3813 112.873 41.6911 112.497 41.1C112.12 40.5089 111.576 40.0438 110.933 39.7644" fill="white"/>
<g style="mix-blend-mode:multiply" opacity="0.3">
<path d="M113.027 46.4183C112.473 44.3093 111.871 40.4798 111.871 40.4798L109.359 39.7168L106.042 43.7026L108.663 42.0912V73.7172C108.663 75.3286 106.648 81.5704 106.648 81.5704C106.648 81.5704 110.814 80.6936 110.141 76.9021C109.468 73.1106 108.663 73.7172 109.871 66.0631C111.08 58.409 113.601 48.5416 113.027 46.4183Z" fill="#1D1355"/>
</g>
<path d="M103.302 47.5228C103.302 47.5228 106.184 71.2909 106.184 72.3477C106.184 73.4046 103.544 73.9307 103.544 75.2483C103.47 76.3287 103.248 77.3939 102.885 78.4142C102.885 78.4142 102.359 78.945 102.359 79.3621C102.359 79.7791 103.283 79.6275 104.075 79.2341C104.866 78.8407 105.127 77.3857 105.127 77.3857C104.946 78.2575 104.815 79.1389 104.734 80.0256L104.207 80.5516C104.207 80.5516 102.625 82.0019 103.677 82.1346C104.729 82.2673 109.615 80.4189 109.881 79.2341C110.146 78.0492 109.217 72.3714 109.217 72.3714C109.217 72.3714 113.046 45.5891 113.046 43.082C113.065 42.3813 112.873 41.6911 112.497 41.1C112.12 40.5089 111.576 40.0438 110.933 39.7644" stroke="#263238" stroke-width="0.835087" stroke-linecap="round" stroke-linejoin="round"/>
<path d="M106.492 79.0112C106.635 79.5744 106.589 80.1693 106.359 80.7032C106.1 81.1271 105.795 81.5213 105.449 81.8786" stroke="#263238" stroke-width="0.417543" stroke-linecap="round" stroke-linejoin="round"/>
<path d="M108.07 79.0112C107.992 79.5446 107.861 80.0686 107.677 80.5752" stroke="#263238" stroke-width="0.417543" stroke-linecap="round" stroke-linejoin="round"/>
<path d="M109.245 78.6177C109.166 79.1506 109.034 79.6744 108.852 80.1817" stroke="#263238" stroke-width="0.417543" stroke-linecap="round" stroke-linejoin="round"/>
<path d="M66.6241 29.2238C66.4724 27.8589 63.7425 25.2807 59.951 24.5224C56.1595 23.7641 52.0599 23.7641 50.5433 24.9963C49.9746 25.4465 49.5954 26.4939 49.349 27.6219C49.6191 27.0437 50.1641 25.8731 50.7281 25.4039C53.5196 23.0768 54.2969 24.456 54.7614 26.4892C55.2258 28.5224 54.605 34.0722 54.605 34.0722C54.605 34.0722 48.2447 35.9348 49.1736 32.6741C49.0372 32.2095 48.9421 31.7337 48.8892 31.2523C48.8892 31.494 48.8892 31.6409 48.8892 31.6409L48.5859 33.6125L46.0077 34.0865L37.0502 33.8021C37.0502 33.8021 41.6095 36.6457 44.1878 36.6457C45.8539 36.5771 47.4504 35.9588 48.7281 34.8874L65.316 36.1528C65.316 36.1528 66.7757 30.5888 66.6241 29.2238Z" fill="#1D1355"/>
<path d="M47.2874 33.954L37.0313 33.7976C37.0313 33.7976 39.8749 36.4801 43.6665 36.4801C47.458 36.4801 48.7187 34.9019 48.7187 34.9019L65.3065 36.1673C65.3065 36.1673 67.4724 32.0393 66.3682 28.4136C65.2639 24.788 55.3112 23.57 52.5433 24.2382C49.1215 25.0676 48.894 27.9587 48.894 29.5369C48.869 30.7008 48.7629 31.8617 48.5765 33.0109" stroke="#263238" stroke-width="0.835087" stroke-linecap="round" stroke-linejoin="round"/>
<g style="mix-blend-mode:multiply" opacity="0.3">
<path d="M56.8752 35.6082L50.1784 35.7267C50.1784 35.7267 48.2826 38.5466 48.7566 39.3712C49.1234 39.9414 49.6082 40.4263 50.1784 40.7931C50.1784 40.7931 49.7045 44.5562 50.2969 45.85C50.8893 47.1439 55.586 46.5514 55.586 46.5514C54.5467 47.166 53.3783 47.5295 52.1737 47.6131C49.9414 47.8453 49.24 47.3761 48.8845 46.0822C48.5291 44.7884 48.4106 41.0727 48.4106 41.0727L46.7755 39.3712L47.9509 36.1959L49.2447 34.9067L56.8752 35.6082Z" fill="#1D1355"/>
</g>
<path d="M48.0788 35.3757C48.0788 35.3757 46.3395 39.48 47.131 40.1151C47.9224 40.7502 48.3916 41.063 48.3916 41.063C48.3916 41.063 48.8656 46.5844 49.6523 47.5323C50.4391 48.4802 55.4912 46.9019 55.4912 46.9019C55.4912 46.9019 65.7331 57.1533 66.0648 55.2575C66.3966 53.3617 65.117 46.2526 65.117 45.4754C65.117 44.6981 62.9084 42.6317 62.9084 42.6317" stroke="#263238" stroke-width="0.835087" stroke-linecap="round" stroke-linejoin="round"/>
<path d="M57.2306 35.5317C57.2306 35.5317 57.5434 36.9536 58.4913 37.11C59.4392 37.2664 60.2259 35.6881 60.2259 35.6881L57.2306 35.5317Z" fill="#263238"/>
<path d="M65.2591 36.1671C65.2591 36.1671 66.207 39.0108 65.0979 40.5842C63.9889 42.1577 63.5245 42.1625 63.5245 42.1625C62.5766 43.7407 60.0505 40.2667 60.0505 40.2667C60.0505 40.2667 61.9462 40.1814 62.4202 38.9207C62.8941 37.66 62.2306 35.8164 62.2306 35.8164L65.2591 36.1671Z" fill="#263238"/>
<path d="M62.4155 36.167C62.4155 36.167 62.8895 38.3756 62.4155 39.4846C61.9416 40.5936 60.0458 40.2713 60.0458 40.2713L59.098 42.641" stroke="#263238" stroke-width="0.835087" stroke-linecap="round" stroke-linejoin="round"/>
<path d="M49.5149 41.9728C49.5149 41.9728 51.3443 42.3662 52.5149 40.2761" stroke="#263238" stroke-width="0.626315" stroke-linecap="round" stroke-linejoin="round"/>
<path d="M81.9971 52.2384L78.1191 53.6667L80.3092 59.6128L84.1872 58.1844L81.9971 52.2384Z" fill="#263238"/>
<path d="M81.3184 53.5686L79.4639 54.2517L80.4795 57.0091L82.334 56.326L81.3184 53.5686Z" fill="white"/>
<path d="M79.9515 51.3314L79.1332 51.6328L79.7999 53.4429L80.6182 53.1415L79.9515 51.3314Z" fill="white" stroke="#263238" stroke-width="0.417543" stroke-linecap="round" stroke-linejoin="round"/>
<path d="M75.8896 77.3145L79.4015 81.3192" stroke="#263238" stroke-width="0.835087" stroke-linecap="round" stroke-linejoin="round"/>
<path d="M111.966 27.9015L108.482 29.911L106.516 26.475L109.994 24.4702L111.966 27.9015Z" stroke="#263238" stroke-width="0.835087" stroke-linecap="round" stroke-linejoin="round"/>
<path d="M110.791 23.9913L105.307 27.1572L102.042 21.1098L107.525 17.9438L110.791 23.9913Z" stroke="#263238" stroke-width="0.835087" stroke-linecap="round" stroke-linejoin="round"/>
<path d="M163.585 100.829C180.05 84.3643 180.05 57.669 163.585 41.2038C147.12 24.7387 120.425 24.7387 103.96 41.2038C87.4946 57.669 87.4946 84.3642 103.96 100.829C120.425 117.295 147.12 117.295 163.585 100.829Z" fill="white"/>
<path d="M134.142 21.6218C124.515 21.619 115.104 24.471 107.099 29.8171C99.0933 35.1632 92.853 42.7632 89.1672 51.6561C85.4814 60.5489 84.5156 70.335 86.3919 79.7768C88.2682 89.2186 92.9023 97.8918 99.7082 104.7C106.514 111.508 115.186 116.144 124.627 118.023C134.068 119.902 143.855 118.939 152.749 115.256C161.643 111.573 169.245 105.335 174.593 97.3311C179.941 89.3273 182.796 79.9171 182.796 70.2907C182.796 57.3854 177.671 45.0084 168.546 35.8816C159.422 26.7549 147.047 21.6256 134.142 21.6218ZM134.142 112.452C125.799 112.452 117.644 109.979 110.707 105.344C103.771 100.709 98.3643 94.121 95.1717 86.4135C91.9792 78.706 91.1438 70.2249 92.7714 62.0427C94.3989 53.8605 98.4163 46.3446 104.315 40.4455C110.214 34.5465 117.73 30.5291 125.912 28.9016C134.095 27.274 142.576 28.1094 150.283 31.3019C157.991 34.4945 164.579 39.9009 169.213 46.8374C173.848 53.774 176.322 61.9292 176.322 70.2717C176.322 75.811 175.231 81.296 173.111 86.4135C170.992 91.5311 167.885 96.1811 163.968 100.098C160.051 104.015 155.401 107.122 150.283 109.242C145.166 111.361 139.681 112.452 134.142 112.452Z" fill="#263238" stroke="#263238" stroke-width="0.835087" stroke-linecap="round" stroke-linejoin="round"/>
<path d="M164.004 33.5792C159.154 29.6272 153.567 26.6775 147.568 24.9014" stroke="white" stroke-width="1.67017" stroke-linecap="round" stroke-linejoin="round"/>
<path d="M143.08 23.8117C141.356 23.4846 139.616 23.252 137.867 23.115" stroke="white" stroke-width="1.67017" stroke-linecap="round" stroke-linejoin="round"/>
<path d="M169.64 96.3101C175.326 88.5457 178.311 79.1324 178.14 69.5103C177.969 59.8881 174.65 50.587 168.692 43.0298" stroke="white" stroke-width="0.835087" stroke-linecap="round" stroke-linejoin="round"/>
<path d="M163.488 103.083C164.87 101.849 166.171 100.527 167.384 99.1255" stroke="white" stroke-width="0.835087" stroke-linecap="round" stroke-linejoin="round"/>
<path d="M116.25 110.509C123.647 113.794 131.805 114.979 139.831 113.934C147.857 112.889 155.44 109.655 161.748 104.585" stroke="white" stroke-width="0.835087" stroke-linecap="round" stroke-linejoin="round"/>
<path d="M109.971 107.073C111.287 107.936 112.649 108.727 114.051 109.443" stroke="white" stroke-width="0.835087" stroke-linecap="round" stroke-linejoin="round"/>
<path d="M105.25 103.49C106.36 104.456 107.518 105.366 108.719 106.215" stroke="white" stroke-width="0.835087" stroke-linecap="round" stroke-linejoin="round"/>
<path d="M121.971 27.9871C114.492 30.1407 107.718 34.2385 102.339 39.863C96.9599 45.4875 93.1681 52.4375 91.3501 60.0048C89.5321 67.5721 89.7529 75.4861 91.9898 82.9402C94.2268 90.3944 98.4 97.1223 104.084 102.438" stroke="white" stroke-width="0.835087" stroke-linecap="round" stroke-linejoin="round"/>
<path d="M165.26 39.172C160.112 34.0302 153.771 30.243 146.803 28.1483C139.835 26.0535 132.456 25.7164 125.326 27.1671" stroke="white" stroke-width="0.835087" stroke-linecap="round" stroke-linejoin="round"/>
<path d="M140.45 85.8787H127.786V89.31H140.45V85.8787Z" fill="#1D1355"/>
<path d="M137.677 70.2907C137.677 69.4636 137.387 68.6628 136.857 68.0279C136.326 67.393 135.59 66.9643 134.777 66.8167L134.402 43.6553H133.876L133.506 66.8167C132.701 66.9615 131.97 67.3817 131.44 68.0055C130.91 68.6293 130.613 69.4178 130.6 70.2363C130.588 71.0548 130.86 71.8523 131.37 72.4925C131.88 73.1326 132.597 73.5756 133.397 73.7457L133.265 81.9638H135.018L134.886 73.7457C135.675 73.5748 136.383 73.1389 136.891 72.5104C137.398 71.8819 137.676 71.0987 137.677 70.2907ZM134.141 72.1864C133.767 72.1864 133.4 72.0752 133.088 71.8669C132.776 71.6586 132.533 71.3625 132.39 71.0161C132.247 70.6697 132.209 70.2886 132.282 69.9208C132.355 69.5531 132.536 69.2153 132.801 68.9502C133.066 68.685 133.404 68.5045 133.772 68.4313C134.139 68.3582 134.521 68.3957 134.867 68.5392C135.213 68.6827 135.509 68.9257 135.718 69.2374C135.926 69.5492 136.037 69.9157 136.037 70.2907C136.037 70.5396 135.988 70.7861 135.893 71.0161C135.798 71.2461 135.658 71.4551 135.482 71.6312C135.306 71.8072 135.097 71.9469 134.867 72.0421C134.637 72.1374 134.39 72.1864 134.141 72.1864Z" fill="#263238"/>
<path d="M134.141 72.2388C135.217 72.2388 136.089 71.3667 136.089 70.2909C136.089 69.2151 135.217 68.343 134.141 68.343C133.066 68.343 132.194 69.2151 132.194 70.2909C132.194 71.3667 133.066 72.2388 134.141 72.2388Z" fill="#1D1355"/>
<path d="M134.142 30.4941V37.5132" stroke="#263238" stroke-width="3.34035" stroke-linecap="round" stroke-linejoin="round"/>
<path d="M134.142 103.31V110.329" stroke="#263238" stroke-width="3.34035" stroke-linecap="round" stroke-linejoin="round"/>
<path d="M114.184 35.8447L117.691 41.9206" stroke="#263238" stroke-width="3.34035" stroke-linecap="round" stroke-linejoin="round"/>
<path d="M150.592 98.9023L154.099 104.983" stroke="#263238" stroke-width="3.34035" stroke-linecap="round" stroke-linejoin="round"/>
<path d="M99.5724 50.4517L105.648 53.9636" stroke="#263238" stroke-width="3.34035" stroke-linecap="round" stroke-linejoin="round"/>
<path d="M162.63 86.8596L168.711 90.3715" stroke="#263238" stroke-width="3.34035" stroke-linecap="round" stroke-linejoin="round"/>
<path d="M174.057 70.4138H167.038" stroke="#263238" stroke-width="3.34035" stroke-linecap="round" stroke-linejoin="round"/>
<path d="M101.241 70.4138H94.2216" stroke="#263238" stroke-width="3.34035" stroke-linecap="round" stroke-linejoin="round"/>
<path d="M174.057 70.4138H167.038" stroke="#263238" stroke-width="3.34035" stroke-linecap="round" stroke-linejoin="round"/>
<path d="M101.241 70.4138H94.2216" stroke="#263238" stroke-width="3.34035" stroke-linecap="round" stroke-linejoin="round"/>
<path d="M168.711 50.4517L162.63 53.9636" stroke="#263238" stroke-width="3.34035" stroke-linecap="round" stroke-linejoin="round"/>
<path d="M105.648 86.8596L99.5724 90.3715" stroke="#263238" stroke-width="3.34035" stroke-linecap="round" stroke-linejoin="round"/>
<path d="M154.099 35.8447L150.592 41.9206" stroke="#263238" stroke-width="3.34035" stroke-linecap="round" stroke-linejoin="round"/>
<path d="M117.691 98.9023L114.184 104.983" stroke="#263238" stroke-width="3.34035" stroke-linecap="round" stroke-linejoin="round"/>
<path d="M136.151 20.0911H132.132V23.6456H136.151V20.0911Z" stroke="#263238" stroke-width="0.835087" stroke-linecap="round" stroke-linejoin="round"/>
<path d="M137.307 10.5933H130.976V19.8872H137.307V10.5933Z" stroke="#263238" stroke-width="0.835087" stroke-linecap="round" stroke-linejoin="round"/>
<path d="M138.625 4.05298H129.459V10.3848H138.625V4.05298Z" fill="#1D1355"/>
<path d="M138.725 4.05298H129.559V10.3848H138.725V4.05298Z" stroke="#263238" stroke-width="0.835087" stroke-linecap="round" stroke-linejoin="round"/>
<path d="M130.577 7.99157V4.19531" stroke="#263238" stroke-width="0.835087" stroke-linecap="round" stroke-linejoin="round"/>
<path d="M130.577 10.5033V8.86816" stroke="#263238" stroke-width="0.835087" stroke-linecap="round" stroke-linejoin="round"/>
<path d="M131.743 10.5034V4.19531" stroke="#263238" stroke-width="0.835087" stroke-linecap="round" stroke-linejoin="round"/>
<path d="M132.909 5.77353V4.19531" stroke="#263238" stroke-width="0.835087" stroke-linecap="round" stroke-linejoin="round"/>
<path d="M132.909 10.5034V6.53174" stroke="#263238" stroke-width="0.835087" stroke-linecap="round" stroke-linejoin="round"/>
<path d="M134.838 10.5034V4.19531" stroke="#263238" stroke-width="0.835087" stroke-linecap="round" stroke-linejoin="round"/>
<g style="mix-blend-mode:multiply" opacity="0.3">
<path d="M67.2165 54.2954L70.6241 54.5323L70.5104 53.2385C70.5104 53.2385 67.4535 53.0015 67.2165 54.2954Z" fill="#1D1355"/>
</g>
<g style="mix-blend-mode:multiply" opacity="0.3">
<path d="M57.8278 81.1818L64.7852 76.5704L55.8989 79.9591C55.8989 79.9591 55.0932 61.8309 55.6998 60.4233C56.3065 59.0157 60.1311 56.3948 60.1311 56.3948C60.1311 56.3948 59.9037 54.9351 61.1359 54.3805C61.981 54.0648 62.9117 54.0648 63.7568 54.3805L64.6336 54.7123C63.6241 54.1436 61.9937 52.9919 59.4866 50.6506H59.4297L60.0364 51.2336L59.771 53.6033L57.1074 55.7787C56.5055 56.3853 54.2306 59.2763 54.2306 59.2763L54.0979 83.2861L57.7141 80.9591L57.8278 81.1818Z" fill="#1D1355"/>
</g>
<path d="M59.7473 53.6125C59.7473 53.6125 54.2069 58.1008 54.2069 59.2998C54.2069 60.4989 53.8088 82.7835 54.0742 83.3096C54.3396 83.8357 64.7852 76.5702 64.7852 76.5702L63.7284 66.9397" stroke="#263238" stroke-width="0.835087" stroke-linecap="round" stroke-linejoin="round"/>
<path d="M60.804 64.5657L72.0174 73.5374" stroke="#263238" stroke-width="0.835087" stroke-linecap="round" stroke-linejoin="round"/>
<g style="mix-blend-mode:multiply" opacity="0.3">
<path d="M109.359 39.7168L102.606 37.6409L80.5911 33.9395L75.0129 40.058C75.0129 40.058 79.8471 37.039 81.2547 37.039C82.6623 37.039 103.895 43.077 105.9 43.641L109.359 39.7168Z" fill="#1D1355"/>
</g>
<path d="M68.3967 44.2761C68.3967 44.2761 79.2736 33.9395 80.5911 33.9395C81.9087 33.9395 103.677 38.2902 105.26 38.5556C106.843 38.821 109.482 39.3471 109.482 39.3471C109.482 39.3471 104.866 45.1529 103.283 47.1292C101.7 49.1055 100.914 50.2951 100.914 50.2951L83.103 42.1196" stroke="#263238" stroke-width="0.835087" stroke-linecap="round" stroke-linejoin="round"/>
<path d="M86.1314 44.1152L90.6196 55.9874" stroke="#263238" stroke-width="0.835087" stroke-linecap="round" stroke-linejoin="round"/>
<path d="M72.4109 61.9259L71.354 62.9827L66.2118 56.3855" stroke="#263238" stroke-width="0.835087" stroke-linecap="round" stroke-linejoin="round"/>
<path d="M81.0745 44.5841L86.2925 43.6694L81.8565 46.7974" stroke="#263238" stroke-width="0.417543" stroke-linecap="round" stroke-linejoin="round"/>
<path d="M63.7047 66.9398L57.079 65.9683" stroke="#263238" stroke-width="0.417543" stroke-linecap="round" stroke-linejoin="round"/>
<path d="M60.0126 51.2385C59.5364 52.4171 59.4894 53.7256 59.8799 54.9353C60.5387 56.9116 62.7804 60.3429 62.7804 60.3429L65.6809 56.2528" stroke="#263238" stroke-width="0.835087" stroke-linecap="round" stroke-linejoin="round"/>
<path d="M66.6051 54.6696C66.6051 54.6696 68.0601 53.352 69.3777 53.352H71.6194C71.6194 53.352 71.226 48.2051 69.3777 45.4325C67.5293 42.66 65.0222 44.115 65.0222 44.115" stroke="#263238" stroke-width="0.835087" stroke-linecap="round" stroke-linejoin="round"/>
<path d="M64.2307 77.3617L80.065 69.9729L81.3826 65.3568L86.7902 64.1814C86.7902 64.1814 87.8471 63.1245 87.7144 64.1814C87.5817 65.2383 86.1315 65.6316 85.6054 66.6885C85.0793 67.7454 85.0746 69.8545 84.4158 70.7786C83.757 71.7028 81.3826 72.7597 81.3826 72.7597C81.3826 72.7597 63.5719 87.6651 62.2544 88.4566C60.9368 89.2481 58.297 81.7266 58.297 81.7266" fill="white"/>
<g style="mix-blend-mode:multiply" opacity="0.3">
<path d="M57.8278 81.1819C58.4391 82.1629 60.9368 86.2246 61.1122 87.817C61.316 89.6322 62.9273 87.817 62.9273 87.817L77.4299 75.7363C77.4299 75.7363 63.1264 84.7933 61.9416 84.3905C60.7567 83.9876 60.5197 80.9686 60.5197 80.9686L64.7852 76.5705L57.8278 81.1819Z" fill="#1D1355"/>
</g>
<path d="M64.2307 77.3617L80.065 69.9729L81.3826 65.3568L86.7902 64.1814C86.7902 64.1814 87.8471 63.1245 87.7144 64.1814C87.5817 65.2383 86.1315 65.6316 85.6054 66.6885C85.0793 67.7454 85.0746 69.8545 84.4158 70.7786C83.757 71.7028 81.3826 72.7597 81.3826 72.7597C81.3826 72.7597 63.5719 87.6651 62.2544 88.4566C60.9368 89.2481 58.297 81.7266 58.297 81.7266" stroke="#263238" stroke-width="0.835087" stroke-linecap="round" stroke-linejoin="round"/>
<path d="M86.7902 64.1816C86.7902 64.1816 84.2072 65.7219 84.4679 66.2433" stroke="#263238" stroke-width="0.417543" stroke-linecap="round" stroke-linejoin="round"/>
<path d="M84.7286 64.665L82.7712 65.7077" stroke="#263238" stroke-width="0.417543" stroke-linecap="round" stroke-linejoin="round"/>
</svg>
