<svg width="53" height="51" viewBox="0 0 53 51" fill="none" xmlns="http://www.w3.org/2000/svg">
<path d="M21.3951 32.3985C21.6623 32.5645 21.969 32.6632 22.2867 32.6853C22.6044 32.7074 22.9227 32.6522 23.2122 32.5249L36.0053 26.9075C36.3395 26.7629 36.6231 26.529 36.8221 26.2339C37.0211 25.9387 37.1269 25.5947 37.1269 25.2433C37.1269 24.8919 37.0211 24.5479 36.8221 24.2527C36.6231 23.9575 36.3395 23.7236 36.0053 23.5791L23.2122 17.9617C22.9188 17.8333 22.5963 17.7783 22.2747 17.8019C21.9532 17.8255 21.6432 17.927 21.3737 18.0968C21.1042 18.2666 20.8842 18.4992 20.7341 18.7728C20.5841 19.0464 20.509 19.352 20.5158 19.661V30.8958C20.5207 31.1966 20.6036 31.4914 20.7571 31.7537C20.9106 32.0161 21.1299 32.2376 21.3951 32.3985V32.3985ZM22.8605 20.321L34.1588 25.2784L22.8605 30.2077V20.321Z" fill="#021E72"/>
<path d="M11.7234 9.83051H14.6542V14.0436H11.7234V9.83051Z" fill="#021E72"/>
<path d="M20.5159 9.83051H23.4467V14.0436H20.5159V9.83051Z" fill="#021E72"/>
<path d="M29.3083 9.83051H32.2392V14.0436H29.3083V9.83051Z" fill="#021E72"/>
<path d="M38.1008 9.83051H41.0317V14.0436H38.1008V9.83051Z" fill="#021E72"/>
<path d="M11.7234 36.5132H14.6542V40.7263H11.7234V36.5132Z" fill="#021E72"/>
<path d="M20.5159 36.5132H23.4467V40.7263H20.5159V36.5132Z" fill="#021E72"/>
<path d="M29.3083 36.5132H32.2392V40.7263H29.3083V36.5132Z" fill="#021E72"/>
<path d="M38.1008 36.5132H41.0317V40.7263H38.1008V36.5132Z" fill="#021E72"/>
<path d="M44.7621 4.9728H7.60022C6.89623 4.9728 6.22106 5.26871 5.72326 5.79543C5.22546 6.32214 4.9458 7.03653 4.9458 7.78142V41.4848C4.9458 42.2297 5.22546 42.944 5.72326 43.4708C6.22106 43.9975 6.89623 44.2934 7.60022 44.2934H44.7621C45.4661 44.2934 46.1413 43.9975 46.6391 43.4708C47.1369 42.944 47.4166 42.2297 47.4166 41.4848V7.78142C47.4166 7.03653 47.1369 6.32214 46.6391 5.79543C46.1413 5.26871 45.4661 4.9728 44.7621 4.9728V4.9728ZM7.60022 41.4848V7.78142H44.7621V41.4848H7.60022Z" fill="#021E72"/>
</svg>
