<svg width="53" height="48" viewBox="0 0 53 48" fill="none" xmlns="http://www.w3.org/2000/svg">
<path d="M20.8002 33.4795C21.1264 33.6822 21.5008 33.8026 21.8886 33.8296C22.2764 33.8566 22.6651 33.7892 23.0184 33.6338L38.6354 26.7764C39.0434 26.6 39.3897 26.3144 39.6325 25.9541C39.8754 25.5937 40.0046 25.1739 40.0046 24.7449C40.0046 24.3159 39.8754 23.896 39.6325 23.5357C39.3897 23.1753 39.0434 22.8898 38.6354 22.7134L23.0184 15.856C22.6603 15.6992 22.2666 15.6321 21.8741 15.6609C21.4815 15.6898 21.1031 15.8136 20.7741 16.0209C20.4452 16.2282 20.1766 16.5122 19.9934 16.8461C19.8102 17.1801 19.7185 17.5531 19.7269 17.9303V31.6451C19.7328 32.0122 19.8341 32.3721 20.0214 32.6924C20.2088 33.0126 20.4765 33.2831 20.8002 33.4795ZM22.5891 18.7361L36.3814 24.7877L22.5891 30.8051V18.7361Z" fill="#021E72"/>
<path d="M8.99355 5.92996H12.5713V11.073H8.99355V5.92996Z" fill="#021E72"/>
<path d="M19.7269 5.92996H23.3046V11.073H19.7269V5.92996Z" fill="#021E72"/>
<path d="M30.4602 5.92996H34.0379V11.073H30.4602V5.92996Z" fill="#021E72"/>
<path d="M41.1935 5.92996H44.7712V11.073H41.1935V5.92996Z" fill="#021E72"/>
<path d="M8.99355 38.5024H12.5713V43.6455H8.99355V38.5024Z" fill="#021E72"/>
<path d="M19.7269 38.5024H23.3046V43.6455H19.7269V38.5024Z" fill="#021E72"/>
<path d="M30.4602 38.5024H34.0379V43.6455H30.4602V38.5024Z" fill="#021E72"/>
<path d="M41.1935 38.5024H44.7712V43.6455H41.1935V38.5024Z" fill="#021E72"/>
<path d="M49.3251 0H3.96032C3.10092 0 2.27673 0.361223 1.66905 1.00421C1.06136 1.64719 0.719971 2.51926 0.719971 3.42857V44.5714C0.719971 45.4807 1.06136 46.3528 1.66905 46.9958C2.27673 47.6388 3.10092 48 3.96032 48H49.3251C50.1845 48 51.0087 47.6388 51.6164 46.9958C52.2241 46.3528 52.5655 45.4807 52.5655 44.5714V3.42857C52.5655 2.51926 52.2241 1.64719 51.6164 1.00421C51.0087 0.361223 50.1845 0 49.3251 0ZM3.96032 44.5714V3.42857H49.3251V44.5714H3.96032Z" fill="#021E72"/>
</svg>
