<svg width="1280" height="757" viewBox="0 0 1280 757" fill="none" xmlns="http://www.w3.org/2000/svg">
<mask id="mask0_1215_2755" style="mask-type:alpha" maskUnits="userSpaceOnUse" x="0" y="0" width="1280" height="757">
<rect width="1280" height="757" fill="#C4C4C4"/>
</mask>
<g mask="url(#mask0_1215_2755)">
<path d="M1352.39 757.488L546.386 757.488C354.113 757.488 690.195 289.332 320.886 145.988C182.161 92.1435 -95.1142 203.488 -95.1142 75.4883C-97.3314 41.4279 -107.676 14.0495 -124.84 -7.58283C-391.677 -0.890815 -654.149 7.42191 -873.071 17.6433C-1185.94 99.3368 -1465.82 188.855 -1428.45 82.919C-1464.31 55.4324 -1224.95 34.0724 -873.071 17.6433C-565.586 -62.6439 -226.234 -135.373 -124.84 -7.58283C601.836 -25.8072 1360.89 -32.0116 1360.89 -32.0116C1360.89 -32.0116 1537.39 757.488 1352.39 757.488Z" fill="url(#paint0_linear_1215_2755)"/>
</g>
<defs>
<linearGradient id="paint0_linear_1215_2755" x1="-114" y1="109" x2="1326.15" y2="401.653" gradientUnits="userSpaceOnUse">
<stop offset="0.00677998" stop-color="#C71EFA"/>
<stop offset="0.701905" stop-color="#1C1254"/>
</linearGradient>
</defs>
</svg>
