<svg width="28" height="29" viewBox="0 0 28 29" fill="none" xmlns="http://www.w3.org/2000/svg">
<path d="M14.1548 0C11.4289 0 8.7641 0.846305 6.49754 2.43189C4.23098 4.01748 2.46441 6.27114 1.42123 8.90788C0.378042 11.5446 0.105098 14.446 0.636908 17.2452C1.16872 20.0443 2.4814 22.6155 4.40895 24.6336C6.3365 26.6516 8.79235 28.026 11.4659 28.5827C14.1395 29.1395 16.9108 28.8538 19.4293 27.7616C21.9477 26.6694 24.1003 24.8199 25.6148 22.4469C27.1292 20.0739 27.9376 17.284 27.9376 14.43C27.9376 10.6029 26.4855 6.9326 23.9007 4.22645C21.3159 1.5203 17.8102 0 14.1548 0V0ZM14.1548 27.5499C11.6763 27.5499 9.25353 26.7804 7.19275 25.3388C5.13197 23.8972 3.52579 21.8481 2.57731 19.4508C1.62884 17.0534 1.38068 14.4155 1.8642 11.8704C2.34773 9.32543 3.54123 6.98769 5.29378 5.15284C7.04633 3.31798 9.27921 2.06843 11.7101 1.5622C14.1409 1.05597 16.6606 1.31578 18.9504 2.3088C21.2402 3.30181 23.1973 4.98342 24.5743 7.14098C25.9513 9.29854 26.6862 11.8351 26.6862 14.43C26.6862 16.1529 26.3621 17.859 25.7323 19.4508C25.1026 21.0426 24.1795 22.4889 23.0159 23.7072C21.8522 24.9255 20.4708 25.8919 18.9504 26.5512C17.43 27.2106 15.8005 27.5499 14.1548 27.5499Z" fill="url(#paint0_linear_1016_337)"/>
<path d="M7.8561 11.1217H10.6619V20.5627H7.8561V11.1217ZM9.26048 6.42798C9.58229 6.42798 9.89686 6.52793 10.1644 6.71518C10.4319 6.90243 10.6404 7.16856 10.7634 7.47989C10.8864 7.79122 10.9184 8.13376 10.8554 8.46417C10.7924 8.79457 10.6372 9.09798 10.4095 9.33599C10.1817 9.57401 9.89163 9.73594 9.57594 9.80129C9.26024 9.86664 8.93312 9.83247 8.63598 9.7031C8.33884 9.57374 8.08504 9.355 7.90668 9.07455C7.72833 8.79411 7.63344 8.46458 7.63404 8.12766C7.63404 7.90419 7.67613 7.68292 7.7579 7.4765C7.83967 7.27008 7.95952 7.08257 8.11059 6.92469C8.26166 6.76682 8.44098 6.64169 8.63829 6.55646C8.8356 6.47123 9.04703 6.42757 9.26048 6.42798ZM12.4203 20.5658H15.2201V15.8909C15.2201 14.6593 15.4422 13.4686 16.9006 13.4686C18.359 13.4686 18.359 14.8761 18.359 15.982V20.5627H21.1587V15.3945C21.1587 12.8497 20.6336 10.8955 17.7978 10.8955C17.2654 10.8751 16.7377 11.0059 16.2706 11.2742C15.8036 11.5425 15.4146 11.9382 15.1451 12.4193H15.1061V11.1217H12.4053L12.4203 20.5658Z" fill="url(#paint1_linear_1016_337)"/>
<defs>
<linearGradient id="paint0_linear_1016_337" x1="2.21758" y1="7.21343" x2="26.6274" y2="20.676" gradientUnits="userSpaceOnUse">
<stop offset="0.56" stop-color="#7595C9"/>
<stop offset="1" stop-color="#3665A7"/>
</linearGradient>
<linearGradient id="paint1_linear_1016_337" x1="334.931" y1="613.648" x2="944.489" y2="613.648" gradientUnits="userSpaceOnUse">
<stop offset="0.56" stop-color="#7595C9"/>
<stop offset="1" stop-color="#3665A7"/>
</linearGradient>
</defs>
</svg>
