<svg width="52" height="48" viewBox="0 0 52 48" fill="none" xmlns="http://www.w3.org/2000/svg">
<path d="M25.6275 5.66931C25.4242 5.59321 25.2056 5.56747 24.9902 5.59428C24.7749 5.62109 24.5692 5.69966 24.3909 5.82327C24.2125 5.94688 24.0667 6.11185 23.966 6.30407C23.8653 6.49629 23.8126 6.71005 23.8125 6.92706V28.6546C22.5709 27.6605 21.0339 27.1077 19.4436 27.0833C17.8533 27.0588 16.3001 27.564 15.0285 28.5194C13.7569 29.4748 12.8392 30.826 12.42 32.3603C12.0009 33.8945 12.104 35.5246 12.7131 36.9939C13.3223 38.4631 14.4028 39.6879 15.7847 40.4755C17.1665 41.263 18.771 41.5685 20.3456 41.3439C21.9201 41.1192 23.3752 40.3772 24.4817 39.2346C25.5881 38.0921 26.283 36.6139 26.457 35.0329C26.4854 34.9235 26.4998 34.8109 26.5 34.6979V17.824L39.0184 22.5181C39.2216 22.5942 39.4402 22.62 39.6556 22.5932C39.8709 22.5664 40.0766 22.4878 40.255 22.3642C40.4333 22.2406 40.5791 22.0756 40.6798 21.8834C40.7806 21.6912 40.8332 21.4774 40.8333 21.2604V15.407C40.8336 14.2214 40.472 13.0639 39.7968 12.0893C39.1215 11.1147 38.1649 10.3694 37.0547 9.95319L25.6275 5.66931ZM23.8125 34.25C23.8125 35.4379 23.3406 36.5772 22.5006 37.4172C21.6606 38.2572 20.5213 38.7291 19.3333 38.7291C18.1454 38.7291 17.0061 38.2572 16.1661 37.4172C15.3261 36.5772 14.8542 35.4379 14.8542 34.25C14.8542 33.062 15.3261 31.9227 16.1661 31.0827C17.0061 30.2427 18.1454 29.7708 19.3333 29.7708C20.5213 29.7708 21.6606 30.2427 22.5006 31.0827C23.3406 31.9227 23.8125 33.062 23.8125 34.25ZM38.1458 19.3218L26.5 14.9537V8.86565L36.1105 12.4705C36.7084 12.6945 37.2236 13.0957 37.5874 13.6205C37.9511 14.1452 38.1459 14.7685 38.1458 15.407V19.3218Z" fill="#021E72"/>
<path d="M48.3034 0H3.22023C2.36617 0 1.54709 0.35703 0.943183 0.992547C0.339273 1.62806 0 2.49001 0 3.38877V44.054C0 44.9527 0.339273 45.8147 0.943183 46.4502C1.54709 47.0857 2.36617 47.4428 3.22023 47.4428H48.3034C49.1575 47.4428 49.9766 47.0857 50.5805 46.4502C51.1844 45.8147 51.5237 44.9527 51.5237 44.054V3.38877C51.5237 2.49001 51.1844 1.62806 50.5805 0.992547C49.9766 0.35703 49.1575 0 48.3034 0ZM3.22023 44.054V3.38877H48.3034V44.054H3.22023Z" fill="#021E72"/>
</svg>
