<svg width="56" height="50" viewBox="0 0 56 50" fill="none" xmlns="http://www.w3.org/2000/svg">
<path d="M18.5246 23.2322C20.0028 23.2322 21.4205 22.6583 22.4658 21.6369C23.5111 20.6155 24.0983 19.2302 24.0983 17.7857C24.0983 16.3412 23.5111 14.9559 22.4658 13.9345C21.4205 12.9131 20.0028 12.3393 18.5246 12.3393C17.0463 12.3393 15.6286 12.9131 14.5833 13.9345C13.538 14.9559 12.9508 16.3412 12.9508 17.7857C12.9508 19.2302 13.538 20.6155 14.5833 21.6369C15.6286 22.6583 17.0463 23.2322 18.5246 23.2322V23.2322Z" stroke="#021E72" stroke-width="4" stroke-linecap="round" stroke-linejoin="round"/>
<path d="M51.9672 41.75L36.98 28.6786L23.3552 40.4428L13.8178 32.6L2.91803 40.4428" stroke="#021E72" stroke-width="4" stroke-linecap="round" stroke-linejoin="round"/>
<path d="M51.7009 0.357147H4.08934C3.18738 0.357147 2.32237 0.725586 1.68459 1.38141C1.04681 2.03724 0.688507 2.92673 0.688507 3.8542V45.8189C0.688507 46.7464 1.04681 47.6358 1.68459 48.2917C2.32237 48.9475 3.18738 49.3159 4.08934 49.3159H51.7009C52.6029 49.3159 53.4679 48.9475 54.1057 48.2917C54.7435 47.6358 55.1018 46.7464 55.1018 45.8189V3.8542C55.1018 2.92673 54.7435 2.03724 54.1057 1.38141C53.4679 0.725586 52.6029 0.357147 51.7009 0.357147ZM4.08934 45.8189V3.8542H51.7009V45.8189H4.08934Z" fill="#021E72"/>
</svg>
