<svg width="52" height="48" viewBox="0 0 52 48" fill="none" xmlns="http://www.w3.org/2000/svg">
<path d="M48.0117 0H3.20078C2.35188 0 1.53775 0.356359 0.937487 0.990681C0.337224 1.625 0 2.48533 0 3.3824V43.9712C0 44.8682 0.337224 45.7286 0.937487 46.3629C1.53775 46.9972 2.35188 47.3536 3.20078 47.3536H48.0117C48.8606 47.3536 49.6747 46.9972 50.275 46.3629C50.8753 45.7286 51.2125 44.8682 51.2125 43.9712V3.3824C51.2125 2.48533 50.8753 1.625 50.275 0.990681C49.6747 0.356359 48.8606 0 48.0117 0ZM3.20078 43.9712V3.3824H48.0117V43.9712H3.20078Z" fill="#021E72"/>
</svg>
