<svg width="52" height="48" viewBox="0 0 52 48" fill="none" xmlns="http://www.w3.org/2000/svg">
<path d="M48.0117 0H3.20078C2.35188 0 1.53775 0.356359 0.937487 0.990681C0.337224 1.625 0 2.48533 0 3.3824V43.9712C0 44.8682 0.337224 45.7286 0.937487 46.3629C1.53775 46.9972 2.35188 47.3536 3.20078 47.3536H48.0117C48.8606 47.3536 49.6747 46.9972 50.275 46.3629C50.8753 45.7286 51.2125 44.8682 51.2125 43.9712V3.3824C51.2125 2.48533 50.8753 1.625 50.275 0.990681C49.6747 0.356359 48.8606 0 48.0117 0ZM3.20078 43.9712V3.3824H48.0117V43.9712H3.20078Z" fill="#021E72"/>
<path d="M25.5 40C22.6947 40 20.1012 39.3088 17.7197 37.9263C15.3382 36.5438 13.4562 34.6618 12.0737 32.2803C10.6912 29.8988 10 27.3053 10 24.5C10 21.6947 10.6912 19.1012 12.0737 16.7197C13.4562 14.3382 15.3382 12.4562 17.7197 11.0737C20.1012 9.69124 22.6947 9 25.5 9C27.7604 9 29.2943 9.27751 30.1016 9.83252C30.9089 10.3875 31.3125 11.4017 31.3125 12.875C31.3125 13.5208 31.1611 14.1364 30.8584 14.7217C30.5557 15.307 30.2227 15.7812 29.8594 16.1445C29.4961 16.5078 29.1631 16.9165 28.8604 17.3706C28.5576 17.8247 28.4062 18.2637 28.4062 18.6875C28.4062 20.625 29.375 21.5938 31.3125 21.5938C31.7363 21.5938 32.1753 21.4424 32.6294 21.1396C33.0835 20.8369 33.4922 20.5039 33.8555 20.1406C34.2188 19.7773 34.693 19.4443 35.2783 19.1416C35.8636 18.8389 36.4792 18.6875 37.125 18.6875C38.5781 18.6875 39.5872 19.1012 40.1523 19.9287C40.7174 20.7562 41 22.2799 41 24.5C41 26.599 40.5913 28.6071 39.7739 30.5244C38.9565 32.4417 37.8566 34.0916 36.4741 35.4741C35.0916 36.8566 33.4417 37.9565 31.5244 38.7739C29.6071 39.5913 27.599 40 25.5 40ZM18.7188 34.1875C19.526 34.1875 20.2122 33.9049 20.7773 33.3398C21.3424 32.7747 21.625 32.0885 21.625 31.2812C21.625 30.474 21.3424 29.7878 20.7773 29.2227C20.2122 28.6576 19.526 28.375 18.7188 28.375C17.9115 28.375 17.2253 28.6576 16.6602 29.2227C16.0951 29.7878 15.8125 30.474 15.8125 31.2812C15.8125 32.0885 16.0951 32.7747 16.6602 33.3398C17.2253 33.9049 17.9115 34.1875 18.7188 34.1875ZM16.7812 18.6875C15.974 18.6875 15.2878 18.9701 14.7227 19.5352C14.1576 20.1003 13.875 20.7865 13.875 21.5938C13.875 22.401 14.1576 23.0872 14.7227 23.6523C15.2878 24.2174 15.974 24.5 16.7812 24.5C17.5885 24.5 18.2747 24.2174 18.8398 23.6523C19.4049 23.0872 19.6875 22.401 19.6875 21.5938C19.6875 20.7865 19.4049 20.1003 18.8398 19.5352C18.2747 18.9701 17.5885 18.6875 16.7812 18.6875ZM22.5938 12.875C21.7865 12.875 21.1003 13.1576 20.5352 13.7227C19.9701 14.2878 19.6875 14.974 19.6875 15.7812C19.6875 16.5885 19.9701 17.2747 20.5352 17.8398C21.1003 18.4049 21.7865 18.6875 22.5938 18.6875C23.401 18.6875 24.0872 18.4049 24.6523 17.8398C25.2174 17.2747 25.5 16.5885 25.5 15.7812C25.5 14.974 25.2174 14.2878 24.6523 13.7227C24.0872 13.1576 23.401 12.875 22.5938 12.875ZM28.4062 30.3125C27.599 30.3125 26.9128 30.5951 26.3477 31.1602C25.7826 31.7253 25.5 32.4115 25.5 33.2188C25.5 34.026 25.7826 34.7122 26.3477 35.2773C26.9128 35.8424 27.599 36.125 28.4062 36.125C29.2135 36.125 29.8997 35.8424 30.4648 35.2773C31.0299 34.7122 31.3125 34.026 31.3125 33.2188C31.3125 32.4115 31.0299 31.7253 30.4648 31.1602C29.8997 30.5951 29.2135 30.3125 28.4062 30.3125ZM34.2188 24.5C33.4115 24.5 32.7253 24.7826 32.1602 25.3477C31.5951 25.9128 31.3125 26.599 31.3125 27.4062C31.3125 28.2135 31.5951 28.8997 32.1602 29.4648C32.7253 30.0299 33.4115 30.3125 34.2188 30.3125C35.026 30.3125 35.7122 30.0299 36.2773 29.4648C36.8424 28.8997 37.125 28.2135 37.125 27.4062C37.125 26.599 36.8424 25.9128 36.2773 25.3477C35.7122 24.7826 35.026 24.5 34.2188 24.5Z" fill="#021E72"/>
</svg>
