<svg width="21" height="24" viewBox="0 0 21 24" fill="none" xmlns="http://www.w3.org/2000/svg">
<path d="M10.5 11.5603C11.8924 11.5603 13.2277 10.9513 14.2123 9.86734C15.1969 8.78335 15.75 7.31315 15.75 5.78016C15.75 4.24716 15.1969 2.77696 14.2123 1.69297C13.2277 0.608979 11.8924 0 10.5 0C9.10761 0 7.77226 0.608979 6.78769 1.69297C5.80312 2.77696 5.25 4.24716 5.25 5.78016C5.25 7.31315 5.80312 8.78335 6.78769 9.86734C7.77226 10.9513 9.10761 11.5603 10.5 11.5603ZM14 5.78016C14 6.80215 13.6313 7.78229 12.9749 8.50495C12.3185 9.22761 11.4283 9.63359 10.5 9.63359C9.57174 9.63359 8.6815 9.22761 8.02513 8.50495C7.36875 7.78229 7 6.80215 7 5.78016C7 4.75816 7.36875 3.77802 8.02513 3.05536C8.6815 2.3327 9.57174 1.92672 10.5 1.92672C11.4283 1.92672 12.3185 2.3327 12.9749 3.05536C13.6313 3.77802 14 4.75816 14 5.78016ZM21 21.1939C21 23.1206 19.25 23.1206 19.25 23.1206H1.75C1.75 23.1206 0 23.1206 0 21.1939C0 19.2672 1.75 13.487 10.5 13.487C19.25 13.487 21 19.2672 21 21.1939ZM19.25 21.1862C19.2482 20.7122 18.9805 19.2865 17.794 17.9801C16.653 16.7239 14.5058 15.4138 10.5 15.4138C6.4925 15.4138 4.347 16.7239 3.206 17.9801C2.0195 19.2865 1.7535 20.7122 1.75 21.1862H19.25Z" fill="white"/>
</svg>
