<svg width="314" height="273" viewBox="0 0 314 273" fill="none" xmlns="http://www.w3.org/2000/svg">
<path d="M169.378 272.343C249.069 272.343 313.671 235.599 313.671 190.273C313.671 144.947 249.069 108.203 169.378 108.203C89.6871 108.203 25.085 144.947 25.085 190.273C25.085 235.599 89.6871 272.343 169.378 272.343Z" fill="#F5F5F5"/>
<path d="M36.2443 177.865C36.3157 178.847 36.6181 179.799 37.1268 180.642C37.6355 181.486 38.3361 182.197 39.1717 182.719L121.054 229.975C121.959 230.435 122.96 230.675 123.975 230.675C124.99 230.675 125.991 230.435 126.896 229.975L238.912 165.302C239.793 164.834 240.53 164.136 241.044 163.281C241.558 162.426 241.829 161.448 241.829 160.451C241.829 159.454 241.558 158.475 241.044 157.62C240.53 156.766 239.793 156.067 238.912 155.6L157.043 108.33C156.138 107.873 155.137 107.635 154.123 107.635C153.108 107.635 152.108 107.873 151.202 108.33L39.1717 173.017C38.3366 173.537 37.6362 174.248 37.1275 175.09C36.6188 175.933 36.3162 176.883 36.2443 177.865Z" fill="#37474F"/>
<path d="M123.961 224.362V230.68C122.947 230.709 121.941 230.478 121.041 230.009L39.1382 182.719C38.2823 182.268 37.5612 181.598 37.0486 180.777C36.536 179.957 36.2501 179.015 36.2201 178.048C36.1901 177.081 36.417 176.123 36.8777 175.272C37.3384 174.422 38.0165 173.708 38.8427 173.205C37.5334 174.145 37.6341 175.521 39.1382 176.387L121.054 223.657C121.948 224.135 122.948 224.378 123.961 224.362V224.362Z" fill="#263238"/>
<path d="M33.5048 173.118C32.6916 172.564 32.0199 171.828 31.544 170.967C31.0681 170.106 30.8014 169.145 30.7653 168.162V70.4608C30.8204 69.4478 31.1136 68.462 31.6211 67.5836C32.1286 66.7051 32.8361 65.9587 33.6861 65.4049L145.703 0.731592C146.573 0.270034 147.539 0.0197908 148.523 0.00112675C149.508 -0.0175373 150.483 0.1959 151.37 0.624159C152.183 1.17742 152.855 1.91422 153.331 2.77501C153.806 3.63581 154.073 4.59648 154.109 5.5794V103.281C154.054 104.294 153.761 105.28 153.253 106.158C152.746 107.037 152.038 107.783 151.188 108.337L39.1718 173.017C38.3009 173.476 37.3345 173.724 36.3503 173.742C35.366 173.759 34.3914 173.545 33.5048 173.118V173.118Z" fill="#455A64"/>
<path d="M38.8226 173.192C37.9844 173.567 37.0741 173.756 36.1555 173.743C35.237 173.73 34.3323 173.517 33.5048 173.118C32.6916 172.564 32.0199 171.828 31.544 170.967C31.0681 170.106 30.8014 169.145 30.7653 168.162V70.4609C30.7974 69.4446 31.0936 68.4542 31.6248 67.5872L37.1037 70.7429C36.5773 71.6121 36.2815 72.6013 36.2443 73.6167V171.325C36.2443 173.057 37.3723 173.829 38.8226 173.192Z" fill="#263238"/>
<path d="M36.2443 73.6301V171.325C36.2443 173.191 37.5871 173.943 39.1717 173.017L151.188 108.337C152.038 107.783 152.746 107.037 153.253 106.158C153.761 105.28 154.054 104.294 154.109 103.281V5.57943C154.109 3.71954 152.8 2.96081 151.188 3.89412L39.1717 68.5674C38.3196 69.1211 37.6102 69.8683 37.1015 70.748C36.5928 71.6278 36.2991 72.6153 36.2443 73.6301Z" fill="#37474F"/>
<path d="M39.1718 176.387L121.054 223.657C121.96 224.114 122.96 224.352 123.975 224.352C124.989 224.352 125.99 224.114 126.896 223.657L238.912 158.984C240.53 158.05 240.53 156.54 238.912 155.626L157.043 108.357C156.138 107.9 155.137 107.662 154.123 107.662C153.108 107.662 152.108 107.9 151.202 108.357L39.1718 173.017C37.5536 173.943 37.5536 175.454 39.1718 176.387Z" fill="#455A64"/>
<path d="M40.7429 73.9927L148.744 11.6493C149.711 11.0921 150.497 11.5486 150.497 12.6632V97.2649C150.463 97.8728 150.287 98.4642 149.983 98.9914C149.678 99.5187 149.254 99.9669 148.744 100.3L40.7429 162.61C39.7694 163.167 38.9838 162.717 38.9838 161.596V76.9941C39.0212 76.3909 39.1999 75.805 39.5054 75.2836C39.811 74.7623 40.2349 74.3201 40.7429 73.9927Z" fill="#FAFAFA"/>
<path d="M48.6727 173.856L152.652 113.816C153.104 113.584 153.605 113.464 154.113 113.464C154.62 113.464 155.121 113.584 155.573 113.816L160.891 116.884C161.065 116.946 161.217 117.06 161.324 117.211C161.431 117.362 161.488 117.542 161.488 117.727C161.488 117.912 161.431 118.093 161.324 118.244C161.217 118.395 161.065 118.509 160.891 118.57L56.8979 178.603C56.4459 178.835 55.9453 178.956 55.4375 178.956C54.9296 178.956 54.4291 178.835 53.9771 178.603L48.6727 175.542C48.4981 175.48 48.3468 175.366 48.2398 175.215C48.1328 175.064 48.0753 174.884 48.0753 174.699C48.0753 174.514 48.1328 174.333 48.2398 174.182C48.3468 174.032 48.4981 173.918 48.6727 173.856Z" fill="#37474F"/>
<path d="M62.3768 181.772L166.356 121.739C166.809 121.51 167.309 121.391 167.817 121.391C168.324 121.391 168.824 121.51 169.277 121.739L201.99 140.626C202.164 140.688 202.316 140.802 202.423 140.953C202.53 141.104 202.587 141.284 202.587 141.469C202.587 141.654 202.53 141.835 202.423 141.986C202.316 142.137 202.164 142.25 201.99 142.312L98.1311 202.258C97.6775 202.488 97.176 202.608 96.6674 202.608C96.1587 202.608 95.6573 202.488 95.2036 202.258L62.3835 183.458C62.2055 183.4 62.0501 183.288 61.9397 183.137C61.8292 182.987 61.7693 182.805 61.7686 182.617C61.7678 182.43 61.8263 182.248 61.9355 182.096C62.0448 181.944 62.1992 181.831 62.3768 181.772V181.772Z" fill="#263238"/>
<path d="M155.586 148.731L158.836 146.857C158.977 146.777 158.97 146.643 158.836 146.555L155.069 144.38C154.989 144.339 154.901 144.317 154.811 144.317C154.721 144.317 154.632 144.339 154.552 144.38L151.296 146.26C151.155 146.334 151.162 146.468 151.296 146.555L155.056 148.731C155.138 148.773 155.229 148.795 155.321 148.795C155.413 148.795 155.504 148.773 155.586 148.731V148.731ZM149.161 141.264L145.897 143.158C145.756 143.238 145.77 143.373 145.897 143.46L149.658 145.629C149.739 145.67 149.828 145.692 149.919 145.692C150.01 145.692 150.1 145.67 150.181 145.629L153.438 143.749C153.572 143.668 153.565 143.534 153.438 143.447L149.671 141.278C149.592 141.238 149.505 141.217 149.416 141.217C149.327 141.217 149.24 141.238 149.161 141.278V141.264ZM138.639 147.388L133.133 150.564C132.992 150.644 132.999 150.779 133.133 150.866L136.893 153.041C136.975 153.081 137.065 153.102 137.155 153.102C137.246 153.102 137.336 153.081 137.417 153.041L142.923 149.866C143.064 149.785 143.051 149.651 142.923 149.563L139.183 147.388C139.099 147.343 139.006 147.32 138.911 147.32C138.816 147.32 138.723 147.343 138.639 147.388V147.388ZM144.4 144.031L141.144 145.911C141.009 145.991 141.016 146.126 141.144 146.213L144.91 148.388C144.991 148.428 145.079 148.449 145.169 148.449C145.259 148.449 145.347 148.428 145.427 148.388L148.684 146.508C148.818 146.428 148.812 146.293 148.684 146.213L144.917 144.031C144.837 143.989 144.749 143.968 144.659 143.968C144.569 143.968 144.48 143.989 144.4 144.031V144.031ZM131.643 151.417L128.386 153.29C128.252 153.37 128.259 153.505 128.386 153.592L132.153 155.767C132.233 155.809 132.322 155.83 132.412 155.83C132.502 155.83 132.59 155.809 132.67 155.767L135.927 153.887C136.061 153.814 136.054 153.679 135.927 153.592L132.146 151.417C132.066 151.375 131.978 151.354 131.888 151.354C131.798 151.354 131.709 151.375 131.629 151.417H131.643ZM126.882 154.163L123.632 156.043C123.491 156.117 123.498 156.251 123.632 156.338L127.399 158.514C127.48 158.553 127.568 158.574 127.658 158.574C127.747 158.574 127.836 158.553 127.916 158.514L131.173 156.634C131.314 156.553 131.3 156.419 131.173 156.332L127.413 154.156C127.33 154.11 127.236 154.086 127.142 154.085C127.047 154.083 126.953 154.106 126.869 154.149L126.882 154.163ZM141.694 162.999L144.951 161.119C145.085 161.038 145.078 160.904 144.951 160.817L141.184 158.648C141.104 158.607 141.015 158.585 140.925 158.585C140.836 158.585 140.747 158.607 140.667 158.648L137.41 160.528C137.269 160.609 137.283 160.743 137.41 160.83L141.171 162.999C141.251 163.036 141.339 163.054 141.427 163.052C141.516 163.049 141.602 163.027 141.681 162.985L141.694 162.999ZM136.934 165.745L140.19 163.865C140.331 163.785 140.318 163.65 140.19 163.563L136.43 161.394C136.349 161.353 136.259 161.331 136.168 161.331C136.077 161.331 135.988 161.353 135.906 161.394L132.65 163.274C132.516 163.355 132.522 163.489 132.65 163.576L136.417 165.752C136.497 165.786 136.584 165.802 136.671 165.799C136.758 165.795 136.843 165.772 136.92 165.732L136.934 165.745ZM132.173 168.491L135.43 166.611C135.571 166.531 135.564 166.396 135.43 166.316L131.67 164.14C131.59 164.099 131.501 164.078 131.411 164.078C131.321 164.078 131.233 164.099 131.153 164.14L127.896 166.02C127.755 166.101 127.762 166.235 127.896 166.323L131.663 168.498C131.742 168.531 131.828 168.547 131.914 168.543C131.999 168.54 132.084 168.518 132.16 168.478L132.173 168.491ZM127.419 171.237L130.676 169.357C130.81 169.284 130.803 169.149 130.676 169.062L126.876 166.86C126.796 166.818 126.707 166.797 126.617 166.797C126.527 166.797 126.438 166.818 126.359 166.86L123.102 168.733C122.961 168.814 122.974 168.948 123.102 169.035L126.862 171.211C126.945 171.257 127.037 171.283 127.132 171.285C127.227 171.288 127.321 171.267 127.406 171.224L127.419 171.237ZM150.839 151.511L154.096 149.631C154.23 149.55 154.223 149.416 154.096 149.328L150.329 147.153C150.249 147.113 150.16 147.093 150.07 147.093C149.981 147.093 149.892 147.113 149.812 147.153L146.555 149.033C146.421 149.114 146.428 149.248 146.555 149.328L150.322 151.504C150.401 151.54 150.488 151.559 150.575 151.558C150.662 151.556 150.748 151.536 150.826 151.497L150.839 151.511ZM146.448 160.239L153.713 156.043C153.854 155.962 153.841 155.828 153.713 155.747L144.555 150.47C144.473 150.429 144.384 150.407 144.293 150.407C144.202 150.407 144.112 150.429 144.031 150.47L140.278 152.639C140.137 152.719 140.143 152.853 140.278 152.941L145.112 155.734C145.266 155.821 145.273 155.955 145.112 156.029L142.111 157.768C141.97 157.849 141.976 157.983 142.111 158.071L145.877 160.239C145.962 160.288 146.058 160.313 146.156 160.313C146.254 160.313 146.35 160.288 146.435 160.239H146.448ZM122.128 156.882L118.872 158.762C118.731 158.843 118.744 158.977 118.872 159.058L122.632 161.233C122.713 161.274 122.803 161.296 122.894 161.296C122.985 161.296 123.075 161.274 123.156 161.233L126.406 159.353C126.547 159.272 126.54 159.138 126.406 159.051L122.639 156.875C122.556 156.838 122.465 156.82 122.374 156.823C122.284 156.827 122.195 156.852 122.115 156.896L122.128 156.882ZM117.368 159.628L114.111 161.508C113.977 161.589 113.984 161.723 114.111 161.81L117.878 163.979C117.958 164.02 118.047 164.042 118.137 164.042C118.227 164.042 118.315 164.02 118.395 163.979L121.652 162.099C121.786 162.019 121.779 161.884 121.652 161.797L117.885 159.628C117.802 159.587 117.711 159.566 117.618 159.569C117.526 159.571 117.435 159.596 117.354 159.642L117.368 159.628ZM93.5922 190.434C93.6726 190.474 93.761 190.494 93.8507 190.494C93.9403 190.494 94.0288 190.474 94.1092 190.434L97.3657 188.554C97.5067 188.473 97.5 188.339 97.3657 188.259L93.6056 186.083C93.524 186.043 93.4345 186.023 93.3437 186.023C93.253 186.023 93.1634 186.043 93.0819 186.083L89.8321 187.963C89.6911 188.044 89.6978 188.178 89.8321 188.265L93.5922 190.434ZM79.2905 181.631L76.034 183.511C75.8997 183.592 75.9064 183.726 76.034 183.814L79.8007 185.982C79.8807 186.024 79.9693 186.045 80.0593 186.045C80.1492 186.045 80.2378 186.024 80.3178 185.982L83.5742 184.102C83.7085 184.022 83.7018 183.887 83.5742 183.8L79.8075 181.631C79.7275 181.59 79.6389 181.569 79.549 181.569C79.459 181.569 79.3704 181.59 79.2905 181.631V181.631ZM86.9516 188.077C87.032 188.117 87.1205 188.138 87.2101 188.138C87.2998 188.138 87.3882 188.117 87.4686 188.077L90.7251 186.197C90.8594 186.117 90.8527 185.982 90.7251 185.895L86.9583 183.72C86.8784 183.678 86.7898 183.657 86.6998 183.657C86.6099 183.657 86.5212 183.678 86.4413 183.72L83.1848 185.6C83.0505 185.68 83.0572 185.808 83.1848 185.895L86.9516 188.077ZM101.978 192.106L105.235 190.226C105.376 190.152 105.363 190.018 105.235 189.93L101.475 187.755C101.394 187.714 101.304 187.692 101.213 187.692C101.122 187.692 101.032 187.714 100.951 187.755L97.6947 189.628C97.5604 189.709 97.5671 189.843 97.6947 189.93L101.461 192.106C101.541 192.148 101.629 192.171 101.719 192.172C101.809 192.173 101.898 192.153 101.978 192.113V192.106ZM96.7009 194.845C96.7825 194.885 96.8721 194.906 96.9628 194.906C97.0535 194.906 97.1431 194.885 97.2247 194.845L100.474 192.965C100.615 192.885 100.609 192.75 100.474 192.663L96.7077 190.488C96.6277 190.447 96.5391 190.425 96.4491 190.425C96.3592 190.425 96.2706 190.447 96.1906 190.488L92.9207 192.374C92.7797 192.448 92.7864 192.583 92.9207 192.67L96.7009 194.845ZM84.051 178.865L80.7945 180.745C80.6535 180.826 80.6602 180.96 80.7945 181.041L84.5546 183.216C84.6345 183.257 84.7231 183.279 84.8131 183.279C84.903 183.279 84.9916 183.257 85.0716 183.216L88.3281 181.336C88.4691 181.255 88.4623 181.121 88.3281 181.034L84.5613 178.858C84.4807 178.822 84.393 178.804 84.3046 178.806C84.2162 178.809 84.1295 178.831 84.051 178.872V178.865ZM107.84 165.127L104.584 167.007C104.443 167.088 104.456 167.222 104.584 167.31L108.344 169.478C108.425 169.52 108.515 169.541 108.606 169.541C108.697 169.541 108.786 169.52 108.867 169.478L112.124 167.598C112.258 167.518 112.252 167.383 112.124 167.296L108.357 165.127C108.277 165.087 108.188 165.067 108.098 165.068C108.008 165.069 107.92 165.092 107.84 165.134V165.127ZM88.8249 176.126L85.5684 178.006C85.4341 178.086 85.4409 178.221 85.5684 178.301L89.3352 180.477C89.4152 180.518 89.5038 180.539 89.5937 180.539C89.6837 180.539 89.7723 180.518 89.8522 180.477L93.1087 178.597C93.2497 178.516 93.2363 178.382 93.1087 178.294L89.3487 176.119C89.2666 176.08 89.1768 176.061 89.086 176.062C88.9953 176.063 88.906 176.085 88.8249 176.126ZM112.614 162.388L109.364 164.268C109.223 164.349 109.23 164.483 109.364 164.57L113.131 166.739C113.211 166.78 113.3 166.802 113.39 166.802C113.48 166.802 113.568 166.78 113.648 166.739L116.905 164.859C117.046 164.778 117.039 164.644 116.905 164.557L113.145 162.388C113.06 162.342 112.965 162.318 112.869 162.318C112.773 162.318 112.678 162.342 112.594 162.388H112.614ZM103.1 167.88L99.8433 169.76C99.709 169.841 99.7157 169.975 99.8433 170.062L103.597 172.231C103.677 172.271 103.765 172.292 103.855 172.292C103.945 172.292 104.033 172.271 104.114 172.231L107.37 170.351C107.511 170.271 107.498 170.136 107.37 170.056L103.597 167.894C103.518 167.85 103.43 167.827 103.34 167.824C103.25 167.822 103.161 167.841 103.08 167.88H103.1ZM98.346 170.626L95.0895 172.507C94.9485 172.587 94.9552 172.721 95.0895 172.809L98.8563 174.984C98.9362 175.025 99.0248 175.047 99.1148 175.047C99.2047 175.047 99.2934 175.025 99.3733 174.984L102.63 173.104C102.771 173.024 102.764 172.889 102.63 172.809L98.863 170.633C98.7805 170.589 98.6887 170.566 98.5952 170.564C98.5018 170.563 98.4094 170.585 98.3258 170.626H98.346ZM93.5854 173.379L90.329 175.259C90.188 175.333 90.2014 175.468 90.329 175.555L94.089 177.73C94.1701 177.772 94.2599 177.793 94.3509 177.793C94.4419 177.793 94.5316 177.772 94.6128 177.73L97.8693 175.857C98.0035 175.776 97.9968 175.642 97.8693 175.555L94.1025 173.379C94.02 173.335 93.9277 173.311 93.8339 173.311C93.7401 173.311 93.6478 173.335 93.5653 173.379H93.5854ZM117.905 176.737L121.162 174.857C121.303 174.776 121.296 174.642 121.162 174.554L117.395 172.379C117.314 172.339 117.226 172.319 117.136 172.319C117.047 172.319 116.958 172.339 116.878 172.379L113.621 174.259C113.48 174.34 113.487 174.474 113.621 174.554L117.388 176.73C117.466 176.767 117.551 176.785 117.637 176.784C117.723 176.783 117.808 176.762 117.885 176.723L117.905 176.737ZM159.696 135.221L156.439 137.101C156.305 137.182 156.312 137.316 156.439 137.397L160.206 139.572C160.286 139.614 160.374 139.635 160.464 139.635C160.554 139.635 160.643 139.614 160.723 139.572L163.979 137.692C164.12 137.612 164.107 137.477 163.979 137.39L160.219 135.215C160.136 135.171 160.043 135.147 159.948 135.146C159.854 135.145 159.76 135.166 159.675 135.208L159.696 135.221ZM153.935 138.545L150.685 140.425C150.544 140.506 150.551 140.64 150.685 140.727L154.452 142.896C154.532 142.937 154.62 142.959 154.71 142.959C154.8 142.959 154.889 142.937 154.969 142.896L158.225 141.016C158.366 140.935 158.359 140.801 158.225 140.714L154.465 138.545C154.382 138.497 154.288 138.471 154.191 138.468C154.095 138.466 154 138.488 153.915 138.532L153.935 138.545ZM164.456 132.502L161.2 134.382C161.059 134.456 161.072 134.59 161.2 134.678L164.96 136.853C165.041 136.893 165.131 136.913 165.222 136.913C165.312 136.913 165.402 136.893 165.483 136.853L168.74 134.973C168.874 134.892 168.868 134.758 168.74 134.671L164.973 132.495C164.894 132.445 164.803 132.416 164.709 132.41C164.615 132.404 164.521 132.422 164.436 132.462L164.456 132.502ZM139.828 157.896L143.084 156.016C143.218 155.935 143.212 155.801 143.084 155.714L139.317 153.545C139.237 153.504 139.149 153.482 139.059 153.482C138.969 153.482 138.88 153.504 138.8 153.545L135.544 155.425C135.41 155.506 135.416 155.64 135.544 155.727L139.311 157.896C139.391 157.928 139.478 157.941 139.564 157.934C139.65 157.927 139.733 157.9 139.808 157.856L139.828 157.896ZM169.734 129.763C169.653 129.721 169.563 129.7 169.472 129.7C169.381 129.7 169.291 129.721 169.21 129.763L165.96 131.636C165.819 131.716 165.826 131.851 165.96 131.938L169.727 134.113C169.807 134.155 169.896 134.176 169.985 134.176C170.075 134.176 170.164 134.155 170.244 134.113L173.5 132.233C173.641 132.16 173.635 132.025 173.5 131.938L169.734 129.763ZM122.666 174.011L125.922 172.137C126.063 172.057 126.05 171.922 125.922 171.835L122.162 169.66C122.081 169.618 121.991 169.597 121.9 169.597C121.809 169.597 121.719 169.618 121.638 169.66L118.368 171.493C118.234 171.567 118.241 171.701 118.368 171.788L122.135 173.964C122.214 174.005 122.301 174.027 122.389 174.028C122.478 174.029 122.566 174.009 122.645 173.97L122.666 174.011ZM181.014 140.324L184.27 138.444C184.411 138.364 184.398 138.229 184.27 138.149L180.51 135.973C180.429 135.932 180.339 135.911 180.248 135.911C180.157 135.911 180.068 135.932 179.987 135.973L176.737 137.853C176.596 137.934 176.603 138.068 176.737 138.156L180.504 140.331C180.584 140.359 180.669 140.37 180.754 140.362C180.839 140.354 180.92 140.327 180.994 140.284L181.014 140.324ZM170.882 139.968L174.138 138.088C174.273 138.008 174.266 137.874 174.138 137.786L170.372 135.618C170.292 135.576 170.203 135.555 170.113 135.555C170.023 135.555 169.934 135.576 169.855 135.618L166.598 137.498C166.457 137.578 166.47 137.712 166.598 137.8L170.358 139.968C170.44 140 170.527 140.013 170.615 140.006C170.702 139.999 170.786 139.973 170.862 139.928L170.882 139.968ZM175.112 132.871C175.031 132.83 174.941 132.809 174.85 132.809C174.759 132.809 174.669 132.83 174.588 132.871L171.338 134.751C171.197 134.832 171.204 134.966 171.338 135.054L175.105 137.222C175.185 137.263 175.274 137.285 175.364 137.285C175.454 137.285 175.542 137.263 175.622 137.222L178.879 135.342C179.02 135.262 179.013 135.127 178.879 135.04L175.112 132.871ZM176.112 132.287L185.257 137.571C185.338 137.611 185.426 137.632 185.516 137.632C185.606 137.632 185.694 137.611 185.774 137.571L189.031 135.691C189.165 135.611 189.158 135.477 189.031 135.396L179.886 130.112C179.805 130.072 179.717 130.051 179.627 130.051C179.538 130.051 179.449 130.072 179.369 130.112L176.112 131.992C175.938 132.032 175.945 132.166 176.112 132.247V132.287ZM165.074 138.33L161.817 140.21C161.683 140.291 161.69 140.425 161.817 140.512L165.584 142.681C165.664 142.722 165.753 142.744 165.843 142.744C165.933 142.744 166.021 142.722 166.101 142.681L169.358 140.801C169.499 140.72 169.485 140.586 169.358 140.499L165.598 138.33C165.516 138.282 165.423 138.255 165.328 138.252C165.233 138.248 165.139 138.268 165.054 138.31L165.074 138.33ZM129.246 158.984L125.989 160.864C125.848 160.944 125.862 161.079 125.989 161.166L129.749 163.341C129.83 163.383 129.92 163.404 130.011 163.404C130.102 163.404 130.192 163.383 130.273 163.341L133.523 161.461C133.664 161.381 133.657 161.253 133.523 161.166L129.783 158.997C129.701 158.952 129.609 158.927 129.516 158.925C129.422 158.923 129.33 158.943 129.246 158.984ZM175.716 143.024C175.797 143.065 175.887 143.086 175.978 143.086C176.069 143.086 176.159 143.065 176.24 143.024L179.496 141.143C179.631 141.07 179.624 140.935 179.496 140.848L175.709 138.659C175.629 138.619 175.541 138.599 175.451 138.599C175.361 138.599 175.273 138.619 175.192 138.659L171.936 140.539C171.795 140.62 171.808 140.754 171.936 140.841L175.716 143.024ZM134 156.237L130.75 158.118C130.609 158.198 130.615 158.332 130.75 158.42L134.517 160.595C134.597 160.635 134.685 160.655 134.775 160.655C134.865 160.655 134.953 160.635 135.034 160.595L138.29 158.715C138.431 158.635 138.424 158.5 138.29 158.42L134.53 156.244C134.449 156.201 134.358 156.177 134.266 156.176C134.173 156.175 134.082 156.196 134 156.237V156.237ZM98.3393 187.674C98.4197 187.714 98.5081 187.735 98.5978 187.735C98.6874 187.735 98.7759 187.714 98.8563 187.674L102.113 185.794C102.247 185.714 102.24 185.58 102.113 185.499L98.346 183.323C98.266 183.282 98.1774 183.261 98.0875 183.261C97.9975 183.261 97.9089 183.282 97.829 183.323L94.5725 185.204C94.4382 185.284 94.4449 185.418 94.5725 185.506L98.3393 187.674ZM91.1817 180.96L87.9252 182.833C87.7842 182.914 87.7909 183.048 87.9252 183.135L91.6853 185.311C91.7664 185.352 91.8561 185.374 91.9471 185.374C92.0381 185.374 92.1279 185.352 92.209 185.311L95.4588 183.431C95.5998 183.357 95.5931 183.223 95.4588 183.135L91.6987 180.96C91.6188 180.919 91.5301 180.897 91.4402 180.897C91.3503 180.897 91.2616 180.919 91.1817 180.96V180.96ZM103.597 184.989L106.846 183.109C106.987 183.028 106.981 182.894 106.846 182.806L103.08 180.638C103 180.596 102.911 180.575 102.821 180.575C102.731 180.575 102.643 180.596 102.563 180.638L99.3061 182.518C99.1651 182.598 99.1718 182.733 99.3061 182.82L103.066 184.989C103.148 185.031 103.239 185.053 103.331 185.053C103.424 185.053 103.515 185.031 103.597 184.989V184.989ZM108.35 182.242L111.607 180.362C111.748 180.282 111.735 180.148 111.607 180.06L107.847 177.891C107.766 177.85 107.676 177.829 107.585 177.829C107.494 177.829 107.404 177.85 107.323 177.891L104.067 179.772C103.932 179.852 103.939 179.986 104.067 180.074L107.833 182.242C107.918 182.283 108.012 182.302 108.105 182.297C108.199 182.292 108.29 182.264 108.371 182.216L108.35 182.242ZM113.111 179.496L116.367 177.616C116.502 177.536 116.495 177.401 116.367 177.314L112.601 175.139C112.52 175.099 112.432 175.078 112.342 175.078C112.253 175.078 112.164 175.099 112.084 175.139L108.827 177.019C108.686 177.099 108.7 177.233 108.827 177.314L112.587 179.49C112.673 179.531 112.767 179.551 112.862 179.548C112.957 179.544 113.049 179.517 113.131 179.469L113.111 179.496ZM95.9154 178.241L92.6589 180.121C92.5246 180.201 92.5313 180.336 92.6589 180.423L96.4257 182.598C96.5061 182.638 96.5945 182.659 96.6842 182.659C96.7738 182.659 96.8623 182.638 96.9427 182.598L100.199 180.718C100.34 180.638 100.327 180.503 100.199 180.423L96.4391 178.247C96.3627 178.205 96.278 178.181 96.191 178.175C96.104 178.169 96.0168 178.182 95.9355 178.214L95.9154 178.241ZM100.676 175.494L97.4194 177.374C97.2784 177.455 97.2918 177.589 97.4194 177.677L101.179 179.852C101.261 179.892 101.351 179.913 101.441 179.913C101.532 179.913 101.622 179.892 101.703 179.852L104.96 177.972C105.094 177.891 105.087 177.757 104.96 177.677L101.193 175.501C101.118 175.458 101.035 175.432 100.948 175.427C100.862 175.421 100.776 175.435 100.696 175.468L100.676 175.494ZM119.711 164.483L116.461 166.363C116.32 166.443 116.327 166.578 116.461 166.658L120.228 168.834C120.308 168.875 120.397 168.896 120.487 168.896C120.577 168.896 120.665 168.875 120.745 168.834L124.002 166.954C124.143 166.873 124.136 166.739 124.002 166.652L120.242 164.476C120.159 164.436 120.068 164.416 119.976 164.417C119.884 164.419 119.793 164.441 119.711 164.483V164.483ZM114.957 167.229L111.701 169.109C111.56 169.19 111.573 169.324 111.701 169.404L115.461 171.58C115.542 171.621 115.632 171.643 115.723 171.643C115.814 171.643 115.904 171.621 115.985 171.58L119.241 169.7C119.376 169.619 119.369 169.485 119.241 169.398L115.474 167.222C115.395 167.186 115.309 167.167 115.222 167.169C115.135 167.17 115.049 167.19 114.971 167.229H114.957ZM124.472 161.737L121.215 163.617C121.081 163.691 121.088 163.825 121.215 163.912L124.982 166.088C125.062 166.129 125.151 166.15 125.241 166.15C125.331 166.15 125.419 166.129 125.499 166.088L128.756 164.214C128.89 164.134 128.883 163.999 128.756 163.912L124.989 161.737C124.911 161.698 124.824 161.677 124.737 161.677C124.65 161.677 124.563 161.698 124.485 161.737H124.472ZM105.443 172.721L102.187 174.601C102.046 174.682 102.052 174.816 102.187 174.904L105.953 177.072C106.033 177.114 106.122 177.135 106.212 177.135C106.302 177.135 106.39 177.114 106.47 177.072L109.727 175.192C109.868 175.112 109.861 174.977 109.727 174.89L105.96 172.721C105.882 172.682 105.796 172.662 105.708 172.662C105.621 172.662 105.535 172.682 105.457 172.721H105.443ZM110.197 169.975L106.94 171.855C106.806 171.936 106.813 172.07 106.94 172.157L110.707 174.326C110.787 174.367 110.876 174.389 110.966 174.389C111.056 174.389 111.144 174.367 111.224 174.326L114.481 172.446C114.622 172.366 114.608 172.231 114.481 172.144L110.714 169.975C110.636 169.936 110.55 169.916 110.462 169.916C110.375 169.916 110.289 169.936 110.21 169.975H110.197ZM106.726 189.366L109.982 187.486C110.116 187.406 110.11 187.272 109.982 187.191L106.209 184.989C106.129 184.947 106.04 184.926 105.95 184.926C105.86 184.926 105.771 184.947 105.692 184.989L102.435 186.869C102.294 186.949 102.307 187.084 102.435 187.171L106.195 189.346C106.278 189.392 106.37 189.418 106.465 189.422C106.559 189.425 106.653 189.406 106.739 189.366H106.726ZM78.8003 186.546L75.0402 184.378C74.9591 184.336 74.8694 184.315 74.7784 184.315C74.6873 184.315 74.5976 184.336 74.5165 184.378L71.26 186.258C71.1257 186.338 71.1324 186.473 71.26 186.56L75.0268 188.729C75.1067 188.77 75.1954 188.791 75.2853 188.791C75.3752 188.791 75.4639 188.77 75.5438 188.729L78.8003 186.849C78.9749 186.768 78.9614 186.634 78.8137 186.546H78.8003ZM85.931 188.641L82.1709 186.466C82.0894 186.426 81.9998 186.405 81.9091 186.405C81.8183 186.405 81.7288 186.426 81.6472 186.466L76.6383 189.353C76.504 189.434 76.5107 189.568 76.6383 189.655L80.4051 191.831C80.485 191.872 80.5736 191.893 80.6636 191.893C80.7535 191.893 80.8421 191.872 80.9221 191.831L85.931 188.943C86.1392 188.863 86.0922 188.729 85.9444 188.641H85.931ZM73.0259 182.35L69.2658 180.174C69.1847 180.133 69.095 180.112 69.004 180.112C68.913 180.112 68.8232 180.133 68.7421 180.174L64.7134 182.491C64.5792 182.571 64.5859 182.706 64.7134 182.786L68.4802 184.962C68.5602 185.003 68.6488 185.025 68.7387 185.025C68.8287 185.025 68.9173 185.003 68.9973 184.962L73.0259 182.645C73.2005 182.565 73.1871 182.43 73.0393 182.35H73.0259ZM76.1011 180.571C76.181 180.612 76.2697 180.633 76.3596 180.633C76.4495 180.633 76.5382 180.612 76.6181 180.571L79.8746 178.691C80.0089 178.61 80.0022 178.476 79.8746 178.388L76.1011 176.26C76.0212 176.219 75.9325 176.197 75.8426 176.197C75.7527 176.197 75.664 176.219 75.5841 176.26L72.3276 178.14C72.1933 178.22 72.2 178.355 72.3276 178.442L76.1011 180.571ZM92.5783 191.032L88.8249 188.849C88.745 188.808 88.6564 188.787 88.5664 188.787C88.4765 188.787 88.3879 188.808 88.3079 188.849L82.0434 192.462C81.9091 192.542 81.9158 192.677 82.0434 192.764L85.8102 194.933C85.8901 194.974 85.9787 194.995 86.0687 194.995C86.1586 194.995 86.2472 194.974 86.3272 194.933L92.585 191.32C92.7327 191.246 92.726 191.112 92.5783 191.032ZM95.7005 195.436L91.9337 193.261C91.8533 193.221 91.7649 193.2 91.6752 193.2C91.5855 193.2 91.4971 193.221 91.4167 193.261L87.388 195.571C87.2538 195.651 87.2605 195.785 87.388 195.873L91.1548 198.048C91.2352 198.088 91.3237 198.108 91.4133 198.108C91.503 198.108 91.5914 198.088 91.6718 198.048L95.7005 195.738C95.8549 195.651 95.8482 195.517 95.7005 195.43V195.436ZM111.486 160.145C111.568 160.185 111.657 160.206 111.748 160.206C111.839 160.206 111.928 160.185 112.01 160.145L115.266 158.265C115.401 158.185 115.394 158.05 115.266 157.97L111.5 155.794C111.42 155.753 111.331 155.732 111.241 155.732C111.151 155.732 111.062 155.753 110.983 155.794L107.726 157.674C107.585 157.755 107.598 157.889 107.726 157.977L111.486 160.145ZM101.972 165.638C102.053 165.679 102.143 165.7 102.234 165.7C102.325 165.7 102.414 165.679 102.495 165.638L105.745 163.758C105.886 163.684 105.88 163.549 105.745 163.462L101.978 161.287C101.898 161.247 101.81 161.226 101.72 161.226C101.63 161.226 101.542 161.247 101.461 161.287L98.2251 163.167C98.0841 163.247 98.0908 163.382 98.2251 163.469L101.972 165.638ZM80.8683 177.818C80.9495 177.859 81.0392 177.88 81.1302 177.88C81.2212 177.88 81.3109 177.859 81.3921 177.818L84.6418 175.938C84.7829 175.857 84.7761 175.723 84.6418 175.635L80.8751 173.467C80.7951 173.425 80.7065 173.404 80.6165 173.404C80.5266 173.404 80.438 173.425 80.358 173.467L77.1015 175.347C76.9605 175.427 76.974 175.562 77.1015 175.649L80.8683 177.818ZM106.732 162.891C106.813 162.931 106.901 162.952 106.991 162.952C107.08 162.952 107.169 162.931 107.249 162.891L110.506 161.011C110.647 160.931 110.633 160.797 110.506 160.716L106.746 158.541C106.665 158.499 106.575 158.478 106.484 158.478C106.393 158.478 106.303 158.499 106.222 158.541L102.965 160.421C102.831 160.501 102.838 160.635 102.965 160.723L106.732 162.891ZM97.218 168.384C97.2979 168.425 97.3865 168.447 97.4765 168.447C97.5664 168.447 97.655 168.425 97.735 168.384L100.991 166.511C101.126 166.43 101.119 166.296 100.991 166.208L97.2247 164.033C97.1447 163.992 97.0561 163.97 96.9662 163.97C96.8762 163.97 96.7876 163.992 96.7077 164.033L93.4512 165.913C93.3169 165.987 93.3236 166.121 93.4512 166.208L97.218 168.384ZM98.3191 195.779C98.238 195.737 98.1483 195.716 98.0573 195.716C97.9662 195.716 97.8765 195.737 97.7954 195.779L92.7864 198.673C92.6521 198.753 92.6589 198.887 92.7864 198.968L96.5532 201.144C96.6332 201.185 96.7218 201.206 96.8117 201.206C96.9017 201.206 96.9903 201.185 97.0702 201.144L102.079 198.25C102.213 198.169 102.207 198.035 102.079 197.947L98.3191 195.779ZM90.3894 172.325C90.4698 172.365 90.5582 172.386 90.6479 172.386C90.7375 172.386 90.826 172.365 90.9064 172.325L94.1629 170.445C94.2972 170.365 94.2905 170.23 94.1629 170.143L90.3961 167.968C90.3157 167.928 90.2273 167.907 90.1376 167.907C90.0479 167.907 89.9595 167.928 89.8791 167.968L86.6226 169.848C86.4883 169.928 86.495 170.062 86.6226 170.143L90.3894 172.325ZM85.6289 175.071C85.7088 175.113 85.7974 175.134 85.8874 175.134C85.9773 175.134 86.0659 175.113 86.1459 175.071L89.4024 173.191C89.5434 173.111 89.5367 172.977 89.4024 172.889L85.6423 170.714C85.5607 170.674 85.4712 170.653 85.3804 170.653C85.2897 170.653 85.2001 170.674 85.1186 170.714L81.8688 172.594C81.7278 172.674 81.7345 172.809 81.8688 172.889L85.6289 175.071ZM186.466 144.857C186.386 144.815 186.297 144.794 186.207 144.794C186.118 144.794 186.029 144.815 185.949 144.857L177.932 149.483C177.798 149.563 177.804 149.698 177.932 149.785L181.699 151.96C181.779 152 181.868 152.021 181.957 152.021C182.047 152.021 182.135 152 182.216 151.96L190.246 147.388C190.387 147.307 190.38 147.173 190.246 147.092L186.466 144.857ZM175.945 150.9C175.864 150.86 175.776 150.839 175.686 150.839C175.596 150.839 175.508 150.86 175.428 150.9L172.171 152.78C172.037 152.86 172.043 152.994 172.171 153.075L175.938 155.25C176.018 155.29 176.107 155.311 176.196 155.311C176.286 155.311 176.374 155.29 176.455 155.25L179.711 153.37C179.846 153.29 179.839 153.156 179.711 153.068L175.945 150.9ZM111.486 186.56L114.743 184.68C114.884 184.599 114.877 184.465 114.743 184.384L110.983 182.303C110.903 182.262 110.814 182.24 110.724 182.24C110.634 182.24 110.545 182.262 110.465 182.303L107.209 184.183C107.068 184.263 107.075 184.398 107.209 184.485L110.976 186.661C111.059 186.694 111.149 186.708 111.239 186.701C111.329 186.694 111.416 186.666 111.493 186.62L111.486 186.56ZM166.423 156.399C166.344 156.357 166.255 156.336 166.165 156.336C166.075 156.336 165.986 156.357 165.906 156.399L162.65 158.279C162.509 158.359 162.522 158.494 162.65 158.581L166.41 160.75C166.491 160.791 166.581 160.812 166.672 160.812C166.763 160.812 166.853 160.791 166.934 160.75L170.19 158.87C170.325 158.789 170.318 158.655 170.19 158.567L166.423 156.399ZM191.22 142.084C191.139 142.042 191.049 142.021 190.958 142.021C190.867 142.021 190.777 142.042 190.696 142.084L187.44 143.964C187.305 144.044 187.312 144.178 187.44 144.266L191.206 146.434C191.286 146.476 191.375 146.497 191.465 146.497C191.555 146.497 191.643 146.476 191.723 146.434L194.98 144.554C195.121 144.474 195.107 144.34 194.98 144.252L191.22 142.084ZM199.74 141.506L190.595 136.229C190.515 136.187 190.427 136.166 190.337 136.166C190.247 136.166 190.158 136.187 190.078 136.229L186.822 138.109C186.681 138.182 186.694 138.317 186.822 138.404L195.96 143.682C196.041 143.723 196.131 143.744 196.222 143.744C196.313 143.744 196.403 143.723 196.484 143.682L199.74 141.801C199.902 141.788 199.895 141.654 199.747 141.566L199.74 141.506ZM148.644 166.658C148.563 166.619 148.475 166.598 148.385 166.598C148.296 166.598 148.207 166.619 148.127 166.658L144.098 168.968C143.957 169.049 143.97 169.183 144.098 169.27L147.858 171.446C147.94 171.485 148.029 171.506 148.12 171.506C148.211 171.506 148.3 171.485 148.382 171.446L152.41 169.136C152.545 169.055 152.538 168.921 152.41 168.834L148.644 166.658ZM160.669 159.783C160.589 159.741 160.501 159.72 160.411 159.72C160.321 159.72 160.232 159.741 160.152 159.783L155.143 162.677C155.009 162.757 155.016 162.891 155.143 162.979L158.91 165.148C158.99 165.189 159.079 165.21 159.169 165.21C159.258 165.21 159.347 165.189 159.427 165.148L164.436 162.254C164.57 162.173 164.564 162.039 164.436 161.958L160.669 159.783ZM137.632 173.084C137.552 173.043 137.463 173.021 137.374 173.021C137.284 173.021 137.195 173.043 137.115 173.084L110.318 188.527C110.177 188.608 110.19 188.742 110.318 188.829L114.078 191.005C114.159 191.045 114.249 191.065 114.34 191.065C114.43 191.065 114.52 191.045 114.602 191.005L141.392 175.562C141.533 175.481 141.526 175.347 141.392 175.266L137.632 173.084ZM109.337 189.42C109.256 189.379 109.167 189.357 109.076 189.357C108.985 189.357 108.895 189.379 108.814 189.42L104.785 191.73C104.651 191.81 104.658 191.945 104.785 192.032L108.552 194.201C108.632 194.242 108.72 194.264 108.81 194.264C108.9 194.264 108.989 194.242 109.069 194.201L113.098 191.884C113.239 191.81 113.225 191.676 113.098 191.589L109.337 189.42ZM143.145 169.901C143.063 169.86 142.974 169.839 142.883 169.839C142.792 169.839 142.702 169.86 142.621 169.901L138.592 172.211C138.451 172.292 138.458 172.426 138.592 172.513L142.359 174.682C142.439 174.723 142.528 174.745 142.617 174.745C142.707 174.745 142.796 174.723 142.876 174.682L146.905 172.366C147.046 172.292 147.032 172.157 146.905 172.07L143.145 169.901ZM103.825 192.603C103.745 192.562 103.656 192.54 103.566 192.54C103.476 192.54 103.388 192.562 103.308 192.603L99.2793 194.919C99.1383 195 99.1517 195.134 99.2793 195.221L103.039 197.39C103.12 197.431 103.21 197.453 103.301 197.453C103.392 197.453 103.482 197.431 103.563 197.39L107.592 195.074C107.733 194.993 107.726 194.859 107.592 194.778L103.825 192.603ZM154.183 163.543C154.102 163.502 154.012 163.48 153.921 163.48C153.83 163.48 153.74 163.502 153.659 163.543L149.631 165.859C149.49 165.94 149.496 166.074 149.631 166.155L153.397 168.33C153.478 168.37 153.566 168.39 153.656 168.39C153.746 168.39 153.834 168.37 153.915 168.33L157.943 166.014C158.084 165.933 158.071 165.799 157.943 165.712L154.183 163.543ZM171.211 153.706C171.129 153.666 171.04 153.646 170.949 153.646C170.858 153.646 170.769 153.666 170.687 153.706L167.437 155.586C167.296 155.667 167.303 155.801 167.437 155.882L171.204 158.057C171.284 158.098 171.373 158.12 171.463 158.12C171.553 158.12 171.641 158.098 171.721 158.057L174.978 156.177C175.119 156.096 175.112 155.962 174.978 155.875L171.211 153.706ZM181.638 146.139L184.888 144.259C185.029 144.178 185.022 144.044 184.888 143.957L181.121 141.788C181.041 141.747 180.953 141.725 180.863 141.725C180.773 141.725 180.684 141.747 180.604 141.788L177.348 143.668C177.207 143.749 177.214 143.883 177.348 143.97L181.108 146.139C181.187 146.178 181.275 146.198 181.363 146.198C181.452 146.198 181.539 146.178 181.618 146.139H181.638ZM160.36 145.998L163.617 144.118C163.758 144.044 163.744 143.91 163.617 143.823L159.857 141.647C159.775 141.607 159.686 141.587 159.595 141.587C159.504 141.587 159.415 141.607 159.333 141.647L156.077 143.527C155.942 143.608 155.949 143.742 156.077 143.829L159.843 146.005C159.921 146.042 160.006 146.06 160.093 146.059C160.179 146.058 160.263 146.037 160.34 145.998H160.36ZM149.617 164.644L159.132 159.152C159.266 159.071 159.259 158.937 159.132 158.849L155.298 156.674C155.217 156.634 155.129 156.614 155.039 156.614C154.95 156.614 154.861 156.634 154.781 156.674L145.26 162.16C145.119 162.24 145.125 162.374 145.26 162.462L149.02 164.631C149.102 164.677 149.195 164.703 149.29 164.705C149.385 164.708 149.479 164.687 149.564 164.644H149.617ZM176.394 148.872C176.474 148.913 176.563 148.935 176.653 148.935C176.743 148.935 176.831 148.913 176.911 148.872L180.168 146.992C180.302 146.911 180.295 146.777 180.168 146.69L176.401 144.521C176.321 144.48 176.233 144.458 176.143 144.458C176.053 144.458 175.964 144.48 175.884 144.521L172.628 146.401C172.493 146.481 172.5 146.616 172.628 146.703L176.394 148.872ZM171.533 145.783L174.79 143.903C174.924 143.823 174.917 143.688 174.79 143.601L171.023 141.425C170.943 141.384 170.854 141.363 170.764 141.363C170.674 141.363 170.586 141.384 170.506 141.425L167.249 143.306C167.115 143.379 167.122 143.514 167.249 143.601L171.016 145.776C171.089 145.809 171.167 145.827 171.247 145.828C171.327 145.829 171.406 145.814 171.479 145.783H171.533ZM144.857 167.39L148.113 165.51C148.248 165.43 148.241 165.295 148.113 165.215L144.346 163.039C144.267 162.998 144.178 162.976 144.088 162.976C143.998 162.976 143.909 162.998 143.829 163.039L140.573 164.919C140.439 165 140.445 165.134 140.573 165.221L144.34 167.397C144.413 167.427 144.492 167.443 144.572 167.441C144.652 167.44 144.73 167.423 144.803 167.39H144.857ZM165.873 154.948C165.953 154.99 166.041 155.011 166.131 155.011C166.221 155.011 166.31 154.99 166.39 154.948L169.646 153.068C169.787 152.988 169.781 152.853 169.646 152.773L165.88 150.597C165.799 150.558 165.711 150.537 165.621 150.537C165.531 150.537 165.443 150.558 165.363 150.597L162.106 152.477C161.965 152.558 161.972 152.692 162.106 152.78L165.873 154.948ZM121.068 181.135L124.324 179.255C124.458 179.174 124.452 179.04 124.324 178.952L120.557 176.784C120.477 176.742 120.389 176.721 120.299 176.721C120.209 176.721 120.12 176.742 120.04 176.784L116.784 178.664C116.643 178.744 116.656 178.879 116.784 178.966L120.544 181.135C120.618 181.166 120.699 181.182 120.78 181.181C120.861 181.18 120.94 181.162 121.014 181.128L121.068 181.135ZM125.821 178.388L129.078 176.508C129.219 176.428 129.212 176.293 129.078 176.206L125.318 174.031C125.237 173.991 125.149 173.97 125.059 173.97C124.97 173.97 124.881 173.991 124.801 174.031L121.544 175.911C121.403 175.991 121.41 176.126 121.544 176.206L125.311 178.382C125.381 178.412 125.456 178.427 125.533 178.427C125.609 178.427 125.684 178.412 125.754 178.382L125.821 178.388ZM116.307 183.881L119.564 182.001C119.705 181.92 119.691 181.786 119.564 181.699L115.803 179.53C115.722 179.489 115.633 179.467 115.542 179.467C115.451 179.467 115.361 179.489 115.28 179.53L112.023 181.41C111.889 181.49 111.896 181.625 112.023 181.712L115.79 183.881C115.863 183.913 115.943 183.928 116.022 183.927C116.102 183.926 116.181 183.908 116.253 183.874L116.307 183.881ZM135.289 172.903L138.538 171.029C138.679 170.949 138.673 170.815 138.538 170.727L134.772 168.552C134.692 168.511 134.603 168.489 134.513 168.489C134.423 168.489 134.335 168.511 134.255 168.552L130.998 170.432C130.857 170.506 130.871 170.64 130.998 170.727L134.758 172.903C134.84 172.945 134.931 172.967 135.023 172.967C135.116 172.967 135.207 172.945 135.289 172.903ZM130.528 175.656L133.785 173.776C133.919 173.695 133.912 173.561 133.785 173.473L130.018 171.298C129.937 171.258 129.849 171.238 129.759 171.238C129.67 171.238 129.581 171.258 129.501 171.298L126.244 173.178C126.11 173.259 126.117 173.393 126.244 173.473L130.011 175.649C130.093 175.686 130.182 175.705 130.271 175.703C130.361 175.7 130.449 175.677 130.528 175.635V175.656ZM140.043 170.156L143.299 168.276C143.44 168.196 143.427 168.062 143.299 167.981L139.539 165.806C139.457 165.766 139.368 165.745 139.277 165.745C139.186 165.745 139.097 165.766 139.015 165.806L135.765 167.686C135.624 167.766 135.631 167.9 135.765 167.988L139.532 170.163C139.614 170.198 139.702 170.213 139.79 170.209C139.879 170.204 139.965 170.179 140.043 170.136V170.156ZM161.811 129.521C161.892 129.562 161.981 129.584 162.073 129.584C162.164 129.584 162.253 129.562 162.334 129.521L165.591 127.641C165.725 127.567 165.718 127.433 165.591 127.345L164.59 126.768C164.509 126.727 164.42 126.705 164.329 126.705C164.238 126.705 164.148 126.727 164.067 126.768L160.81 128.648C160.676 128.729 160.683 128.863 160.81 128.95L161.811 129.521ZM138.404 144.628C138.484 144.669 138.573 144.691 138.663 144.691C138.753 144.691 138.841 144.669 138.921 144.628L142.178 142.748C142.312 142.668 142.305 142.533 142.178 142.446L138.411 140.277C138.331 140.236 138.242 140.215 138.152 140.215C138.062 140.215 137.974 140.236 137.894 140.277L134.637 142.157C134.503 142.238 134.51 142.372 134.637 142.46L138.404 144.628ZM147.912 139.116C147.992 139.157 148.08 139.178 148.17 139.178C148.26 139.178 148.349 139.157 148.429 139.116L151.685 137.236C151.826 137.155 151.813 137.021 151.685 136.934L147.925 134.758C147.844 134.718 147.754 134.698 147.663 134.698C147.573 134.698 147.483 134.718 147.402 134.758L144.145 136.638C144.011 136.719 144.017 136.853 144.145 136.934L147.912 139.116ZM132.583 147.965C132.664 148.005 132.754 148.026 132.845 148.026C132.935 148.026 133.025 148.005 133.107 147.965L136.363 146.085C136.497 146.005 136.491 145.87 136.363 145.783L132.596 143.608C132.516 143.568 132.427 143.547 132.338 143.547C132.248 143.547 132.16 143.568 132.079 143.608L128.823 145.488C128.682 145.562 128.695 145.696 128.823 145.783L132.583 147.965ZM143.151 141.862C143.232 141.903 143.322 141.925 143.413 141.925C143.504 141.925 143.594 141.903 143.675 141.862L146.925 139.982C147.066 139.901 147.059 139.767 146.925 139.68L143.158 137.511C143.078 137.47 142.989 137.448 142.899 137.448C142.81 137.448 142.721 137.47 142.641 137.511L139.384 139.391C139.243 139.472 139.25 139.606 139.384 139.693L143.151 141.862ZM123.068 153.431C123.148 153.472 123.237 153.494 123.327 153.494C123.417 153.494 123.506 153.472 123.585 153.431L126.842 151.551C126.983 151.47 126.976 151.336 126.842 151.249L123.068 149.12C122.989 149.079 122.9 149.057 122.81 149.057C122.72 149.057 122.631 149.079 122.551 149.12L119.295 151C119.154 151.081 119.161 151.215 119.295 151.302L123.068 153.431ZM127.836 150.745C127.916 150.786 128.004 150.808 128.094 150.808C128.184 150.808 128.273 150.786 128.353 150.745L131.609 148.865C131.75 148.784 131.737 148.65 131.609 148.563L127.842 146.387C127.762 146.348 127.674 146.327 127.584 146.327C127.494 146.327 127.406 146.348 127.325 146.387L124.069 148.267C123.935 148.348 123.941 148.482 124.069 148.563L127.836 150.745ZM152.296 135.027C152.376 135.068 152.465 135.089 152.555 135.089C152.645 135.089 152.733 135.068 152.813 135.027L156.07 133.147C156.211 133.066 156.204 132.932 156.07 132.844L155.069 132.267C154.989 132.226 154.901 132.204 154.811 132.204C154.721 132.204 154.632 132.226 154.552 132.267L151.296 134.147C151.155 134.228 151.168 134.362 151.296 134.449L152.296 135.027ZM166.571 126.788C166.652 126.828 166.74 126.848 166.83 126.848C166.919 126.848 167.008 126.828 167.088 126.788L170.345 124.908C170.486 124.827 170.479 124.693 170.345 124.613L169.344 124.035C169.264 123.994 169.176 123.972 169.086 123.972C168.996 123.972 168.907 123.994 168.827 124.035L165.571 125.915C165.43 125.996 165.443 126.13 165.571 126.217L166.571 126.788ZM174.481 131.354C174.561 131.394 174.65 131.414 174.739 131.414C174.829 131.414 174.917 131.394 174.998 131.354L178.254 129.474C178.395 129.393 178.382 129.259 178.254 129.178L174.487 127.003C174.408 126.962 174.319 126.94 174.229 126.94C174.139 126.94 174.05 126.962 173.97 127.003L170.714 128.883C170.58 128.964 170.586 129.098 170.714 129.185L174.481 131.354ZM186.372 143.44L189.628 141.56C189.769 141.479 189.756 141.345 189.628 141.258L185.868 139.082C185.787 139.042 185.697 139.022 185.607 139.022C185.516 139.022 185.426 139.042 185.345 139.082L182.088 140.962C181.954 141.043 181.961 141.177 182.088 141.258L185.855 143.433C185.938 143.468 186.028 143.483 186.118 143.476C186.208 143.469 186.295 143.44 186.372 143.393V143.44ZM157.057 132.294C157.137 132.334 157.226 132.354 157.315 132.354C157.405 132.354 157.493 132.334 157.574 132.294L160.83 130.414C160.965 130.333 160.958 130.199 160.83 130.112L159.83 129.534C159.75 129.493 159.661 129.472 159.571 129.472C159.481 129.472 159.393 129.493 159.313 129.534L156.056 131.414C155.915 131.495 155.922 131.629 156.056 131.716L157.057 132.294ZM118.315 156.251C118.396 156.292 118.485 156.314 118.577 156.314C118.668 156.314 118.757 156.292 118.838 156.251L122.095 154.371C122.229 154.29 122.222 154.156 122.095 154.069L118.328 151.9C118.248 151.859 118.16 151.837 118.07 151.837C117.98 151.837 117.891 151.859 117.811 151.9L114.555 153.78C114.414 153.861 114.427 153.995 114.555 154.082L118.315 156.251Z" fill="#455A64"/>
<path d="M139.418 184.767L171.547 166.188C172.09 165.913 172.69 165.77 173.299 165.77C173.908 165.77 174.508 165.913 175.052 166.188L193.476 176.824C194.443 177.388 194.443 178.294 193.476 178.838L161.341 197.424C160.798 197.702 160.198 197.847 159.588 197.847C158.979 197.847 158.378 197.702 157.836 197.424L139.411 186.788C138.451 186.231 138.451 185.324 139.418 184.767Z" fill="#263238"/>
<path d="M146.441 21.3046V26.2129L73.3146 68.4331C72.811 68.7219 72.4014 68.4868 72.4014 67.9027L72.4551 66.1435C72.0192 65.9696 71.5702 65.8304 71.1123 65.7272L49.2098 78.3705C48.9431 78.5457 48.721 78.7808 48.5613 79.0571C48.4016 79.3334 48.3087 79.6432 48.29 79.9618V81.815C48.2746 82.1336 48.1838 82.444 48.0251 82.7206C47.8663 82.9973 47.6441 83.2323 47.3768 83.4063L44.8522 84.8633V79.9618C44.8675 79.6432 44.9583 79.3328 45.1171 79.0561C45.2758 78.7795 45.498 78.5445 45.7653 78.3705L145.528 20.7742C146.032 20.4855 146.441 20.7205 146.441 21.3046Z" fill="#220970"/>
<path d="M146.448 94.8007C146.431 95.1187 146.339 95.4282 146.179 95.7036C146.019 95.9791 145.796 96.2127 145.528 96.3853L45.7653 153.982C45.2618 154.277 44.8522 154.035 44.8522 153.451V84.8633L47.3768 83.4063C47.8804 83.1176 48.7197 78.6659 49.2098 78.3705L71.1123 65.7273C71.6158 65.4385 72.811 68.7219 73.3146 68.413L146.441 26.2129V94.8007H146.448Z" fill="#EBEBEB"/>
<path d="M49.2099 103.664L93.0281 78.3435C93.5317 78.0481 93.9413 78.2898 93.9413 78.874V121.94C93.926 122.259 93.8352 122.569 93.6764 122.846C93.5177 123.123 93.2955 123.358 93.0281 123.532L49.2099 148.852C48.7063 149.14 48.2967 148.905 48.2967 148.321V105.255C48.312 104.936 48.4028 104.626 48.5616 104.349C48.7203 104.073 48.9425 103.838 49.2099 103.664V103.664Z" fill="#FAFAFA"/>
<path d="M49.2099 92.2894L142.09 38.668C142.594 38.3726 143.004 38.6143 143.004 39.1984V45.651C142.987 45.9684 142.896 46.2775 142.737 46.5529C142.578 46.8283 142.357 47.0623 142.09 47.2356L49.2099 100.864C48.7063 101.152 48.2967 100.917 48.2967 100.333V93.8807C48.312 93.5621 48.4028 93.2517 48.5616 92.975C48.7203 92.6983 48.9425 92.4634 49.2099 92.2894V92.2894Z" fill="#455A64"/>
<path d="M108.565 63.1354V64.8409C108.565 65.1967 108.814 65.3377 109.116 65.1631L136.115 49.5723V46.5911L109.116 62.182C108.956 62.2867 108.823 62.4276 108.727 62.5931C108.632 62.7587 108.576 62.9445 108.565 63.1354V63.1354Z" fill="#FAFAFA"/>
<path d="M139.008 44.9192C139.317 44.7447 139.559 44.9192 139.559 45.2348V46.947C139.549 47.1382 139.494 47.3243 139.399 47.4901C139.303 47.6558 139.169 47.7965 139.008 47.9004L136.115 49.5723V46.5911L139.008 44.9192Z" fill="#220970"/>
<path d="M138.8 47.2626L138.471 47.1619C138.506 47.0258 138.524 46.886 138.525 46.7456C138.537 46.6178 138.516 46.4889 138.465 46.3714C138.413 46.2539 138.332 46.1515 138.23 46.0742C138.159 46.0315 138.077 46.009 137.995 46.009C137.912 46.009 137.831 46.0315 137.76 46.0742C137.549 46.2287 137.378 46.431 137.262 46.6645C137.145 46.898 137.085 47.156 137.088 47.417C137.077 47.5447 137.099 47.6731 137.15 47.7905C137.202 47.9078 137.282 48.0102 137.384 48.0885C137.447 48.1235 137.519 48.1419 137.592 48.1422C137.685 48.1394 137.775 48.1115 137.854 48.0616C138.095 47.8988 138.278 47.6637 138.377 47.3902L138.7 47.4909H138.733C138.758 47.492 138.783 47.4847 138.804 47.4701C138.825 47.4555 138.84 47.4345 138.847 47.4103C138.858 47.3841 138.859 47.3549 138.851 47.3279C138.842 47.3009 138.824 47.2778 138.8 47.2626V47.2626ZM137.76 47.8803C137.725 47.9011 137.686 47.912 137.645 47.912C137.605 47.912 137.566 47.9011 137.531 47.8803C137.466 47.8193 137.416 47.7437 137.386 47.6597C137.355 47.5756 137.345 47.4855 137.357 47.3969C137.354 47.1807 137.399 46.9666 137.49 46.7702C137.581 46.5739 137.714 46.4003 137.88 46.2622C137.925 46.2354 137.976 46.2193 138.028 46.2152C138.054 46.2054 138.083 46.2054 138.109 46.2152C138.223 46.2756 138.283 46.4569 138.283 46.6919C138.298 46.9175 138.258 47.1432 138.166 47.35C138.075 47.5568 137.936 47.7387 137.76 47.8803V47.8803Z" fill="#FAFAFA"/>
<path d="M146.441 26.2129V32.182L44.8522 90.8325V84.8633L46.7389 83.7756C47.2425 83.4802 47.4104 83.037 47.6521 82.1843L48.29 79.9618C48.327 79.6479 48.4277 79.3449 48.5858 79.0713C48.744 78.7977 48.9563 78.5592 49.2098 78.3705L71.1123 65.7272C71.2098 65.6404 71.327 65.5785 71.4537 65.547C71.5804 65.5155 71.7129 65.5152 71.8398 65.5463C71.9666 65.5773 72.084 65.6387 72.1819 65.7252C72.2797 65.8117 72.3551 65.9207 72.4014 66.0428L73.187 67.4663C73.4757 67.9631 73.6167 68.2586 74.1203 67.9632L146.441 26.2129Z" fill="#E6E6E6"/>
<path d="M142.144 24.3866C142.816 24.0173 143.299 24.3127 143.299 25.058C143.28 25.4612 143.165 25.854 142.964 26.2042C142.763 26.5544 142.482 26.8519 142.144 27.0724C141.473 27.4417 140.982 27.1395 140.982 26.4009C141.001 25.9968 141.116 25.603 141.318 25.2525C141.52 24.902 141.804 24.6051 142.144 24.3866V24.3866Z" fill="#455A64"/>
<path d="M137.981 26.7836C138.619 26.4143 139.136 26.7097 139.136 27.455C139.117 27.8582 139.002 28.251 138.801 28.6012C138.6 28.9513 138.319 29.2489 137.981 29.4693C137.31 29.8386 136.826 29.5365 136.826 28.7979C136.845 28.3946 136.96 28.0016 137.161 27.6513C137.361 27.3011 137.643 27.0036 137.981 26.7836V26.7836Z" fill="#455A64"/>
<path d="M133.811 29.2142C134.449 28.8449 134.966 29.1404 134.966 29.8857C134.947 30.2889 134.832 30.6817 134.631 31.0318C134.431 31.382 134.15 31.6795 133.811 31.9C133.14 32.2693 132.657 31.9672 132.657 31.2286C132.676 30.8253 132.79 30.4323 132.991 30.082C133.192 29.7318 133.473 29.4343 133.811 29.2142V29.2142Z" fill="#455A64"/>
<path opacity="0.5" d="M54.9909 80.4519C54.9909 80.3646 54.9037 80.378 54.8701 80.4519L54.6687 80.9353C54.3329 80.895 53.9234 81.2241 53.6481 81.8082C53.2922 82.5669 53.2922 83.46 53.6481 83.8225C53.7374 83.907 53.8537 83.9574 53.9765 83.9647C54.0992 83.9721 54.2207 83.936 54.3195 83.8628C54.6161 83.6731 54.8498 83.3998 54.9909 83.0772C55.0379 82.9765 55.0379 82.8624 54.9909 82.8221C54.9439 82.7818 54.8701 82.8221 54.8298 82.9161C54.5612 83.4801 54.1584 83.7285 53.8629 83.4734C53.7279 83.2495 53.6566 82.9929 53.6566 82.7314C53.6566 82.47 53.7279 82.2134 53.8629 81.9895C54.0509 81.5866 54.3262 81.3181 54.5344 81.3181L54.3866 81.6806C54.3464 81.7746 54.3866 81.8686 54.4404 81.8283L55.0312 81.4456C55.0538 81.4255 55.0715 81.4006 55.0832 81.3727C55.0948 81.3448 55.1 81.3147 55.0984 81.2845L54.9909 80.4519Z" fill="#455A64"/>
<path opacity="0.5" d="M70.4744 68.4533L71.0048 67.3387C71.0349 67.2866 71.0507 67.2276 71.0507 67.1674C71.0507 67.1073 71.0349 67.0483 71.0048 66.9962C70.9377 66.9358 70.837 66.9962 70.7766 67.1238L70.2528 68.2384L69.7291 67.7281C69.662 67.6744 69.568 67.7281 69.5008 67.8624C69.4708 67.9144 69.4549 67.9735 69.4549 68.0336C69.4549 68.0937 69.4708 68.1528 69.5008 68.2048L70.0245 68.7151L69.5008 69.823C69.4702 69.8761 69.454 69.9363 69.454 69.9976C69.454 70.0589 69.4702 70.1191 69.5008 70.1722C69.5176 70.1837 69.5375 70.1899 69.5579 70.1899C69.5783 70.1899 69.5982 70.1837 69.615 70.1722C69.6643 70.1356 69.7036 70.0871 69.7291 70.0311L70.2528 68.9233L70.7766 69.4269C70.784 69.4344 70.7929 69.4403 70.8027 69.4444C70.8125 69.4485 70.823 69.4505 70.8336 69.4505C70.8442 69.4505 70.8547 69.4485 70.8645 69.4444C70.8743 69.4403 70.8832 69.4344 70.8907 69.4269C70.9415 69.3947 70.9814 69.3479 71.0048 69.2926C71.0355 69.2395 71.0516 69.1793 71.0516 69.118C71.0516 69.0567 71.0355 68.9965 71.0048 68.9434L70.4744 68.4533Z" fill="#455A64"/>
<path d="M56.9045 81.8216V79.9617C56.9199 79.6431 57.0107 79.3327 57.1694 79.056C57.3282 78.7794 57.5504 78.5444 57.8177 78.3704L140.365 30.7383C140.868 30.4496 141.278 30.6846 141.278 31.2687V33.1286C141.263 33.4472 141.172 33.7576 141.013 34.0343C140.854 34.3109 140.632 34.5459 140.365 34.7199L57.8177 82.352C57.3141 82.6408 56.9045 82.4058 56.9045 81.8216Z" fill="#FAFAFA"/>
<path d="M139.855 31.7253L140.096 32.2356C140.107 32.2438 140.12 32.2482 140.133 32.2482C140.147 32.2482 140.16 32.2438 140.17 32.2356L140.714 32.0275C140.795 32.0275 140.835 32.1148 140.768 32.2289L140.378 32.9608C140.366 33.007 140.366 33.0556 140.378 33.1018L140.472 33.7732C140.472 33.8739 140.392 34.0149 140.318 34.0082L139.834 33.9478C139.815 33.9469 139.796 33.9514 139.78 33.961C139.763 33.9705 139.749 33.9845 139.74 34.0015L139.257 34.6192C139.176 34.7132 139.089 34.6797 139.103 34.5588L139.197 33.7934C139.205 33.7768 139.21 33.7584 139.21 33.7397C139.21 33.7209 139.205 33.7025 139.197 33.6859L138.8 33.4039C138.74 33.3569 138.8 33.1958 138.861 33.1286L139.398 32.7191C139.437 32.6859 139.466 32.6413 139.479 32.5915L139.72 31.8059C139.68 31.7052 139.787 31.6448 139.855 31.7253Z" stroke="#E0E0E0" stroke-width="0.75" stroke-miterlimit="10"/>
<g opacity="0.5">
<path opacity="0.5" d="M142.359 30.5167C142.303 30.5154 142.249 30.4999 142.2 30.4717C142.152 30.4435 142.112 30.4036 142.084 30.3556C142.042 30.2815 142.032 30.1942 142.055 30.1125C142.077 30.0309 142.131 29.9614 142.205 29.9191L144.783 28.4285C144.855 28.3993 144.935 28.397 145.008 28.4219C145.081 28.4468 145.143 28.4974 145.182 28.5643C145.222 28.6311 145.235 28.7099 145.221 28.7861C145.207 28.8623 145.166 28.9308 145.105 28.9791L142.54 30.4697C142.487 30.5056 142.423 30.5222 142.359 30.5167Z" fill="#455A64"/>
<path opacity="0.5" d="M142.359 32.0074C142.303 32.0061 142.249 31.9906 142.2 31.9625C142.152 31.9343 142.112 31.8943 142.084 31.8463C142.063 31.8101 142.05 31.7703 142.045 31.7292C142.041 31.688 142.044 31.6463 142.055 31.6064C142.066 31.5665 142.085 31.5292 142.111 31.4966C142.137 31.464 142.168 31.4368 142.205 31.4166L144.783 29.9193C144.855 29.8901 144.935 29.8877 145.008 29.9126C145.081 29.9376 145.143 29.9881 145.182 30.055C145.222 30.1219 145.235 30.2006 145.221 30.2768C145.207 30.353 145.166 30.4215 145.105 30.4698L142.54 31.9672C142.485 31.9974 142.422 32.0113 142.359 32.0074V32.0074Z" fill="#455A64"/>
<path opacity="0.5" d="M142.359 33.498C142.289 33.4981 142.221 33.4749 142.166 33.4323C142.111 33.3896 142.071 33.3298 142.053 33.2622C142.036 33.1947 142.041 33.1232 142.068 33.0589C142.096 32.9947 142.144 32.9413 142.205 32.9072L144.783 31.4166C144.819 31.394 144.859 31.379 144.9 31.3725C144.942 31.3661 144.985 31.3682 145.026 31.3789C145.067 31.3897 145.105 31.4086 145.138 31.4347C145.172 31.4608 145.199 31.4935 145.219 31.5307C145.261 31.6039 145.273 31.6906 145.251 31.7722C145.23 31.8538 145.177 31.9238 145.105 31.9671L142.54 33.4577C142.485 33.4879 142.422 33.5019 142.359 33.498V33.498Z" fill="#455A64"/>
</g>
<path d="M69.2793 113.816C72.9655 110.062 73.9122 108.357 73.9122 106.853C73.9122 105.349 73.2811 104.402 71.3204 105.51C69.9359 106.284 68.8985 107.556 68.4198 109.069C68.2972 109.386 68.1043 109.672 67.8554 109.905C67.6066 110.137 67.3083 110.311 66.9829 110.412L64.4247 110.976C63.8137 111.117 63.4041 110.727 63.5519 110.116C64.6732 105.544 67.4999 101.32 71.4682 99.0306C76.2354 96.2777 79.0152 98.3591 79.0152 103.006C79.0152 107.471 76.6651 111.197 74.3151 113.876C73.8773 114.437 73.6219 115.119 73.5832 115.83V117.348C73.5642 117.688 73.4656 118.019 73.2953 118.314C73.1251 118.609 72.8879 118.86 72.6029 119.046L69.4605 120.859C68.9167 121.175 68.4802 120.92 68.4802 120.295V115.716C68.5279 115.011 68.8091 114.343 69.2793 113.816Z" fill="#455A64"/>
<path d="M68.4198 127.157C68.413 126.225 68.649 125.307 69.1046 124.493C69.5602 123.68 70.2198 122.999 71.0183 122.518C72.7036 121.537 73.5832 122.404 73.5832 124.176C73.597 125.109 73.3678 126.029 72.918 126.846C72.4683 127.663 71.8136 128.349 71.0183 128.836C69.2927 129.83 68.4198 128.93 68.4198 127.157Z" fill="#455A64"/>
<path d="M260.909 228.464C279.966 228.464 295.414 218.779 295.414 206.831C295.414 194.883 279.966 185.197 260.909 185.197C241.852 185.197 226.404 194.883 226.404 206.831C226.404 218.779 241.852 228.464 260.909 228.464Z" fill="#E6E6E6"/>
<path d="M33.0954 144.031C32.6818 139.052 31.5323 134.162 29.6845 129.521C26.6428 122.021 20.8214 114.487 14.1137 113.077C7.40601 111.667 4.57253 116.166 5.98256 120.597C7.20458 124.411 12.1867 127.58 15.9736 130.911C19.7605 134.241 26.8241 142.325 28.7847 150.067L32.5717 150.483L33.0954 144.031Z" fill="#220970"/>
<g opacity="0.15">
<path opacity="0.15" d="M33.0954 144.031C32.6818 139.052 31.5323 134.162 29.6845 129.521C26.6428 122.021 20.8214 114.487 14.1137 113.077C7.40601 111.667 4.57253 116.166 5.98256 120.597C7.20458 124.411 12.1867 127.58 15.9736 130.911C19.7605 134.241 26.8241 142.325 28.7847 150.067L32.5717 150.483L33.0954 144.031Z" fill="black"/>
</g>
<path d="M30.4969 147.509C30.3888 147.509 30.2849 147.467 30.2072 147.392C30.1295 147.317 30.0841 147.214 30.0806 147.106C29.3756 127.554 10.2663 116.623 10.0582 116.502C9.9671 116.444 9.90152 116.353 9.87487 116.249C9.84822 116.144 9.86251 116.034 9.91483 115.939C9.96715 115.845 10.0535 115.774 10.1563 115.741C10.2591 115.709 10.3705 115.716 10.4678 115.763C10.6692 115.877 30.2015 127.043 30.9199 147.059C30.9236 147.17 30.8833 147.278 30.8079 147.36C30.7326 147.441 30.6281 147.49 30.517 147.495L30.4969 147.509Z" fill="white"/>
<path d="M36.1101 178.449C36.1101 178.449 32.2023 180.92 26.0922 179.866C24.1164 179.603 22.2753 178.719 20.8348 177.341C19.257 175.716 19.0085 174.078 18.5654 171.902C18.4433 170.993 18.1323 170.119 17.6522 169.337C16.3093 167.538 13.731 167.572 11.5555 167.102C8.46688 166.43 5.62668 164.214 4.73367 161.186C3.84065 158.158 5.29096 154.472 8.21845 153.277L4.62623 150.974C3.50952 150.318 2.47684 149.529 1.55103 148.623C0.626902 147.7 0.0748015 146.47 0 145.166C0 143.259 1.41674 141.553 3.16249 140.774C4.95075 140.084 6.89117 139.885 8.78246 140.197C10.6982 140.431 12.5813 140.882 14.3957 141.54C14.8901 141.763 15.4245 141.884 15.9669 141.896C16.6727 141.771 17.3342 141.465 17.8872 141.009C21.9964 138.324 28.6907 138.505 30.893 143.621C31.2153 144.373 31.41 145.179 31.7592 145.918C33.0349 148.677 36.6272 147.845 38.9503 149.134C39.6795 149.595 40.298 150.212 40.7622 150.94C41.2263 151.667 41.5247 152.488 41.6361 153.344C42.0994 156.07 41.3407 159.179 40.8371 161.871C40.3335 164.564 39.6956 167.068 38.9638 169.619C38.3662 171.728 37.7082 173.816 37.0099 175.891C36.8622 176.32 36.5399 178.18 36.1101 178.449Z" fill="#220970"/>
<path d="M38.5676 172.151C36.5198 166.516 33.1567 161.452 28.7579 157.379C28.7121 157.281 28.6304 157.204 28.5296 157.164C27.2622 155.976 25.9331 154.855 24.5479 153.807C24.0245 150.181 24.4884 146.482 25.8908 143.097C25.938 142.997 25.9433 142.882 25.9055 142.777C25.8677 142.673 25.79 142.587 25.6894 142.54C25.5888 142.493 25.4735 142.488 25.369 142.525C25.2645 142.563 25.1793 142.641 25.1321 142.742C23.7414 146.004 23.2075 149.568 23.5811 153.095C17.9531 149.036 11.7098 145.908 5.08955 143.829C4.9819 143.802 4.86795 143.818 4.77157 143.873C4.6752 143.928 4.60387 144.018 4.57254 144.125C4.55732 144.178 4.55293 144.234 4.55961 144.289C4.56629 144.344 4.58391 144.397 4.61143 144.445C4.63895 144.494 4.67582 144.536 4.71988 144.569C4.76394 144.603 4.81428 144.628 4.86797 144.642C5.04254 144.689 16.9539 148.073 26.8107 156.728C20.7677 155.674 13.5631 158.588 13.2341 158.742C13.1417 158.777 13.0646 158.843 13.0166 158.93C12.9687 159.016 12.953 159.117 12.9723 159.213C12.9917 159.31 13.0449 159.397 13.1224 159.458C13.1998 159.52 13.2966 159.551 13.3953 159.548C13.4486 159.557 13.5032 159.557 13.5564 159.548C13.637 159.507 22.1039 156.083 28.0864 157.943C32.4314 161.927 35.7604 166.893 37.7955 172.426C37.8236 172.509 37.877 172.58 37.9481 172.631C38.0192 172.681 38.1044 172.708 38.1916 172.708H38.3326C38.3856 172.688 38.434 172.658 38.4749 172.618C38.5157 172.579 38.5481 172.532 38.5701 172.48C38.5921 172.428 38.6032 172.372 38.6028 172.315C38.6024 172.258 38.5904 172.203 38.5676 172.151Z" fill="white"/>
<path d="M172.534 5.63317L170.069 4.19628C169.831 4.0814 169.565 4.03382 169.301 4.05866C169.037 4.08351 168.785 4.17984 168.572 4.33729L107.223 39.7491C106.61 40.1486 106.099 40.6869 105.733 41.3203C105.367 41.9537 105.155 42.6645 105.114 43.3951V131.629C105.091 131.885 105.133 132.144 105.238 132.379C105.342 132.614 105.506 132.818 105.712 132.972V132.972L108.196 134.409L168.545 97.4126C169.157 97.0127 169.667 96.4742 170.032 95.8408C170.397 95.2073 170.608 94.4967 170.647 93.7666L172.534 5.63317Z" fill="#220970"/>
<path opacity="0.15" d="M108.156 134.409L105.705 132.992C105.498 132.839 105.335 132.635 105.231 132.399C105.127 132.164 105.087 131.905 105.114 131.649V43.3951C105.142 42.6213 105.374 41.8685 105.786 41.2129L108.297 42.6431C107.882 43.3001 107.651 44.0556 107.625 44.832V133.073C107.596 133.322 107.629 133.575 107.721 133.808C107.814 134.041 107.963 134.248 108.156 134.409Z" fill="black"/>
<path d="M109.687 41.1928L171.036 5.77426C172.198 5.10282 173.138 5.64669 173.138 6.98957V95.2238C173.099 95.9539 172.888 96.6644 172.523 97.2979C172.158 97.9313 171.649 98.4698 171.036 98.8697L109.687 134.288C108.525 134.96 107.578 134.416 107.578 133.073V44.832C107.62 44.1026 107.832 43.3932 108.199 42.761C108.565 42.1289 109.075 41.5917 109.687 41.1928V41.1928Z" fill="#220970"/>
<path opacity="0.4" d="M170.069 4.19614L172.473 5.58602C172.24 5.50205 171.991 5.47529 171.745 5.50801C171.5 5.54073 171.266 5.63196 171.063 5.77402L109.714 41.1926C109.13 41.553 108.643 42.0509 108.297 42.6429L105.806 41.2127C106.152 40.6169 106.638 40.1144 107.223 39.749L168.539 4.37071C168.752 4.21365 169.005 4.1181 169.269 4.09442C169.532 4.07075 169.798 4.11986 170.036 4.23642L170.069 4.19614Z" fill="white"/>
<path d="M116.65 44.6572L165.779 16.2888C166.659 15.7785 167.37 16.1948 167.37 17.2086V92.6854C167.34 93.238 167.181 93.7758 166.904 94.2552C166.628 94.7347 166.242 95.1423 165.779 95.445L116.65 123.76C115.77 124.263 115.052 123.854 115.052 122.84V47.4302C115.078 46.8742 115.237 46.3325 115.515 45.8502C115.793 45.3679 116.182 44.9589 116.65 44.6572V44.6572Z" fill="white"/>
<path d="M155.58 61.2754L156.077 60.8659C155.257 59.9764 154.191 59.3502 153.015 59.0664L152.854 59.6841C153.896 59.9418 154.843 60.4943 155.58 61.2754V61.2754Z" fill="#37474F"/>
<path d="M156.674 63.78L155.66 62.7862C155.42 62.5362 155.286 62.2029 155.286 61.8563C155.286 61.5097 155.42 61.1764 155.66 60.9263V60.9263C155.91 60.6863 156.244 60.5522 156.59 60.5522C156.937 60.5522 157.27 60.6863 157.52 60.9263L158.527 61.9201C158.767 62.1702 158.902 62.5034 158.902 62.85C158.902 63.1967 158.767 63.5299 158.527 63.78V63.78C158.278 64.0181 157.946 64.1509 157.601 64.1509C157.256 64.1509 156.924 64.0181 156.674 63.78V63.78Z" fill="#220970"/>
<path d="M165.611 86.7299L167.881 90.6109C167.881 90.6109 182.746 82.7282 183.586 81.6941C184.425 80.6601 184.371 78.5719 184.499 77.4439C184.707 75.5639 184.015 73.9457 183.915 73.2675C183.747 72.0858 185.446 72.0186 186.285 73.6637C186.903 74.8588 186.956 76.2286 187.48 76.242C188.23 75.7153 188.929 75.1196 189.568 74.4627C190.488 73.4555 192.153 71.7769 193.416 72.0052C193.63 72.0551 193.825 72.1681 193.974 72.3297C194.124 72.4912 194.222 72.694 194.255 72.9117C194.291 73.6056 194.45 74.2877 194.725 74.926C194.93 75.1682 195.097 75.4398 195.222 75.7317C195.262 76.165 195.262 76.6011 195.222 77.0343C195.275 77.6588 195.893 77.9206 195.96 78.5316C195.941 79.0024 195.889 79.4713 195.806 79.9349C195.806 80.2371 195.9 80.499 195.9 80.8011C195.835 81.4214 195.566 82.0026 195.134 82.4529C193.877 83.918 192.387 85.1657 190.723 86.1458C189.38 87.0321 187.581 87.8177 186.023 88.6503C184.465 89.4829 166.967 102.925 164.638 101.341C163.684 100.669 161.173 97.4663 158.534 93.8808" fill="#FFA8A7"/>
<path d="M157.984 94.3441C155.301 90.6099 152.835 86.7248 150.598 82.708C147.912 75.1879 150.954 70.1789 150.954 70.1789C150.954 70.1789 154.814 68.9837 158.031 74.0598C159.447 76.2957 163.154 82.5804 165.584 86.7299" fill="#FFA8A7"/>
<path d="M144.199 70.293C144.199 70.293 148.456 68.5674 151.215 68.7487C153.975 68.93 156.016 69.7089 158.044 72.9654C160.73 77.3096 165.222 84.8163 165.222 84.8163C163.323 88.7193 160.293 91.9599 156.527 94.1158L148.281 81.6807L144.199 70.293Z" fill="#455A64"/>
<path d="M130.689 77.8132C129.27 78.9567 128.222 80.4971 127.681 82.238C127.052 84.3417 126.744 86.5285 126.768 88.7242V102.858L126.587 129.608C135.557 132.663 146.959 129.971 156.527 119.335C156.527 119.335 155.996 85.0917 155.996 79.4986C155.996 79.2434 155.996 78.9883 155.996 78.7264C155.647 70.7967 148.805 67.1172 142.064 70.931L136.397 74.127L130.71 77.8132H130.689Z" fill="#F0F0F0"/>
<path d="M133.812 45.2751C133.812 45.2751 129.414 44.9327 128.44 49.0151C127.547 52.6543 134.181 67.0231 134.033 66.7814C133.886 66.5397 133.812 45.2751 133.812 45.2751Z" fill="#263238"/>
<path d="M149.342 37.0567C149.342 37.0567 147.711 32.6654 139.788 35.7876C135.759 37.379 134.248 42.3678 134.248 42.3678L149.342 37.0567Z" fill="#220970"/>
<path opacity="0.4" d="M149.342 37.0567C149.342 37.0567 147.711 32.6654 139.788 35.7876C135.759 37.379 134.248 42.3678 134.248 42.3678L149.342 37.0567Z" fill="black"/>
<path d="M136.833 48.7196C136.833 54.7625 141.063 58.5092 146.287 57.1059C151.511 55.7026 155.741 49.72 155.741 43.677C155.741 37.6341 151.236 37.6341 146.012 39.0441C140.788 40.4541 136.833 42.69 136.833 48.7196Z" fill="#263238"/>
<path d="M131.898 58.2676C131.898 58.2676 133.288 65.452 133.845 66.5465C134.013 66.8635 134.258 67.1335 134.557 67.3317C134.856 67.5299 135.2 67.65 135.557 67.6812L135.463 62.3902L131.898 58.2676Z" fill="#263238"/>
<path d="M133.644 46.9739C133.093 47.0631 132.568 47.2701 132.105 47.5806C131.641 47.8912 131.25 48.298 130.958 48.7733C129.817 50.4318 130.454 54.5007 131.885 58.2675L134.503 57.9117L133.644 46.9739Z" fill="#263238"/>
<path d="M135.309 57.7035C134.779 58.207 134.033 57.2402 133.382 56.6292C132.731 56.0181 130.616 55.5146 129.555 58.3682C128.494 61.2218 130.488 64.203 132.16 64.3642C135.034 64.6327 135.463 62.3901 135.463 62.3901L135.557 74.6574C140.385 79.7737 148.832 73.7442 145.031 71.4814V67.8355C146.35 67.7219 147.651 67.4514 148.906 67.0298C151.021 66.0831 152.35 63.8069 152.995 60.9868C154.022 56.468 154.411 52.9295 153.539 44.8252C152.585 35.9353 143.366 38.3122 138.391 43.2607C133.416 48.2093 135.309 57.7035 135.309 57.7035Z" fill="#FFA8A7"/>
<path d="M135.309 58.7577C135.04 58.8383 134.033 57.1798 133.382 56.6628C132.476 55.9511 133.644 47.0074 133.644 47.0074C132.596 44.6977 134.53 41.2129 136.551 39.7962C138.003 38.8639 139.642 38.2611 141.352 38.0303C142.802 37.7706 144.248 37.5714 145.69 37.4327C147.452 37.3405 149.206 37.1296 150.94 36.8015C152.298 36.4795 153.613 36.0019 154.861 35.3781C155.963 34.8745 156.876 36.0092 155.902 37.896C155.031 39.6119 153.82 41.1332 152.344 42.3678C148.06 45.584 143.084 46.3561 138.754 46.8329C137.78 46.9403 137.565 48.0885 137.041 51.2107C136.578 53.9233 136.195 58.469 135.309 58.7577Z" fill="#263238"/>
<path d="M130.347 47.0477L127.164 45.9264C127.614 44.7513 128.695 44.053 129.568 44.3619C130.441 44.6708 130.797 45.8726 130.347 47.0477Z" fill="#263238"/>
<path d="M145.025 67.8357C145.025 67.8357 140.325 68.0035 138.659 67.4328C137.664 67.0858 136.845 66.3627 136.377 65.4185C136.604 66.411 137.046 67.3416 137.672 68.1445C138.881 69.6015 145.025 69.2658 145.025 69.2658V67.8357Z" fill="#F28F8F"/>
<path d="M143.883 54.0575C143.879 54.3498 143.788 54.6341 143.62 54.8736C143.452 55.1131 143.217 55.2966 142.943 55.4003C142.426 55.5346 142.003 55.1385 142.003 54.514C141.999 54.2149 142.087 53.9216 142.255 53.6742C142.423 53.4267 142.664 53.237 142.943 53.1309C143.467 53.0167 143.883 53.386 143.883 54.0575Z" fill="#263238"/>
<path d="M142.373 49.9281L140.358 51.7612C140.217 51.4183 140.186 51.0398 140.27 50.6787C140.355 50.3175 140.55 49.9917 140.828 49.7468C140.928 49.6294 141.055 49.5384 141.198 49.482C141.341 49.4256 141.496 49.4054 141.649 49.4234C141.802 49.4413 141.948 49.4968 142.074 49.5848C142.2 49.6729 142.303 49.7908 142.373 49.9281V49.9281Z" fill="#263238"/>
<path d="M144.602 61.3965L146.757 61.7524C146.695 62.0949 146.515 62.4047 146.247 62.627C145.979 62.8494 145.641 62.97 145.293 62.9677C144.696 62.8737 144.387 62.1686 144.602 61.3965Z" fill="#F28F8F"/>
<path d="M152.565 48.1557L150.719 47.0075C151.101 46.3361 151.813 45.9802 152.323 46.2958C152.582 46.5239 152.749 46.8382 152.794 47.1803C152.838 47.5224 152.757 47.869 152.565 48.1557V48.1557Z" fill="#263238"/>
<path d="M151.759 51.6202C151.764 51.9214 151.676 52.2167 151.507 52.4656C151.337 52.7145 151.095 52.9047 150.813 53.0101C150.289 53.1444 149.866 52.7483 149.866 52.1238C149.861 51.8236 149.95 51.5294 150.119 51.2816C150.289 51.0339 150.531 50.8449 150.813 50.7407C151.336 50.5997 151.759 50.9958 151.759 51.6202Z" fill="#263238"/>
<path d="M147.086 51.9963L147.193 58.5899L150.584 56.8173L147.086 51.9963Z" fill="#F28F8F"/>
<path d="M116.482 117.845C119.127 90.6512 123.404 80.9891 130.105 78.2832C132.355 80.0424 132.717 88.0661 130.172 94.0889C130.172 94.0889 124.573 112.124 124.129 118.261C123.847 124 124.06 129.754 124.767 135.456C124.803 135.799 124.911 136.131 125.083 136.429C125.256 136.727 125.489 136.986 125.768 137.189C127.198 138.169 127.07 139.539 128.078 140.862C128.87 141.896 129.622 142.097 129.42 142.473C129.253 142.849 128.962 143.157 128.595 143.345C128.229 143.533 127.809 143.59 127.406 143.507C126.764 143.284 126.169 142.943 125.654 142.5C126.032 143.948 126.63 145.329 127.426 146.596C129.239 149.53 129.105 151.47 124.66 152.014C121.873 152.357 119.893 150.584 118.664 143.594C118.315 141.58 117.455 137.954 117.126 135.349C116.173 127.916 116.052 122.222 116.482 117.845Z" fill="#FFA8A7"/>
<path d="M132.026 76.9939C132.026 76.9939 127.151 78.5651 124.64 82.4661C122.129 86.3672 119.617 92.6788 117.711 103.952C117.711 103.952 120.665 108.209 128.729 104.926C128.729 104.926 132.549 90.5839 132.999 84.8833C133.463 78.6658 132.026 76.9939 132.026 76.9939Z" fill="#455A64"/>
<path d="M136.558 37.2714C131.999 40.1251 130.031 43.5897 129.917 47.7661C129.877 50.6349 129.992 53.5039 130.26 56.3605C129.401 56.9788 128.693 57.783 128.189 58.7131C127.684 59.6432 127.396 60.6751 127.346 61.732C127.346 64.5588 129.635 66.2374 132.462 65.4787C133.881 65.0589 135.134 64.2098 136.05 63.0483C136.967 61.8868 137.501 60.4699 137.578 58.9926C137.636 58.0755 137.35 57.1699 136.775 56.4532C136.2 55.7365 135.378 55.2605 134.47 55.1184C133.899 51.1293 133.91 47.0786 134.503 43.0928C135.517 37.0498 146.811 33.5651 149.342 37.0498C148.583 34.0418 142.896 33.2763 136.558 37.2714Z" fill="#220970"/>
<path opacity="0.15" d="M136.558 37.2714C131.999 40.1251 130.031 43.5897 129.917 47.7661C129.877 50.6349 129.992 53.5039 130.26 56.3605C129.401 56.9788 128.693 57.783 128.189 58.7131C127.684 59.6432 127.396 60.6751 127.346 61.732C127.346 64.5588 129.635 66.2374 132.462 65.4787C133.881 65.0589 135.134 64.2098 136.05 63.0483C136.967 61.8868 137.501 60.4699 137.578 58.9926C137.636 58.0755 137.35 57.1699 136.775 56.4532C136.2 55.7365 135.378 55.2605 134.47 55.1184C133.899 51.1293 133.91 47.0786 134.503 43.0928C135.517 37.0498 146.811 33.5651 149.342 37.0498C148.583 34.0418 142.896 33.2763 136.558 37.2714Z" fill="black"/>
<path d="M134.913 59.7043C134.927 59.4038 134.867 59.1044 134.737 58.833C134.607 58.5615 134.412 58.3265 134.17 58.1488C133.927 57.9712 133.644 57.8566 133.346 57.8152C133.048 57.7738 132.744 57.8069 132.462 57.9116C131.782 58.1131 131.182 58.5202 130.743 59.0769C130.304 59.6336 130.049 60.3125 130.011 61.0204C130.001 61.3195 130.065 61.6165 130.197 61.8851C130.329 62.1537 130.525 62.3855 130.768 62.5602C131.011 62.7348 131.293 62.8468 131.59 62.8863C131.887 62.9257 132.189 62.8913 132.469 62.7863C133.144 62.586 133.74 62.1827 134.177 61.6312C134.615 61.0798 134.872 60.4069 134.913 59.7043V59.7043Z" fill="#220970"/>
<path d="M96.2512 102.844C96.1408 102.952 96.0397 103.069 95.9491 103.194V103.194C95.7878 103.392 95.6669 103.62 95.5932 103.865C95.5932 103.865 95.5932 103.865 95.5932 103.865C95.5446 104.006 95.5446 104.16 95.5932 104.302C95.6111 104.402 95.6605 104.493 95.7342 104.563C95.7697 104.604 95.8103 104.64 95.8551 104.671L93.3909 103.247C93.2921 103.193 93.2107 103.111 93.1559 103.012C93.1167 102.919 93.0966 102.818 93.0966 102.717C93.0966 102.615 93.1167 102.515 93.1559 102.421C93.1559 102.421 93.1559 102.421 93.1559 102.421C93.2096 102.255 93.2864 102.097 93.3842 101.951C93.5115 101.76 93.6553 101.581 93.8139 101.414L96.2512 102.844Z" fill="#220970"/>
<path d="M96.2714 102.818C94.9889 104.161 95.4388 105.067 97.2785 104.832L107.578 103.643V91.0674L96.2714 102.818Z" fill="#220970"/>
<path d="M96.2713 102.818C95.4589 103.664 95.3448 104.335 95.8282 104.664L93.364 103.241C92.847 102.918 92.9611 102.234 93.7803 101.374L105.094 89.644L107.585 91.0876L96.2713 102.818Z" fill="#220970"/>
<path opacity="0.15" d="M96.2512 102.844C96.1408 102.952 96.0397 103.069 95.9491 103.194V103.194C95.7931 103.396 95.6728 103.623 95.5932 103.865C95.5932 103.865 95.5932 103.865 95.5932 103.865C95.5537 104.008 95.5537 104.159 95.5932 104.302C95.6128 104.401 95.6619 104.492 95.7342 104.563C95.7697 104.604 95.8103 104.64 95.8551 104.671L93.3909 103.247C93.2921 103.193 93.2107 103.111 93.1559 103.012C93.1167 102.919 93.0966 102.818 93.0966 102.717C93.0966 102.615 93.1167 102.515 93.1559 102.421C93.1559 102.421 93.1559 102.421 93.1559 102.421C93.2124 102.256 93.2891 102.098 93.3842 101.951C93.5115 101.76 93.6553 101.581 93.8139 101.414L96.2512 102.844Z" fill="black"/>
<path opacity="0.4" d="M107.585 91.0675L96.2713 102.818L93.7736 101.374L105.094 89.644L107.585 91.0675Z" fill="white"/>
<path d="M165.611 86.7299L167.881 90.6108C167.881 90.6108 182.746 82.7281 183.586 81.6941C184.425 80.6601 184.371 78.5719 184.499 77.4439C184.707 75.5638 184.015 73.9457 183.915 73.2675C183.713 71.8239 185.788 72.1596 186.446 72.7303C186.878 73.1905 187.238 73.7134 187.514 74.2814C187.836 74.8185 188.44 76.571 189.058 76.6784C189.541 76.7657 190.502 76.0808 190.898 75.7854C192.529 74.5499 193.536 72.8378 194.792 71.2733C195.016 70.9367 195.327 70.6674 195.692 70.4944C196.012 70.4306 196.343 70.4404 196.66 70.523C196.976 70.6056 197.27 70.7588 197.518 70.9712C198.047 71.267 198.506 71.6749 198.861 72.1663C199.078 72.5345 199.232 72.9361 199.318 73.3548C199.989 76.2017 198.525 78.6055 196.8 80.7406C195.068 82.8407 193.015 84.6536 190.716 86.1122C189.373 86.9985 187.574 87.7841 186.016 88.6167C184.459 89.4492 167.766 103.435 165.43 101.851C162.637 99.6777 160.134 97.1548 157.984 94.3441" fill="#FFA8A7"/>
<path d="M275.271 62.4707C280.642 62.4707 283.463 64.0822 285.692 69.0441C287.827 73.7912 294.454 87.5625 294.125 90.8996C293.796 94.2366 280.186 108.444 280.186 108.444L276.298 103.744L284.732 89.5768L276.426 77.558L275.271 62.4707Z" fill="#FFA8A7"/>
<path d="M262.232 208.597C262.232 208.597 262.836 210.43 263.165 212.041C263.427 213.317 263.796 215.445 263.346 216.406C262.896 217.366 261.157 217.983 258.458 217.963C256.706 217.963 253.979 219.138 252.113 220.186C250.246 221.233 246.171 221.69 244.129 221.448C241.726 221.166 239.235 219.769 238.845 218.762C238.456 217.755 238.127 216.406 244.64 214.317C244.693 214.317 252.516 211.752 255.255 208.724L262.232 208.597Z" fill="#263238"/>
<path d="M262.232 208.778L260.989 208.624L255.255 208.738C252.516 211.766 244.693 214.317 244.64 214.331L243.599 214.68C242.464 215.593 243.424 217.144 246.11 217.366C248.796 217.587 257.169 214.787 259.022 213.894C259.994 213.443 260.815 212.719 261.384 211.811C261.954 210.903 262.248 209.85 262.232 208.778Z" fill="#FFA8A7"/>
<path d="M262.232 206.313C262.232 206.313 262.232 207.878 262.232 208.778C262.232 209.677 261.184 211.007 258.445 210.906C256.524 210.839 255.181 210.322 255.255 208.737V206.475L262.232 206.313Z" fill="#FFA8A7"/>
<path d="M280.616 198.303C281.106 198.505 281.207 199.458 281.227 201.345C281.227 202.768 281.489 205.266 279.803 205.723C278.118 206.179 275.681 205.85 274.647 204.481C273.357 202.768 272.491 201.264 270.618 199.163C269.013 197.343 267.261 195.638 266.67 193.12C266.126 190.85 266.67 189.89 268.207 189.272C269.745 188.655 271.162 189.165 273.31 190.958C273.91 191.364 274.551 191.704 275.224 191.972C276.654 192.421 280.119 198.102 280.616 198.303Z" fill="#263238"/>
<path d="M280.663 196.557L280.595 198.874C280.595 198.874 279.051 201.902 274.747 198.874C274.653 198.646 274.264 194.174 274.264 194.174L280.663 196.557Z" fill="#FFA8A7"/>
<path d="M275.244 191.985C274.572 191.717 273.93 191.377 273.33 190.971V190.971C271.598 190.414 267.959 191.059 269.591 193.583C270.958 195.658 272.708 197.454 274.747 198.874C276.694 199.834 277.373 198.646 277.373 198.646L276.701 193.214C276.314 192.7 275.816 192.28 275.244 191.985Z" fill="#FFA8A7"/>
<path d="M283.805 164.543C282.946 156.949 281.3 152.565 281.3 152.565C281.3 152.565 282.757 142.345 283.899 132.549C286.585 109.539 284.799 109.169 281.549 101.166C281.549 101.166 252.052 97.3722 250.817 109.639C249.279 124.915 249.978 154.539 250.233 159.957C250.488 165.376 250.904 167.827 252.543 179.174C253.765 187.815 254.926 206.703 254.926 206.703C258.794 208.932 262.514 206.314 262.514 206.314C262.514 206.314 266.213 183.088 266.126 176.837C266.051 172.21 265.373 167.612 264.112 163.16C264.112 163.16 266.623 138.263 267.261 134.288C267.261 134.288 267.972 142.231 268.234 147.65C268.496 153.068 269.96 158.272 271.256 168.364C272.377 177.092 274.244 195.376 274.244 195.376C278.111 197.605 280.81 196.598 280.81 196.598C280.81 196.598 284.658 172.131 283.805 164.543Z" fill="#220970"/>
<path d="M262.789 57.502L263.87 68.9702L273.942 68.3323L273.136 55.6152L262.789 57.502Z" fill="#FFA8A7"/>
<path d="M282.993 67.3387C281.965 64.3037 279.884 62.5244 275.271 62.4707L273.572 62.5244C273.25 64.2165 268.288 65.5862 263.386 63.8673C262.715 64.0486 260.801 64.3977 259.734 64.5387L257.384 64.8812C253.818 66.0495 252.241 72.267 251.898 82.0768C251.556 91.8866 250.085 112.923 250.085 112.923C250.085 112.923 257.76 117.032 269.873 115.441C280.716 114.017 284.933 107.605 284.557 108.424C283.286 102.983 281.407 97.7011 278.957 92.6789C284.664 78.639 284.51 71.844 282.993 67.3387Z" fill="#455A64"/>
<path d="M263.87 115.79C265.877 115.811 267.883 115.69 269.873 115.427C279.756 114.132 284.134 108.713 284.544 108.357C283.274 102.934 281.4 97.6709 278.957 92.6655C281.844 85.5751 283.228 80.3379 283.698 76.3025C283.228 79.2434 278.883 90.6311 273.196 94.0487C273.196 94.0487 276.406 94.5456 279.152 98.3191C281.898 102.093 279.642 114.978 263.87 115.79Z" fill="#37474F"/>
<path d="M259.734 64.5251C255 65.1227 250.924 65.9688 249.199 70.6151C246.923 76.9426 243.43 82.7637 238.919 87.7503C235.978 90.8994 223.906 96.9289 221.186 96.4791C218.467 96.0292 216.016 92.155 214.62 92.9607C213.223 93.7664 216.285 96.5328 216.117 97.2177C215.949 97.9025 211.048 96.4791 208.731 94.834C206.415 93.189 205.038 97.9092 208.06 101.441C211.081 104.973 216.735 105.248 222.885 104.019C229.035 102.791 240.275 99.138 244.741 94.975C250.595 89.5028 251.663 86.5283 254.201 81.8148C262.285 75.5435 259.734 64.5251 259.734 64.5251Z" fill="#FFA8A7"/>
<path d="M257.518 43.2608C257.518 43.2608 253.718 38.7285 256.699 34.3104C260.217 29.1001 266.408 27.3409 274.062 29.6103C277.849 30.7317 283.416 35.9689 283.698 43.3145C283.912 48.9747 268.039 52.7147 268.295 56.5956L257.518 43.2608Z" fill="#263238"/>
<path d="M255.343 44.9192C255.343 44.9192 253.113 48.2764 253.402 48.6524C253.925 48.9954 254.505 49.2432 255.114 49.3843L255.343 44.9192Z" fill="#F28F8F"/>
<path d="M262.131 34.2366C259.962 35.3579 256.215 37.4259 255.249 45.4161C254.261 53.6144 256.088 56.4613 257.202 57.5356C257.961 58.2608 261.856 58.5227 263.917 57.8915C266.462 57.1059 271.974 54.3866 274.546 50.1565C277.581 45.1744 278.205 38.5405 274.7 35.9353C269.738 32.276 263.964 33.2899 262.131 34.2366Z" fill="#FFA8A7"/>
<path d="M261.493 34.5855C261.493 34.5855 259.6 42.0654 261.862 46.7924C261.862 46.7924 263.205 43.8716 265.696 44.7109C268.187 45.5502 267.993 48.9208 266.005 50.6397C265.498 51.1344 264.861 51.4751 264.168 51.6225C263.475 51.7698 262.755 51.7178 262.091 51.4723C262.091 51.4723 262.158 55.6151 265.696 57.2534C265.696 57.2534 273.082 60.7919 279.796 53.6478C285.839 47.1617 285.081 35.5189 276.144 32.5712C267.207 29.6236 261.493 34.5855 261.493 34.5855Z" fill="#263238"/>
<path d="M291.56 66.1434C290.151 66.1434 288.756 65.8652 287.455 65.3248C286.154 64.7845 284.972 63.9925 283.978 62.9944C282.983 61.9963 282.196 60.8116 281.66 59.5085C281.125 58.2053 280.852 56.8092 280.857 55.4003V41.676C283.694 41.676 286.415 42.8029 288.421 44.8088C290.426 46.8147 291.553 49.5353 291.553 52.3721L291.56 66.1434Z" fill="#263238"/>
<path d="M255.732 31.2284C252.408 34.5856 252.22 44.3954 261.862 46.7992L268.18 29.4827C264.501 27.0856 258.7 28.1935 255.732 31.2284Z" fill="#263238"/>
<path d="M260.895 49.4648C260.654 49.3846 260.431 49.2567 260.239 49.0888C260.048 48.921 259.892 48.7165 259.781 48.4874C259.67 48.2583 259.606 48.0093 259.592 47.7551C259.579 47.5008 259.617 47.2465 259.703 47.007C259.79 46.7676 259.923 46.5479 260.096 46.3609C260.269 46.174 260.478 46.0235 260.709 45.9184C260.941 45.8133 261.192 45.7557 261.446 45.749C261.701 45.7422 261.954 45.7866 262.191 45.8793L260.895 49.4648Z" fill="#263238"/>
<path opacity="0.1" d="M267.274 134.302L268.879 124.035C272.111 123.648 275.221 122.567 277.997 120.866C277.997 120.866 275.983 123.894 270.678 125.156L269.04 137.048L268.369 149.503L267.274 134.302Z" fill="black"/>
</svg>
