<svg width="30" height="31" viewBox="0 0 30 31" fill="none" xmlns="http://www.w3.org/2000/svg">
<ellipse cx="15" cy="15.5" rx="15" ry="15.5" fill="#220970"/>
<path d="M13.6676 17.272C13.6836 16.296 13.7956 15.528 14.0036 14.968C14.2116 14.392 14.6116 13.8 15.2036 13.192L16.6436 11.704C17.2676 11 17.5796 10.256 17.5796 9.472C17.5796 8.688 17.3796 8.088 16.9796 7.672C16.5796 7.24 16.0036 7.024 15.2516 7.024C14.5316 7.024 13.9476 7.232 13.4996 7.648C13.0516 8.048 12.8276 8.592 12.8276 9.28H10.3076C10.3236 7.936 10.7716 6.872 11.6516 6.088C12.5476 5.288 13.7476 4.888 15.2516 4.888C16.7876 4.888 17.9796 5.288 18.8276 6.088C19.6756 6.872 20.0996 7.976 20.0996 9.4C20.0996 10.728 19.4916 12.024 18.2756 13.288C17.9716 13.56 17.5316 13.984 16.9556 14.56C16.3796 15.184 16.0916 16.088 16.0916 17.272H13.6676ZM14.8916 22.336C14.4436 22.336 14.0596 22.176 13.7396 21.856C13.4356 21.536 13.2836 21.152 13.2836 20.704C13.2836 20.256 13.4356 19.88 13.7396 19.576C14.0596 19.256 14.4436 19.096 14.8916 19.096C15.3556 19.096 15.7476 19.256 16.0676 19.576C16.3876 19.88 16.5476 20.256 16.5476 20.704C16.5476 21.152 16.3876 21.536 16.0676 21.856C15.7476 22.176 15.3556 22.336 14.8916 22.336Z" fill="white"/>
</svg>
