<svg width="169" height="160" viewBox="0 0 169 160" fill="none" xmlns="http://www.w3.org/2000/svg">
<path d="M83.0211 159.107C120.841 159.107 151.499 157.528 151.499 155.581C151.499 153.633 120.841 152.054 83.0211 152.054C45.2017 152.054 14.543 153.633 14.543 155.581C14.543 157.528 45.2017 159.107 83.0211 159.107Z" fill="#1D1355"/>
<path d="M42.6956 93.0491H127.28C127.778 93.0491 128.256 93.2469 128.608 93.5989C128.96 93.9509 129.157 94.4284 129.157 94.9262V149.227H40.8141V94.9262C40.8141 94.6793 40.8628 94.4349 40.9574 94.2069C41.052 93.9788 41.1906 93.7717 41.3654 93.5973C41.5402 93.423 41.7476 93.2848 41.9759 93.1907C42.2041 93.0966 42.4487 93.0485 42.6956 93.0491Z" fill="white" stroke="#1D1355" stroke-linecap="round" stroke-linejoin="round"/>
<path d="M47.233 97.311H122.743C122.989 97.311 123.233 97.3596 123.461 97.4539C123.689 97.5483 123.896 97.6865 124.07 97.8608C124.244 98.0351 124.383 98.2421 124.477 98.4698C124.571 98.6976 124.62 98.9417 124.62 99.1882V149.984H45.3515V99.1925C45.351 98.9453 45.3992 98.7004 45.4936 98.4718C45.5879 98.2433 45.7265 98.0357 45.9013 97.8608C46.0762 97.686 46.2838 97.5474 46.5123 97.4531C46.7409 97.3587 46.9858 97.3105 47.233 97.311Z" fill="#1D1355" stroke="#1D1355" stroke-linecap="round" stroke-linejoin="round"/>
<path d="M128.4 153.765H37.6417C33.463 153.765 30.0763 151.236 30.0763 148.116H135.966C135.966 151.236 132.579 153.765 128.4 153.765Z" fill="white" stroke="#1D1355" stroke-linecap="round" stroke-linejoin="round"/>
<path d="M84.6094 41.3206C78.7811 46.8644 63.8734 52.4652 46.4892 64.345C46.4892 64.345 47.5743 104.487 84.6094 126.43V41.3206Z" fill="white" stroke="#1D1355" stroke-linecap="round" stroke-linejoin="round"/>
<path d="M84.6094 41.3206C90.4333 46.8644 105.345 52.4652 122.73 64.345C122.73 64.345 121.644 104.487 84.6094 126.43V41.3206Z" fill="#1D1355" stroke="#1D1355" stroke-linecap="round" stroke-linejoin="round"/>
<path d="M84.6094 44.738C77.5778 49.7218 65.3918 54.4737 49.2852 65.4784C49.2852 65.4784 50.2916 102.671 84.6094 123.013C118.927 102.68 119.934 65.4784 119.934 65.4784C103.823 54.4781 91.6935 49.7218 84.6094 44.738Z" fill="#1D1355" stroke="#1D1355" stroke-linecap="round" stroke-linejoin="round"/>
<path d="M113.913 61.5271C89.3394 68.9656 70.5943 90.5592 62.0707 101.949C67.9338 110.55 75.6316 117.744 84.6094 123.013C118.927 102.68 119.934 65.4783 119.934 65.4783C117.86 64.0664 115.853 62.7494 113.913 61.5271Z" fill="white" stroke="#1D1355" stroke-linecap="round" stroke-linejoin="round"/>
<path d="M97.99 82.2414H71.6445C71.0643 82.2414 70.5078 82.0109 70.0975 81.6006C69.6872 81.1903 69.4567 80.6338 69.4567 80.0536V67.6531C69.5247 63.6265 71.172 59.7877 74.0436 56.9642C76.9152 54.1406 80.7812 52.5583 84.8085 52.5583C88.8357 52.5583 92.7017 54.1406 95.5734 56.9642C98.445 59.7877 100.092 63.6265 100.16 67.6531V80.0536C100.16 80.6308 99.9322 81.1846 99.5257 81.5944C99.1192 82.0042 98.5672 82.2368 97.99 82.2414ZM73.8498 77.8658H95.8022V67.6531C95.7448 64.78 94.5632 62.0439 92.511 60.0323C90.4588 58.0207 87.6997 56.8939 84.826 56.8939C81.9523 56.8939 79.1932 58.0207 77.141 60.0323C75.0888 62.0439 73.9072 64.78 73.8498 67.6531V77.8658Z" fill="white" stroke="#1D1355" stroke-linecap="round" stroke-linejoin="round"/>
<path d="M101.368 76.2642H67.8509V104.587H101.368V76.2642Z" fill="white" stroke="#1D1355" stroke-linecap="round" stroke-linejoin="round"/>
<path d="M88.0924 88.0257C88.0924 87.3806 87.9214 86.7471 87.5969 86.1897C87.2723 85.6322 86.8058 85.1708 86.2449 84.8523C85.684 84.5338 85.0486 84.3697 84.4036 84.3767C83.7586 84.3837 83.127 84.5615 82.5731 84.892C82.0192 85.2226 81.5628 85.694 81.2504 86.2584C80.938 86.8227 80.7808 87.4598 80.7947 88.1047C80.8087 88.7495 80.9933 89.3792 81.3298 89.9295C81.6663 90.4798 82.1427 90.9311 82.7104 91.2374L82.0978 97.6695H86.7885L86.1759 91.2374C86.756 90.9255 87.2406 90.462 87.5781 89.8964C87.9156 89.3309 88.0933 88.6843 88.0924 88.0257Z" fill="#1D1355" stroke="#1D1355" stroke-linecap="round" stroke-linejoin="round"/>
<path d="M150.646 82.5211L150.593 81.8647" stroke="#1D1355" stroke-linecap="round" stroke-linejoin="round"/>
<path d="M150.467 80.5568C148.734 64.1561 141.085 48.9487 128.95 37.7801C116.816 26.6115 101.028 20.2469 84.5398 19.8774C68.0521 19.5078 51.9946 25.1586 39.3719 35.7723C26.7492 46.386 18.4264 61.2355 15.9606 77.542C15.7739 78.7847 15.6281 80.0317 15.5231 81.2831" stroke="#1D1355" stroke-linecap="round" stroke-linejoin="round" stroke-dasharray="3.01 3.01"/>
<path d="M15.4443 81.9307L15.3918 82.5826" stroke="#1D1355" stroke-linecap="round" stroke-linejoin="round"/>
<path d="M30.5095 71.1185L34.3863 55.3445H22.6247L30.5095 71.1185Z" fill="#1D1355" stroke="#1D1355" stroke-linecap="round" stroke-linejoin="round"/>
<path d="M30.5095 71.1184L31.3715 55.9438H23.8849L30.5095 71.1184Z" fill="white" stroke="#1D1355" stroke-linecap="round" stroke-linejoin="round"/>
<path d="M30.5095 71.1184L29.7088 54.7625H22.2221L30.5095 71.1184Z" fill="white" stroke="#1D1355" stroke-linecap="round" stroke-linejoin="round"/>
<path d="M16.5339 54.0054L14.6042 51.822H4.44408L9.2091 71.1184H30.5095L27.1316 54.0054H16.5339Z" fill="#1D1355" stroke="#1D1355" stroke-linecap="round" stroke-linejoin="round"/>
<path d="M53.1182 24.1421H27.7441C26.8572 24.1421 26.1383 24.8611 26.1383 25.7479V39.4567C26.1383 40.3436 26.8572 41.0625 27.7441 41.0625H53.1182C54.0051 41.0625 54.7241 40.3436 54.7241 39.4567V25.7479C54.7241 24.8611 54.0051 24.1421 53.1182 24.1421Z" fill="#1D1355" stroke="#1D1355" stroke-linecap="round" stroke-linejoin="round"/>
<path d="M54.7241 27.3494H26.1383V33.4752H54.7241V27.3494Z" fill="white" stroke="#1D1355" stroke-linecap="round" stroke-linejoin="round"/>
<path d="M48.6901 38.3586C48.6901 38.1223 48.6201 37.8914 48.4888 37.695C48.3576 37.4985 48.171 37.3454 47.9527 37.255C47.7344 37.1646 47.4943 37.1409 47.2626 37.187C47.0308 37.2331 46.818 37.3469 46.6509 37.5139C46.4839 37.681 46.3701 37.8938 46.324 38.1256C46.2779 38.3573 46.3016 38.5975 46.392 38.8157C46.4824 39.034 46.6355 39.2206 46.8319 39.3518C47.0284 39.4831 47.2593 39.5531 47.4956 39.5531C47.8124 39.5531 48.1162 39.4273 48.3403 39.2033C48.5643 38.9793 48.6901 38.6754 48.6901 38.3586Z" fill="white" stroke="#1D1355" stroke-linecap="round" stroke-linejoin="round"/>
<path d="M52.0112 38.3586C52.0112 38.1223 51.9411 37.8914 51.8099 37.695C51.6786 37.4985 51.492 37.3454 51.2738 37.255C51.0555 37.1646 50.8153 37.1409 50.5836 37.187C50.3519 37.2331 50.139 37.3469 49.972 37.5139C49.8049 37.681 49.6911 37.8938 49.6451 38.1256C49.599 38.3573 49.6226 38.5975 49.713 38.8157C49.8034 39.034 49.9566 39.2206 50.153 39.3518C50.3494 39.4831 50.5804 39.5531 50.8166 39.5531C51.1334 39.5531 51.4373 39.4273 51.6613 39.2033C51.8853 38.9793 52.0112 38.6754 52.0112 38.3586Z" fill="white" stroke="#1D1355" stroke-linecap="round" stroke-linejoin="round"/>
<path d="M100.554 12.8049H69.9424V32.6526H100.554V12.8049Z" fill="white" stroke="#1D1355" stroke-linecap="round" stroke-linejoin="round"/>
<path d="M99.167 14.0649H71.4345V31.2304H99.167V14.0649Z" fill="#1D1355" stroke="#1D1355" stroke-linecap="round" stroke-linejoin="round"/>
<path d="M79.5468 26.0366C79.5468 24.1638 78.0241 20.9434 76.1514 20.9434C74.2786 20.9434 72.7515 24.1638 72.7515 26.0366C72.7515 27.9093 74.2742 28.3731 76.1514 28.3731C78.0285 28.3731 79.5468 27.8962 79.5468 26.0366Z" fill="white" stroke="#1D1355" stroke-linecap="round" stroke-linejoin="round"/>
<path d="M76.1514 21.565C77.4418 21.565 78.488 20.5189 78.488 19.2284C78.488 17.938 77.4418 16.8918 76.1514 16.8918C74.8609 16.8918 73.8148 17.938 73.8148 19.2284C73.8148 20.5189 74.8609 21.565 76.1514 21.565Z" fill="white" stroke="#1D1355" stroke-linecap="round" stroke-linejoin="round"/>
<path d="M82.9423 17.3337H88.6" stroke="white" stroke-width="2" stroke-linecap="round" stroke-linejoin="round"/>
<path d="M82.9423 19.7839H88.6" stroke="white" stroke-width="2" stroke-linecap="round" stroke-linejoin="round"/>
<path d="M82.9423 24.1245H96.1435" stroke="white" stroke-width="2" stroke-linecap="round" stroke-linejoin="round"/>
<path d="M82.9423 27.3318H96.1435" stroke="white" stroke-width="2" stroke-linecap="round" stroke-linejoin="round"/>
<path d="M142.446 24.1421H119.68C118.271 24.1421 117.129 25.2842 117.129 26.6931V38.5422C117.129 39.951 118.271 41.0932 119.68 41.0932H142.446C143.855 41.0932 144.997 39.951 144.997 38.5422V26.6931C144.997 25.2842 143.855 24.1421 142.446 24.1421Z" fill="#1D1355" stroke="#1D1355" stroke-width="2" stroke-linecap="round" stroke-linejoin="round"/>
<path d="M132.177 32.1932L144.997 25.7086V25.411C144.997 25.0745 144.863 24.7517 144.625 24.5138C144.387 24.2758 144.065 24.1421 143.728 24.1421H118.402C118.065 24.1421 117.742 24.2756 117.503 24.5135C117.265 24.7513 117.13 25.0741 117.129 25.411V25.7654L129.717 32.2238C130.101 32.4111 130.524 32.5058 130.951 32.5005C131.378 32.4952 131.797 32.39 132.177 32.1932Z" fill="white" stroke="#1D1355" stroke-width="2" stroke-linecap="round" stroke-linejoin="round"/>
<path d="M159.047 53.6948H134.426C133.447 53.6948 132.654 54.4882 132.654 55.4669V66.139C132.654 67.1177 133.447 67.9111 134.426 67.9111H159.047C160.026 67.9111 160.819 67.1177 160.819 66.139V55.4669C160.819 54.4882 160.026 53.6948 159.047 53.6948Z" fill="#1D1355"/>
<path d="M132.658 64.1919V71.8273L136.915 66.9266" fill="#1D1355"/>
<path d="M142.477 61.0632C142.478 60.7738 142.392 60.4907 142.232 60.2497C142.072 60.0086 141.844 59.8207 141.577 59.7095C141.309 59.5983 141.015 59.569 140.731 59.6253C140.447 59.6815 140.187 59.8208 139.982 60.0255C139.777 60.2301 139.638 60.4909 139.582 60.7748C139.525 61.0587 139.555 61.3529 139.666 61.6202C139.777 61.8874 139.965 62.1156 140.206 62.2758C140.447 62.4361 140.73 62.5212 141.02 62.5203C141.406 62.5192 141.776 62.3653 142.049 62.0923C142.322 61.8193 142.476 61.4493 142.477 61.0632Z" fill="white"/>
<path d="M148.729 61.0632C148.73 60.7738 148.645 60.4907 148.485 60.2497C148.325 60.0086 148.097 59.8207 147.829 59.7095C147.562 59.5983 147.268 59.569 146.984 59.6253C146.7 59.6815 146.439 59.8208 146.235 60.0255C146.03 60.2301 145.891 60.4909 145.834 60.7748C145.778 61.0587 145.808 61.3529 145.919 61.6202C146.03 61.8874 146.218 62.1156 146.459 62.2758C146.7 62.4361 146.983 62.5212 147.272 62.5203C147.658 62.5192 148.028 62.3653 148.301 62.0923C148.574 61.8193 148.728 61.4493 148.729 61.0632Z" fill="white"/>
<path d="M154.986 61.0632C154.987 60.774 154.902 60.491 154.742 60.2501C154.582 60.0092 154.354 59.8212 154.087 59.7099C153.82 59.5986 153.526 59.5691 153.243 59.625C152.959 59.6809 152.698 59.8197 152.493 60.0239C152.288 60.2281 152.149 60.4885 152.092 60.7721C152.035 61.0557 152.064 61.3498 152.174 61.6171C152.285 61.8844 152.472 62.1129 152.713 62.2737C152.953 62.4345 153.236 62.5203 153.525 62.5203C153.912 62.5192 154.282 62.3654 154.556 62.0925C154.829 61.8197 154.984 61.4497 154.986 61.0632Z" fill="white"/>
<path d="M30.3607 89.1634C30.2923 89.0739 30.2043 89.0013 30.1034 88.9512C30.0025 88.9011 29.8914 88.8749 29.7788 88.8746H10.8762L10.1498 86.6868C10.1005 86.5414 10.0069 86.4151 9.88208 86.3257C9.75731 86.2362 9.60765 86.1881 9.45412 86.188H4.66721C4.48261 86.2023 4.3102 86.2857 4.18443 86.4216C4.05865 86.5574 3.98878 86.7357 3.98878 86.9209C3.98878 87.106 4.05865 87.2844 4.18443 87.4203C4.3102 87.5561 4.48261 87.6395 4.66721 87.6538H8.92467L13.5409 101.503C13.5897 101.648 13.6832 101.775 13.8081 101.865C13.933 101.954 14.083 102.002 14.2366 102.001H14.5036C14.2407 102.407 14.1008 102.879 14.101 103.362C14.0987 103.756 14.1885 104.145 14.3632 104.499C14.538 104.852 14.7928 105.159 15.1075 105.397C15.4221 105.634 15.7879 105.794 16.1755 105.865C16.5632 105.936 16.962 105.915 17.3402 105.804C17.7184 105.694 18.0656 105.496 18.3539 105.228C18.6422 104.959 18.8638 104.627 19.001 104.257C19.1382 103.888 19.1871 103.492 19.1439 103.1C19.1007 102.708 18.9666 102.332 18.7523 102.001H22.2527C21.9898 102.407 21.85 102.879 21.8502 103.362C21.836 103.703 21.8909 104.043 22.0115 104.362C22.1321 104.681 22.3159 104.972 22.5519 105.218C22.788 105.464 23.0714 105.66 23.385 105.794C23.6987 105.928 24.0361 105.996 24.3771 105.996C24.7181 105.996 25.0555 105.928 25.3692 105.794C25.6828 105.66 25.9662 105.464 26.2022 105.218C26.4383 104.972 26.6221 104.681 26.7427 104.362C26.8633 104.043 26.9182 103.703 26.904 103.362C26.9042 102.879 26.7643 102.407 26.5014 102.001H27.0659C27.1669 102.009 27.2684 101.996 27.3641 101.963C27.4598 101.929 27.5476 101.877 27.6219 101.808C27.6963 101.739 27.7556 101.656 27.7962 101.563C27.8367 101.47 27.8577 101.37 27.8577 101.268C27.8577 101.167 27.8367 101.067 27.7962 100.974C27.7556 100.881 27.6963 100.798 27.6219 100.729C27.5476 100.66 27.4598 100.608 27.3641 100.574C27.2684 100.541 27.1669 100.528 27.0659 100.536H14.7617L13.9522 98.1159H27.6829C27.8442 98.1157 28.001 98.0626 28.1291 97.9645C28.2572 97.8664 28.3495 97.729 28.3917 97.5733L30.4832 89.8022C30.5139 89.6936 30.5188 89.5792 30.4975 89.4683C30.4762 89.3574 30.4294 89.253 30.3607 89.1634ZM16.6257 104.421C16.4163 104.421 16.2116 104.359 16.0374 104.243C15.8633 104.126 15.7276 103.961 15.6474 103.767C15.5673 103.574 15.5463 103.361 15.5872 103.156C15.628 102.95 15.7289 102.762 15.877 102.613C16.0251 102.465 16.2137 102.365 16.4191 102.324C16.6245 102.283 16.8375 102.304 17.0309 102.384C17.2244 102.464 17.3898 102.6 17.5062 102.774C17.6225 102.948 17.6846 103.153 17.6846 103.362C17.6835 103.643 17.5715 103.911 17.3732 104.11C17.1749 104.308 16.9062 104.42 16.6257 104.421ZM24.4012 104.421C24.1917 104.421 23.987 104.359 23.8129 104.243C23.6387 104.126 23.503 103.961 23.4229 103.767C23.3427 103.574 23.3218 103.361 23.3626 103.156C23.4035 102.95 23.5043 102.762 23.6524 102.613C23.8005 102.465 23.9892 102.365 24.1946 102.324C24.4 102.283 24.6129 102.304 24.8064 102.384C24.9999 102.464 25.1652 102.6 25.2816 102.774C25.398 102.948 25.4601 103.153 25.4601 103.362C25.4595 103.502 25.4313 103.641 25.377 103.77C25.3228 103.899 25.2436 104.016 25.144 104.114C25.0444 104.213 24.9263 104.29 24.7966 104.343C24.6669 104.396 24.528 104.422 24.388 104.421H24.4012ZM26.3571 96.65H23.6398V90.3579H26.3571V96.65ZM19.4524 90.3579H22.1696V96.6632H19.4524V90.3579ZM17.9865 96.6632H15.2693V90.3579H17.9865V96.6632ZM11.3663 90.3579H13.7991V96.6632H13.4709L11.3663 90.3579ZM27.8229 94.0684V90.3579H28.8205L27.8229 94.0684Z" fill="#1D1355"/>
<path d="M149.596 85.6194C147.504 85.6185 145.458 86.2382 143.719 87.3999C141.979 88.5617 140.622 90.2133 139.821 92.146C139.02 94.0786 138.811 96.2055 139.219 98.2574C139.626 100.309 140.634 102.194 142.113 103.673C143.592 105.153 145.477 106.16 147.529 106.568C149.581 106.976 151.708 106.766 153.641 105.965C155.573 105.164 157.225 103.808 158.387 102.068C159.548 100.328 160.168 98.2829 160.167 96.1908C160.164 93.3882 159.049 90.7013 157.067 88.7195C155.085 86.7377 152.398 85.6229 149.596 85.6194ZM149.596 86.9321C150.471 86.9321 151.425 88.0785 152.099 89.995H147.093C147.78 88.0785 148.708 86.9321 149.596 86.9321ZM152.479 91.3077C152.801 92.6902 152.978 94.1023 153.009 95.5214H146.178C146.209 94.1023 146.386 92.6902 146.708 91.3077H152.479ZM153.031 96.8472C152.995 98.5004 152.751 100.142 152.304 101.735H146.905C146.467 100.147 146.231 98.5111 146.2 96.8647L153.031 96.8472ZM144.883 95.5345H140.363C140.469 94.0399 140.938 92.5937 141.728 91.3208H145.351C145.054 92.7066 144.89 94.1175 144.861 95.5345H144.883ZM144.883 96.8472C144.905 98.4948 145.115 100.135 145.509 101.735H142.179C141.118 100.32 140.487 98.6289 140.363 96.8647L144.883 96.8472ZM145.92 103.047C146.178 103.765 146.522 104.448 146.944 105.082C145.615 104.681 144.393 103.985 143.369 103.047H145.92ZM147.342 103.047H151.845C151.202 104.579 150.375 105.471 149.596 105.471C148.817 105.471 147.99 104.561 147.342 103.047ZM153.267 103.047H155.818C154.794 103.985 153.572 104.681 152.243 105.082C152.666 104.448 153.009 103.765 153.267 103.047ZM153.678 101.735C154.087 100.137 154.311 98.4965 154.343 96.8472H158.841C158.716 98.6193 158.079 100.317 157.008 101.735H153.678ZM154.343 95.5345C154.314 94.1175 154.15 92.7066 153.853 91.3208H157.476C158.267 92.5937 158.735 94.0399 158.841 95.5345H154.343ZM156.487 90.0081H153.508C153.225 89.0565 152.805 88.1513 152.261 87.3215C153.883 87.816 155.338 88.7452 156.47 90.0081H156.487ZM146.962 87.3215C146.417 88.1506 145.998 89.056 145.719 90.0081H142.735C143.866 88.7452 145.322 87.816 146.944 87.3215H146.962Z" fill="#1D1355"/>
</svg>
