<svg width="26" height="27" viewBox="0 0 26 27" fill="none" xmlns="http://www.w3.org/2000/svg">
<path d="M19.0815 17.4542C20.6549 15.2242 21.3596 12.4595 21.0547 9.71306C20.7497 6.96664 19.4575 4.44109 17.4367 2.64168C15.4158 0.842265 12.8153 -0.0983054 10.1554 0.00814148C7.49555 0.114588 4.97245 1.2602 3.0909 3.21579C1.20936 5.17137 0.108137 7.79271 0.00755033 10.5554C-0.0930363 13.318 0.814431 16.0182 2.5484 18.1158C4.28237 20.2134 6.71497 21.5536 9.35951 21.8684C12.0041 22.1832 14.6655 21.4493 16.8115 19.8135H16.8098C16.8586 19.881 16.9106 19.9452 16.9691 20.0076L23.2251 26.5052C23.5298 26.8218 23.9431 26.9998 24.3742 27C24.8052 27.0002 25.2187 26.8225 25.5236 26.506C25.8285 26.1896 25.9998 25.7603 26 25.3126C26.0002 24.8649 25.8291 24.4355 25.5244 24.1188L19.2684 17.6213C19.2103 17.5602 19.1478 17.5038 19.0815 17.4525V17.4542ZM19.5007 10.9668C19.5007 12.1857 19.2696 13.3927 18.8204 14.5189C18.3713 15.6451 17.713 16.6683 16.8831 17.5303C16.0532 18.3922 15.068 19.0759 13.9837 19.5424C12.8994 20.0089 11.7372 20.249 10.5636 20.249C9.38992 20.249 8.22776 20.0089 7.14346 19.5424C6.05915 19.0759 5.07393 18.3922 4.24403 17.5303C3.41414 16.6683 2.75583 15.6451 2.3067 14.5189C1.85756 13.3927 1.6264 12.1857 1.6264 10.9668C1.6264 8.50496 2.56799 6.14399 4.24403 4.40324C5.92008 2.66249 8.19328 1.68455 10.5636 1.68455C12.9338 1.68455 15.207 2.66249 16.8831 4.40324C18.5591 6.14399 19.5007 8.50496 19.5007 10.9668Z" fill="white"/>
</svg>
