<svg width="14" height="14" viewBox="0 0 14 14" fill="none" xmlns="http://www.w3.org/2000/svg">
<path d="M1.35258 2.33329H12.8502C13.1552 2.33329 13.4476 2.21037 13.6632 1.99159C13.8789 1.7728 14 1.47606 14 1.16664C14 0.857231 13.8789 0.560491 13.6632 0.341702C13.4476 0.122914 13.1552 0 12.8502 0H1.35258C1.04765 0 0.755201 0.122914 0.539578 0.341702C0.323956 0.560491 0.20282 0.857231 0.20282 1.16664C0.20282 1.47606 0.323956 1.7728 0.539578 1.99159C0.755201 2.21037 1.04765 2.33329 1.35258 2.33329ZM12.8502 5.83322H1.35258C1.04765 5.83322 0.755201 5.95613 0.539578 6.17492C0.323956 6.39371 0.20282 6.69045 0.20282 6.99986C0.20282 7.30928 0.323956 7.60602 0.539578 7.82481C0.755201 8.04359 1.04765 8.16651 1.35258 8.16651H12.8502C13.1552 8.16651 13.4476 8.04359 13.6632 7.82481C13.8789 7.60602 14 7.30928 14 6.99986C14 6.69045 13.8789 6.39371 13.6632 6.17492C13.4476 5.95613 13.1552 5.83322 12.8502 5.83322ZM12.8502 11.6664H1.35258C1.04765 11.6664 0.755201 11.7894 0.539578 12.0081C0.323956 12.2269 0.20282 12.5237 0.20282 12.8331C0.20282 13.1425 0.323956 13.4392 0.539578 13.658C0.755201 13.8768 1.04765 13.9997 1.35258 13.9997H12.8502C13.1552 13.9997 13.4476 13.8768 13.6632 13.658C13.8789 13.4392 14 13.1425 14 12.8331C14 12.5237 13.8789 12.2269 13.6632 12.0081C13.4476 11.7894 13.1552 11.6664 12.8502 11.6664Z" fill="#F2F2F2"/>
</svg>
