<svg width="25" height="25" viewBox="0 0 25 25" fill="none" xmlns="http://www.w3.org/2000/svg">
<g clip-path="url(#clip0_1016_341)">
<path d="M12.5 0C10.0277 0 7.61099 0.733112 5.55538 2.10663C3.49976 3.48015 1.89761 5.43238 0.951511 7.71646C0.00541607 10.0005 -0.242126 12.5139 0.24019 14.9386C0.722505 17.3634 1.91301 19.5907 3.66117 21.3388C5.40933 23.087 7.63661 24.2775 10.0614 24.7598C12.4861 25.2421 14.9995 24.9946 17.2835 24.0485C19.5676 23.1024 21.5199 21.5002 22.8934 19.4446C24.2669 17.389 25 14.9723 25 12.5C25 9.18479 23.683 6.00537 21.3388 3.66116C18.9946 1.31696 15.8152 0 12.5 0V0ZM12.5 23.8651C10.2522 23.8651 8.05487 23.1986 6.18588 21.9498C4.3169 20.7009 2.8602 18.9259 2 16.8492C1.1398 14.7725 0.914737 12.4874 1.35326 10.2828C1.79179 8.07816 2.87421 6.05309 4.46365 4.46365C6.05309 2.8742 8.07816 1.79178 10.2828 1.35326C12.4874 0.914731 14.7725 1.1398 16.8492 2C18.926 2.8602 20.7009 4.31689 21.9498 6.18588C23.1986 8.05486 23.8651 10.2522 23.8651 12.5C23.8651 13.9925 23.5712 15.4704 23 16.8492C22.4289 18.2281 21.5917 19.481 20.5364 20.5364C19.481 21.5917 18.2281 22.4289 16.8492 23C15.4704 23.5712 13.9925 23.8651 12.5 23.8651Z" fill="url(#paint0_linear_1016_341)"/>
<path d="M10.4971 18.5554C15.4612 18.5554 18.1746 14.4432 18.1746 10.878C18.1746 10.761 18.1746 10.6439 18.1746 10.5296C18.7074 10.1487 19.1682 9.67592 19.5353 9.13348C19.0351 9.35265 18.5049 9.49575 17.9623 9.55803C18.5261 9.22064 18.9479 8.68954 19.1489 8.06391C18.6197 8.37608 18.0406 8.5943 17.437 8.70892C17.0302 8.27926 16.4936 7.995 15.9097 7.89975C15.3257 7.8045 14.7266 7.90354 14.2043 8.18166C13.6821 8.45979 13.2655 8.90162 13.0187 9.43934C12.7718 9.97706 12.7082 10.5809 12.8376 11.1583C11.7666 11.1075 10.7181 10.8322 9.7603 10.3502C8.80247 9.86826 7.9566 9.19039 7.27754 8.36056C6.92936 8.95585 6.82194 9.66173 6.97727 10.3336C7.1326 11.0056 7.53893 11.5927 8.11305 11.9748C7.68465 11.9613 7.26568 11.8456 6.89108 11.6373V11.6699C6.89134 12.2948 7.10859 12.9002 7.5057 13.3827C7.9028 13.8652 8.45513 14.1948 9.0683 14.3153C8.8369 14.3789 8.59797 14.4109 8.35798 14.4105C8.18715 14.4108 8.0167 14.3944 7.84906 14.3615C8.02101 14.8979 8.35643 15.3671 8.80834 15.7034C9.26025 16.0396 9.80601 16.2261 10.3692 16.2367C9.41385 16.9868 8.23366 17.3933 7.01899 17.3906C6.8043 17.3917 6.58976 17.379 6.37671 17.3525C7.60926 18.1464 9.04464 18.5678 10.5107 18.5663" fill="url(#paint1_linear_1016_341)"/>
</g>
<defs>
<linearGradient id="paint0_linear_1016_341" x1="1.67375" y1="6.24864" x2="23.3263" y2="18.7514" gradientUnits="userSpaceOnUse">
<stop offset="0.25" stop-color="#9ABCE2"/>
<stop offset="1" stop-color="#368AC8"/>
</linearGradient>
<linearGradient id="paint1_linear_1016_341" x1="314.025" y1="527.33" x2="949.849" y2="527.33" gradientUnits="userSpaceOnUse">
<stop offset="0.25" stop-color="#9ABCE2"/>
<stop offset="1" stop-color="#368AC8"/>
</linearGradient>
<clipPath id="clip0_1016_341">
<rect width="25" height="25" fill="white"/>
</clipPath>
</defs>
</svg>
