<svg width="39" height="37" viewBox="0 0 39 37" fill="none" xmlns="http://www.w3.org/2000/svg">
<path fill-rule="evenodd" clip-rule="evenodd" d="M19.4715 5.84526C19.1274 5.84563 18.7976 5.98246 18.5543 6.22574C18.311 6.46902 18.1742 6.79887 18.1738 7.14291V28.0903C18.1738 28.4346 18.3106 28.7649 18.5541 29.0084C18.7976 29.2519 19.1278 29.3886 19.4722 29.3886C19.8165 29.3886 20.1468 29.2519 20.3902 29.0084C20.6337 28.7649 20.7705 28.4346 20.7705 28.0903V7.14708C20.7709 6.97626 20.7376 6.80704 20.6724 6.64911C20.6073 6.49118 20.5117 6.34765 20.391 6.22672C20.2704 6.1058 20.127 6.00987 19.9692 5.94441C19.8115 5.87895 19.6423 5.84526 19.4715 5.84526Z" fill="#C91EFA" fill-opacity="0.32"/>
<path fill-rule="evenodd" clip-rule="evenodd" d="M10.8707 10.6617L18.5523 2.97737C18.7964 2.73395 19.127 2.59725 19.4717 2.59725C19.8163 2.59725 20.147 2.73395 20.391 2.97737L28.0726 10.6617C28.1904 10.7941 28.334 10.9009 28.4946 10.9757C28.6552 11.0504 28.8294 11.0916 29.0064 11.0965C29.1835 11.1015 29.3597 11.0702 29.5243 11.0046C29.6888 10.9389 29.8382 10.8403 29.9632 10.7148C30.0882 10.5893 30.1863 10.4396 30.2513 10.2748C30.3163 10.11 30.3469 9.93368 30.3413 9.75662C30.3356 9.57957 30.2938 9.40553 30.2185 9.24522C30.1431 9.08492 30.0357 8.94172 29.9029 8.82444L22.2269 1.14146C21.8653 0.779589 21.4358 0.492522 20.9632 0.296665C20.4906 0.100808 19.984 0 19.4724 0C18.9607 0 18.4541 0.100808 17.9815 0.296665C17.5089 0.492522 17.0795 0.779589 16.7178 1.14146L9.04039 8.82444C8.79657 9.0679 8.65944 9.39824 8.65918 9.7428C8.65892 10.0874 8.79554 10.4179 9.039 10.6617C9.28246 10.9056 9.6128 11.0427 9.95736 11.0429C10.3019 11.0432 10.6325 10.9066 10.8763 10.6631L10.8707 10.6617Z" fill="#C91EFA" fill-opacity="0.32"/>
<path fill-rule="evenodd" clip-rule="evenodd" d="M37.6458 24.0221C37.3017 24.0225 36.9719 24.1593 36.7286 24.4026C36.4853 24.6458 36.3485 24.9757 36.3481 25.3197V30.5117C36.3481 31.0231 36.2474 31.5296 36.0517 32.002C35.856 32.4745 35.5691 32.9038 35.2075 33.2655C34.8459 33.6271 34.4165 33.9139 33.9441 34.1096C33.4716 34.3053 32.9652 34.4061 32.4538 34.4061H6.49103C5.97962 34.4061 5.47321 34.3053 5.00073 34.1096C4.52825 33.9139 4.09894 33.6271 3.73732 33.2655C3.37569 32.9038 3.08884 32.4745 2.89313 32.002C2.69742 31.5296 2.59669 31.0231 2.59669 30.5117V25.317C2.59669 24.9726 2.4599 24.6424 2.21641 24.3989C1.97293 24.1554 1.64269 24.0186 1.29835 24.0186C0.954003 24.0186 0.623764 24.1554 0.380277 24.3989C0.13679 24.6424 0 24.9726 0 25.317V30.509C0.00036873 32.2304 0.684362 33.8812 1.90159 35.0984C3.11881 36.3156 4.76962 36.9996 6.49103 37H32.4524C34.1731 36.9996 35.8232 36.3162 37.0403 35.0999C38.2575 33.8836 38.9419 32.2338 38.9434 30.5131V25.317C38.9423 24.9734 38.8051 24.6443 38.5619 24.4016C38.3187 24.1589 37.9893 24.0225 37.6458 24.0221Z" fill="#C91EFA" fill-opacity="0.32"/>
</svg>
