<svg width="25" height="25" viewBox="0 0 25 25" fill="none" xmlns="http://www.w3.org/2000/svg">
<g clip-path="url(#clip0_1016_346)">
<path d="M12.5 0C10.0277 0 7.61099 0.733112 5.55538 2.10663C3.49976 3.48015 1.89761 5.43238 0.951511 7.71646C0.00541607 10.0005 -0.242126 12.5139 0.24019 14.9386C0.722505 17.3634 1.91301 19.5907 3.66117 21.3388C5.40933 23.087 7.63661 24.2775 10.0614 24.7598C12.4861 25.2421 14.9995 24.9946 17.2835 24.0485C19.5676 23.1024 21.5199 21.5002 22.8934 19.4446C24.2669 17.389 25 14.9723 25 12.5C25 9.18479 23.683 6.00537 21.3388 3.66116C18.9946 1.31696 15.8152 0 12.5 0V0ZM12.5 23.8651C10.2522 23.8651 8.05487 23.1986 6.18588 21.9498C4.3169 20.7009 2.8602 18.9259 2 16.8492C1.1398 14.7725 0.914737 12.4874 1.35326 10.2828C1.79179 8.07816 2.87421 6.05309 4.46365 4.46365C6.05309 2.8742 8.07816 1.79178 10.2828 1.35326C12.4874 0.914731 14.7725 1.1398 16.8492 2C18.926 2.8602 20.7009 4.31689 21.9498 6.18588C23.1986 8.05486 23.8651 10.2522 23.8651 12.5C23.8651 13.9925 23.5712 15.4704 23 16.8492C22.4289 18.2281 21.5917 19.481 20.5364 20.5364C19.481 21.5917 18.2281 22.4289 16.8492 23C15.4704 23.5712 13.9925 23.8651 12.5 23.8651Z" fill="url(#paint0_linear_1016_346)"/>
<path fill-rule="evenodd" clip-rule="evenodd" d="M17.5267 7.48962C16.3946 6.357 14.8895 5.67442 13.2916 5.56901C11.6937 5.46361 10.1119 5.94255 8.84083 6.91665C7.56977 7.89075 6.69607 9.29361 6.38242 10.864C6.06877 12.4344 6.33656 14.0652 7.13591 15.4528L6.19971 18.8738L9.6996 17.9621C10.6662 18.4938 11.7507 18.7745 12.8539 18.7785C14.1637 18.7829 15.4453 18.3976 16.5356 17.6716C17.6259 16.9456 18.4755 15.9116 18.9765 14.7013C19.4775 13.491 19.6072 12.1591 19.349 10.8749C19.0908 9.59067 18.4565 8.41229 17.5267 7.48962ZM12.8566 17.6437C11.8755 17.6409 10.9131 17.3749 10.0697 16.8735L9.86833 16.7537L7.7918 17.298L8.33611 15.2732L8.20548 15.0664C7.55865 14.0362 7.27252 12.8202 7.39206 11.6097C7.5116 10.3992 8.03003 9.26269 8.86586 8.37891C9.70169 7.49513 10.8075 6.91417 12.0095 6.72736C13.2115 6.54055 14.4415 6.75849 15.5061 7.3469C16.5708 7.93532 17.4097 8.86085 17.891 9.978C18.3723 11.0952 18.4687 12.3406 18.165 13.5185C17.8614 14.6964 17.1749 15.74 16.2135 16.4853C15.2521 17.2305 14.0703 17.6351 12.8539 17.6355L12.8566 17.6437ZM15.8666 13.5369C16.0326 13.6185 16.1387 13.6593 16.1823 13.7301C16.2269 13.9951 16.1938 14.2673 16.087 14.5139C15.9482 14.8976 15.2896 15.2405 14.9685 15.2977C14.6239 15.3578 14.2702 15.3383 13.9343 15.2405C13.6144 15.1415 13.3 15.0252 12.9927 14.8922C11.338 14.171 10.2575 12.519 10.1759 12.3938C10.0942 12.2686 9.50093 11.5012 9.50093 10.6874C9.49568 10.4315 9.54351 10.1772 9.6414 9.94067C9.7393 9.70413 9.88514 9.49043 10.0697 9.31305C10.1251 9.25012 10.1928 9.19928 10.2686 9.16369C10.3445 9.12811 10.4269 9.10854 10.5106 9.10621C10.6195 9.10621 10.7311 9.10621 10.8263 9.10621C10.9216 9.10621 11.0631 9.06811 11.1992 9.37837C11.3352 9.68862 11.6727 10.5377 11.7026 10.6139C11.7297 10.6566 11.7455 10.7056 11.7483 10.7561C11.7512 10.8066 11.7411 10.8569 11.719 10.9024C11.6763 11.0003 11.6204 11.0918 11.553 11.1746C11.4713 11.2726 11.3788 11.3896 11.3053 11.4658C11.2318 11.542 11.1366 11.6372 11.2318 11.8005C11.4804 12.2248 11.7904 12.61 12.1517 12.9436C12.5434 13.2897 12.9917 13.5659 13.4771 13.76C13.6431 13.8417 13.7492 13.8281 13.8336 13.7192C13.918 13.6103 14.2473 13.2375 14.3561 13.0715C14.465 12.9055 14.5766 12.9354 14.729 12.9898C14.8814 13.0443 15.6897 13.4416 15.8557 13.5341" fill="url(#paint1_linear_1016_346)"/>
</g>
<defs>
<linearGradient id="paint0_linear_1016_346" x1="1.67375" y1="6.24864" x2="23.3263" y2="18.7514" gradientUnits="userSpaceOnUse">
<stop offset="0.25" stop-color="#A3C492"/>
<stop offset="1" stop-color="#3F813C"/>
</linearGradient>
<linearGradient id="paint1_linear_1016_346" x1="308.691" y1="603.316" x2="955.633" y2="603.316" gradientUnits="userSpaceOnUse">
<stop offset="0.25" stop-color="#A3C492"/>
<stop offset="1" stop-color="#3F813C"/>
</linearGradient>
<clipPath id="clip0_1016_346">
<rect width="25" height="25" fill="white"/>
</clipPath>
</defs>
</svg>
